<?xml version="1.0" encoding="UTF-8" standalone="no"?>
<svg xmlns:ffdec="https://www.free-decompiler.com/flash" xmlns:xlink="http://www.w3.org/1999/xlink" ffdec:objectType="frame" height="216.0px" width="216.0px" xmlns="http://www.w3.org/2000/svg">
  <g transform="matrix(1.0, 0.0, 0.0, 1.0, 108.0, 108.0)">
    <use ffdec:characterId="1039" height="216.0" transform="matrix(1.0, 0.0, 0.0, 1.0, -108.0, -108.0)" width="216.0" xlink:href="#shape0"/>
  </g>
  <defs>
    <g id="shape0" transform="matrix(1.0, 0.0, 0.0, 1.0, 108.0, 108.0)">
      <path d="M75.65 -75.65 Q107.0 -44.3 107.0 0.0 107.0 44.3 75.65 75.65 44.3 107.0 0.0 107.0 -44.3 107.0 -75.65 75.65 -107.0 44.3 -107.0 0.0 -107.0 -44.3 -75.65 -75.65 -44.3 -107.0 0.0 -107.0 44.3 -107.0 75.65 -75.65" fill="url(#gradient0)" fill-rule="evenodd" stroke="none"/>
      <path d="M75.65 -75.65 Q107.0 -44.3 107.0 0.0 107.0 44.3 75.65 75.65 44.3 107.0 0.0 107.0 -44.3 107.0 -75.65 75.65 -107.0 44.3 -107.0 0.0 -107.0 -44.3 -75.65 -75.65 -44.3 -107.0 0.0 -107.0 44.3 -107.0 75.65 -75.65 Z" fill="none" stroke="url(#gradient1)" stroke-linecap="round" stroke-linejoin="round" stroke-width="2.0"/>
    </g>
    <radialGradient cx="0" cy="0" gradientTransform="matrix(0.1316, 0.0, 0.0, 0.1316, 0.0, 0.0)" gradientUnits="userSpaceOnUse" id="gradient0" r="819.2" spreadMethod="pad">
      <stop offset="0.0" stop-color="#ffffff"/>
      <stop offset="1.0" stop-color="#ffffff" stop-opacity="0.0"/>
    </radialGradient>
    <linearGradient gradientTransform="matrix(0.1318, 0.0, 0.0, 0.1318, 0.0, 0.0)" gradientUnits="userSpaceOnUse" id="gradient1" spreadMethod="pad" x1="-819.2" x2="819.2">
      <stop offset="0.0" stop-color="#ffffff" stop-opacity="0.0"/>
      <stop offset="1.0" stop-color="#ffffff"/>
    </linearGradient>
  </defs>
</svg>
