<?xml version="1.0" encoding="UTF-8" standalone="no"?>
<svg xmlns:ffdec="https://www.free-decompiler.com/flash" xmlns:xlink="http://www.w3.org/1999/xlink" ffdec:objectType="shape" height="71.6px" width="79.0px" xmlns="http://www.w3.org/2000/svg">
  <g transform="matrix(1.0, 0.0, 0.0, 1.0, 51.0, 35.8)">
    <path d="M8.6 -8.55 Q12.15 -5.0 12.15 0.0 12.15 5.05 8.6 8.6 5.05 12.15 0.0 12.15 -5.05 12.15 -8.6 8.6 -12.15 5.05 -12.15 0.0 -12.15 -5.0 -8.6 -8.55 -5.05 -12.1 0.0 -12.1 5.05 -12.1 8.6 -8.55" fill="#c6def3" fill-rule="evenodd" stroke="none"/>
    <path d="M-25.85 -8.5 Q-22.3 -8.5 -19.85 -6.0 -17.35 -3.5 -17.35 0.0 -17.35 3.5 -19.85 6.0 -22.3 8.5 -25.85 8.5 -29.35 8.5 -31.85 6.0 -34.35 3.5 -34.35 0.0 -34.35 -3.5 -31.85 -6.0 -29.35 -8.5 -25.85 -8.5" fill="#c6def3" fill-opacity="0.65882355" fill-rule="evenodd" stroke="none"/>
    <path d="M-44.95 -6.05 Q-42.4 -6.05 -40.65 -4.3 -38.9 -2.5 -38.9 0.05 -38.9 2.5 -40.65 4.3 -42.4 6.05 -44.95 6.05 -47.45 6.05 -49.2 4.3 -51.0 2.5 -51.0 0.05 -51.0 -2.5 -49.2 -4.3 -47.45 -6.05 -44.95 -6.05" fill="#dcedfc" fill-opacity="0.32941177" fill-rule="evenodd" stroke="none"/>
    <path d="M13.1 0.0 Q13.1 -14.85 1.55 -25.35 -7.3 -33.35 -18.95 -35.2 L-11.5 -35.8 Q4.95 -35.8 16.5 -25.35 28.0 -14.85 28.0 0.0 28.0 14.85 16.5 25.3 4.95 35.8 -11.5 35.8 L-18.95 35.3 Q-7.3 33.35 1.55 25.3 13.1 14.85 13.1 0.0" fill="#dceaf3" fill-rule="evenodd" stroke="none"/>
  </g>
</svg>
