<?xml version="1.0" encoding="UTF-8" standalone="no"?>
<svg xmlns:ffdec="https://www.free-decompiler.com/flash" xmlns:xlink="http://www.w3.org/1999/xlink" ffdec:objectType="frame" height="37.1px" width="128.0px" xmlns="http://www.w3.org/2000/svg">
  <g transform="matrix(2.0, 0.0, 0.0, 2.0, 127.8, 19.1)">
    <use ffdec:characterId="1041" height="18.55" transform="matrix(1.0, 0.0, 0.0, 1.0, -63.9, -9.55)" width="12.6" xlink:href="#shape0"/>
    <use ffdec:characterId="1044" height="12.35" transform="matrix(1.0, 0.0, 0.0, 1.0, -63.85, -8.2)" width="63.95" xlink:href="#shape1"/>
  </g>
  <defs>
    <g id="shape0" transform="matrix(1.0, 0.0, 0.0, 1.0, 63.9, 9.55)">
      <path d="M-51.3 -0.25 L-63.9 9.0 -63.9 -9.55 -51.3 -0.25" fill="#bebebe" fill-rule="evenodd" stroke="none"/>
    </g>
    <g id="shape1" transform="matrix(1.0, 0.0, 0.0, 1.0, 63.85, 8.2)">
      <path d="M-3.2 -1.5 L-3.2 1.5 Q-20.65 4.6 -63.85 4.05 L-63.85 -4.05 Q-15.05 -3.8 -3.2 -1.5" fill="url(#gradient0)" fill-rule="evenodd" stroke="none"/>
      <path d="M-58.3 -4.4 L-58.5 -4.3 Q-59.0 -4.3 -61.35 -6.1 L-63.5 -7.7 Q-63.5 -9.0 -60.85 -7.0 L-58.25 -4.7 -58.3 -4.4 M-62.25 -2.45 Q-62.25 -3.15 -34.6 -2.75 -7.0 -2.4 -7.0 -2.0 L-7.2 -1.6 Q-7.5 -1.25 -7.75 -1.25 L-33.6 -0.75 -49.75 -1.25 -62.25 -2.45" fill="#ffffff" fill-rule="evenodd" stroke="none"/>
      <path d="M-8.15 -1.5 L-7.95 -1.7 Q-6.9 -2.65 -6.9 -1.7 -6.9 -1.25 -9.3 0.65 -11.65 2.5 -12.15 2.5 L-12.55 2.45 -12.65 2.15 -12.6 2.05 -10.7 0.9 Q-8.2 -0.7 -8.15 -1.5 M-7.35 0.4 L-6.65 -0.15 -5.75 -1.2 Q-5.15 -1.85 -5.15 -0.95 -5.15 -0.55 -6.3 0.65 L-6.4 0.8 -6.7 1.1 Q-7.7 2.0 -8.3 2.0 L-8.65 1.95 -8.75 1.65 -7.6 0.6 -7.35 0.4 M-3.85 -0.25 L-3.55 -0.3 -3.5 -0.05 -4.3 1.0 -5.1 1.75 -5.55 1.7 -5.65 1.4 -5.45 1.2 Q-4.55 -0.1 -3.85 -0.25" fill="#ffff00" fill-rule="evenodd" stroke="none"/>
      <path d="M-12.6 2.05 L-13.25 2.35 Q-13.75 2.35 -13.75 1.95 L-13.5 1.45 -13.0 1.1 -12.6 0.85 -10.85 0.0 -9.55 -1.2 Q-8.9 -1.85 -8.25 -1.8 L-8.15 -1.55 -8.15 -1.5 Q-8.2 -0.7 -10.7 0.9 L-12.6 2.05 M-6.4 0.8 L-5.45 0.1 -3.8 -0.65 -3.75 -0.35 -3.85 -0.25 Q-4.55 -0.1 -5.45 1.2 L-6.4 1.85 Q-6.9 1.85 -6.9 1.45 L-6.7 1.1 -6.4 0.8 M-8.75 1.65 L-9.75 2.1 Q-10.25 2.1 -10.25 1.7 -10.25 1.35 -9.3 0.7 L-8.05 -0.05 -7.25 -1.05 Q-6.85 -1.6 -6.3 -1.55 L-6.25 -1.15 Q-6.25 -0.85 -7.35 0.4 L-7.6 0.6 -8.75 1.65" fill="#000000" fill-rule="evenodd" stroke="none"/>
      <path d="M-3.25 0.4 L-3.5 -0.75 Q-3.5 -3.05 0.1 -0.1 L-1.1 0.75 Q-2.3 1.5 -2.65 1.5 L-3.3 1.3 -3.5 1.0 -3.25 0.4" fill="#ffffff" fill-rule="evenodd" stroke="none"/>
      <path d="M-61.65 -1.65 Q-61.65 -2.3 -60.55 -1.95 -59.5 -1.65 -58.95 -1.0 L-58.65 0.0 -58.4 1.2 Q-58.4 2.45 -59.9 2.45 L-60.9 2.25 -61.25 2.05 Q-61.6 1.9 -61.6 1.4 L-61.55 0.55 -61.75 -0.9 -61.6 -1.55 -61.65 -1.65 M-60.9 -0.4 L-60.65 1.2 -60.65 1.55 -59.9 1.7 -59.25 1.45 -59.15 1.15 Q-59.15 -0.65 -60.4 -1.0 L-61.1 -1.25 -60.9 -0.4 M-45.0 -0.8 Q-44.25 0.85 -44.25 1.7 L-44.3 2.05 -45.75 2.2 Q-47.15 2.2 -47.0 1.45 L-46.65 0.7 Q-46.35 0.3 -45.9 0.2 -46.4 -0.5 -46.4 -1.55 -46.4 -2.65 -45.6 -2.2 -44.85 -1.75 -45.0 -0.8 M-48.0 -0.45 L-47.9 -0.2 -48.2 0.35 -48.4 0.4 Q-47.55 0.7 -47.3 0.95 -47.15 1.15 -47.15 1.55 -47.15 2.6 -48.5 2.6 L-49.15 2.55 -49.25 2.25 -49.0 1.9 -48.1 1.65 -48.05 1.5 Q-48.05 1.35 -48.9 1.05 -49.75 0.75 -49.75 0.4 -49.75 0.05 -49.2 -0.25 L-48.0 -0.45 M-38.25 -0.2 L-38.95 1.6 -39.65 3.1 Q-40.15 3.1 -40.25 2.6 L-40.2 2.35 -41.15 1.5 -41.65 0.4 Q-41.65 -0.2 -41.2 0.05 -40.85 0.25 -40.65 0.7 L-39.95 1.4 Q-39.35 -0.65 -38.3 -0.45 L-38.25 -0.2 M-41.8 2.35 L-42.3 2.2 -42.6 1.8 -42.8 2.1 -43.15 2.2 Q-43.9 2.2 -43.75 1.15 L-43.65 0.3 -42.25 0.2 -41.4 1.95 Q-41.4 2.35 -41.8 2.35 M-45.55 1.15 L-45.9 1.15 -46.2 1.45 -45.45 1.4 -45.4 1.25 -45.55 1.15 M-50.45 2.1 L-50.65 2.2 Q-51.7 2.2 -51.25 0.65 L-51.45 1.25 -52.25 1.45 -52.3 2.15 -52.6 2.2 Q-53.05 2.2 -53.15 1.8 L-53.15 1.3 Q-53.15 0.15 -51.75 -0.3 -50.4 -0.8 -50.4 1.85 L-50.45 2.1 M-53.65 1.1 L-54.0 1.85 Q-54.4 2.35 -54.95 2.35 -55.9 2.35 -56.1 1.75 L-57.1 1.95 Q-58.3 1.95 -58.0 1.4 -58.0 0.35 -56.8 0.0 -55.8 -0.35 -55.65 0.55 L-55.3 0.5 -53.95 0.35 Q-53.65 0.35 -53.65 1.1 M-54.7 1.4 L-54.65 1.45 -54.4 1.05 -54.45 1.0 -54.7 1.4 M-56.8 0.95 L-56.9 1.15 -56.4 0.8 Q-56.7 0.7 -56.8 0.95" fill="#9d9d9d" fill-rule="evenodd" stroke="none"/>
    </g>
    <linearGradient gradientTransform="matrix(0.0, 0.0048, -0.0043, 0.0, -33.55, 0.05)" gradientUnits="userSpaceOnUse" id="gradient0" spreadMethod="pad" x1="-819.2" x2="819.2">
      <stop offset="0.0" stop-color="#999999"/>
      <stop offset="0.5333333333333333" stop-color="#ffffff"/>
      <stop offset="1.0" stop-color="#999999"/>
    </linearGradient>
  </defs>
</svg>
