<?xml version="1.0" encoding="UTF-8" standalone="no"?>
<svg xmlns:ffdec="https://www.free-decompiler.com/flash" xmlns:xlink="http://www.w3.org/1999/xlink" ffdec:objectType="shape" height="149.35px" width="141.45px" xmlns="http://www.w3.org/2000/svg">
  <g transform="matrix(1.0, 0.0, 0.0, 1.0, 76.35, 69.75)">
    <path d="M5.1 50.4 Q4.95 59.05 6.7 67.75 18.65 61.55 6.9 41.1 5.2 41.7 5.1 50.4 M-19.7 3.4 L-22.05 26.95 Q-22.55 33.05 -23.5 33.9 -24.4 34.6 -29.0 35.1 -35.05 36.45 -43.05 41.55 -56.6 50.15 -59.0 55.15 L-59.8 57.6 Q-60.15 58.4 -62.1 58.9 -64.5 59.5 -66.85 54.9 -69.65 49.5 -73.0 35.95 L-76.05 24.35 Q-76.95 19.8 -75.3 17.6 -73.6 15.2 -67.35 13.05 -62.6 11.4 -48.6 7.9 -25.65 2.2 -23.35 1.9 L-21.05 2.1 -19.7 3.4 M19.15 69.5 L4.6 73.15 -4.25 37.65 10.3 34.0 19.15 69.5 M-29.7 29.45 L-27.75 8.85 -48.9 14.35 -69.55 19.55 -62.6 46.65 -29.7 29.45" fill="#85858e" fill-rule="evenodd" stroke="none"/>
    <path d="M5.1 50.4 Q5.2 41.7 6.9 41.1 18.65 61.55 6.7 67.75 4.95 59.05 5.1 50.4 M-29.7 29.45 L-62.6 46.65 -69.55 19.55 -48.9 14.35 -27.75 8.85 -29.7 29.45" fill="#b8b8b8" fill-rule="evenodd" stroke="none"/>
    <path d="M0.55 -68.35 Q17.35 -72.5 27.95 -64.5 35.95 -58.55 38.6 -47.9 L39.0 -44.7 39.4 -41.5 Q39.5 -40.95 40.35 -40.15 L43.45 -37.05 46.4 -33.7 47.3 -31.95 Q48.0 -29.0 44.75 5.2 41.6 37.3 40.7 42.55 39.45 49.2 35.75 55.45 31.45 62.8 26.4 64.05 25.4 64.3 19.25 61.75 L18.7 59.6 20.25 59.15 -0.7 39.7 Q0.85 42.2 0.1 46.0 -0.75 50.25 -4.2 51.1 -10.25 52.6 -16.55 48.65 -25.2 43.3 -28.65 29.5 L-29.45 25.45 -29.75 18.85 -30.1 13.6 -34.55 6.9 Q-39.2 -0.3 -39.75 -2.6 -42.5 -13.65 -41.25 -23.6 -39.7 -35.5 -31.9 -54.3 L-24.85 -49.7 Q-9.25 -61.75 -3.7 -65.7 -0.45 -68.1 0.55 -68.35 M-15.6 -12.55 L-13.45 -15.0 -0.7 23.4 -15.6 -12.55 M21.3 -25.4 Q24.15 -29.85 26.5 -23.25 L33.65 34.15 31.85 35.95 19.55 -15.45 Q18.6 -21.1 21.3 -25.4 M39.1 -36.85 Q38.35 -37.45 34.3 -42.0 L30.4 -46.45 Q21.65 -41.9 17.35 -40.95 L14.75 -40.95 -32.8 -30.9 Q-34.3 -25.0 -36.3 -20.15 -37.25 -17.1 -35.95 -12.0 -35.2 -9.05 -31.75 -3.7 -28.35 1.65 -27.15 6.55 -25.35 13.8 -25.5 15.4 -25.6 16.45 -26.4 19.35 L-14.55 46.2 -4.7 44.3 -7.55 33.0 -5.45 32.4 Q2.35 30.5 13.8 44.7 L21.25 54.55 Q24.65 59.05 25.65 58.8 30.25 57.65 33.3 51.05 36.2 44.6 37.25 33.9 40.6 0.3 41.6 -14.05 42.55 -29.15 41.55 -33.15 40.1 -35.95 39.1 -36.85" fill="#ffffff" fill-rule="evenodd" stroke="none"/>
    <path d="M39.1 -36.85 Q40.1 -35.95 41.55 -33.15 42.55 -29.15 41.6 -14.05 40.6 0.3 37.25 33.9 36.2 44.6 33.3 51.05 30.25 57.65 25.65 58.8 24.65 59.05 21.25 54.55 L13.8 44.7 Q2.35 30.5 -5.45 32.4 L-7.55 33.0 -4.7 44.3 -14.55 46.2 -26.4 19.35 Q-25.6 16.45 -25.5 15.4 -25.35 13.8 -27.15 6.55 -28.35 1.65 -31.75 -3.7 -35.2 -9.05 -35.95 -12.0 -37.25 -17.1 -36.3 -20.15 -34.3 -25.0 -32.8 -30.9 L14.75 -40.95 17.35 -40.95 Q21.65 -41.9 30.4 -46.45 L34.3 -42.0 Q38.35 -37.45 39.1 -36.85 M21.3 -25.4 Q18.6 -21.1 19.55 -15.45 L31.85 35.95 33.65 34.15 26.5 -23.25 Q24.15 -29.85 21.3 -25.4 M-15.6 -12.55 L-0.7 23.4 -13.45 -15.0 -15.6 -12.55" fill="url(#gradient0)" fill-rule="evenodd" stroke="none"/>
    <path d="M-47.95 26.4 L-43.25 27.8 -35.85 62.85 -47.95 26.4 M-61.7 20.95 L-60.65 21.4 -54.1 65.9 Q-66.5 27.1 -67.2 23.1 L-62.55 24.3 -61.7 20.95 M-18.4 31.5 L-17.25 31.3 -13.55 41.5 -13.8 36.35 -2.45 51.8 -5.6 52.3 -5.0 59.4 -18.4 31.5 M19.25 55.2 L25.45 63.7 Q25.95 62.5 26.9 62.25 27.9 62.05 30.1 63.75 L29.95 79.6 19.25 55.2" fill="#ffffff" fill-rule="evenodd" stroke="none"/>
    <path d="M30.45 -56.9 L29.4 -56.35 Q27.0 -53.8 24.35 -39.3 25.5 -38.95 26.5 -37.9 27.45 -36.95 27.6 -36.25 28.1 -34.35 26.15 -32.55 24.5 -31.05 22.15 -30.5 15.15 -28.75 14.2 -32.65 L16.65 -37.4 Q19.9 -43.75 22.35 -52.4 L20.7 -52.5 Q23.05 -65.4 26.85 -63.2 28.75 -62.15 30.25 -58.3 L30.45 -56.9 M65.1 -2.6 Q45.95 -3.35 32.95 5.45 L31.15 -1.9 Q48.9 -3.15 63.3 -9.95 L65.1 -2.6 M31.8 44.45 L33.05 44.5 Q34.1 44.7 35.4 46.0 36.75 47.25 40.55 52.6 42.4 55.3 42.25 56.1 45.5 55.7 50.85 53.5 L51.15 54.2 51.55 55.3 Q52.15 57.8 49.4 60.35 47.3 62.3 45.9 62.65 L43.1 62.5 Q41.95 61.8 41.2 60.3 40.1 61.25 31.65 54.7 27.15 55.85 26.1 51.55 25.65 49.75 27.2 47.55 28.95 45.15 31.8 44.45" fill="#85858e" fill-rule="evenodd" stroke="none"/>
    <path d="M27.45 -57.4 L25.65 -56.4 23.65 -56.45 Q22.75 -56.8 22.6 -57.45 22.45 -58.15 23.05 -58.85 23.75 -59.55 24.85 -59.8 25.95 -60.1 26.85 -59.8 27.75 -59.5 27.9 -58.8 28.05 -58.15 27.45 -57.4 M61.1 -4.0 Q60.65 -3.3 59.85 -3.1 59.0 -2.9 58.35 -3.35 57.6 -3.75 57.4 -4.6 57.2 -5.4 57.65 -6.1 58.0 -6.8 58.85 -7.0 L60.4 -6.75 Q61.1 -6.35 61.3 -5.55 61.5 -4.7 61.1 -4.0 M44.45 57.75 Q44.95 56.95 45.9 56.7 46.8 56.45 47.6 56.95 48.35 57.45 48.6 58.35 48.8 59.3 48.4 60.05 47.9 60.85 47.0 61.1 L45.25 60.85 Q44.45 60.4 44.25 59.45 44.0 58.55 44.45 57.75" fill="#ffffff" fill-rule="evenodd" stroke="none"/>
    <path d="M-39.3 19.65 L-51.55 22.15 Q-59.95 24.25 -62.6 27.95 -64.65 30.75 -63.75 35.75 L-62.2 44.85 Q-61.8 50.45 -64.8 54.6 -65.15 54.7 -65.7 49.7 -66.8 39.95 -76.15 19.2 L-55.3 10.65 Q-46.65 7.0 -34.95 6.2 -36.9 18.95 -39.3 19.65" fill="#ffffff" fill-opacity="0.32941177" fill-rule="evenodd" stroke="none"/>
    <path d="M34.5 53.2 L34.6 53.25 Q38.65 55.4 46.35 60.55 L45.85 61.65 45.25 62.35 Q44.65 62.5 36.6 58.75 L35.2 58.05 34.75 58.55 33.1 59.2 32.5 59.35 32.85 60.05 32.4 60.45 31.75 61.05 31.15 60.95 30.75 60.8 Q30.35 60.5 30.1 59.65 L30.3 59.3 Q29.25 59.1 28.75 58.25 L28.35 56.6 Q28.05 55.5 28.2 54.75 L25.45 53.35 Q27.1 49.25 34.5 53.2 M17.45 56.3 Q16.8 58.1 17.2 61.55 L17.85 67.65 Q18.1 70.35 10.65 71.5 L7.25 72.3 Q6.3 72.3 5.8 71.45 5.7 71.15 5.5 71.25 L6.9 67.35 Q8.55 63.35 8.3 60.0 L7.35 52.3 Q6.95 48.65 7.25 46.55 7.75 43.8 8.45 42.5 10.15 39.2 13.3 45.45 15.85 50.55 17.45 56.3 M29.2 -55.4 L29.5 -54.6 Q29.65 -53.95 26.9 -47.55 24.1 -41.15 24.35 -40.25 24.45 -39.75 25.3 -39.35 L27.55 -37.6 27.5 -36.8 27.3 -36.4 26.35 -36.0 Q24.7 -35.6 22.85 -37.75 21.4 -39.45 21.25 -40.2 20.85 -41.8 24.15 -48.3 27.4 -54.85 29.0 -55.5 29.0 -55.4 29.2 -55.4 M-29.55 31.6 L-61.1 54.3 Q-61.9 53.75 -62.7 52.6 -63.9 50.85 -64.45 48.55 -65.55 44.2 -65.0 41.8 -64.35 38.95 -61.2 36.55 -56.45 32.95 -32.9 23.8 L-29.55 31.6" fill="#000000" fill-opacity="0.32941177" fill-rule="evenodd" stroke="none"/>
    <path d="M8.45 42.5 L5.2 38.1 Q1.5 33.6 -1.4 34.35 -2.0 34.5 -4.7 38.75 L-7.3 43.05 Q-12.55 39.4 -16.8 35.85 -25.25 29.0 -26.45 24.2 -27.8 18.85 -25.7 15.8 -24.15 13.6 -20.9 12.8 -20.3 12.65 -17.85 15.9 L-15.55 19.25 -13.35 10.4 13.65 29.75 Q14.65 29.35 14.4 28.25 L12.3 24.75 10.45 22.0 18.65 22.8 Q21.9 22.95 22.7 23.45 L5.25 -0.9 14.3 -0.85 Q14.55 -2.6 14.25 -3.7 L11.45 -9.35 Q8.6 -15.05 8.4 -15.7 L7.7 -19.5 Q7.15 -22.6 7.2 -24.05 7.35 -28.25 10.0 -32.35 12.4 -36.1 12.35 -36.5 L9.25 -44.3 6.35 -51.4 Q10.2 -52.35 16.05 -56.1 L14.45 -62.5 Q27.25 -56.7 29.55 -60.1 29.8 -59.4 29.5 -58.55 29.2 -57.6 28.3 -57.1 L42.65 -30.75 42.15 -21.25 Q40.75 -23.15 36.05 -26.75 L29.9 -31.35 Q29.75 -31.9 30.15 -32.95 30.5 -33.9 30.35 -34.55 L30.0 -35.35 29.8 -35.6 29.6 -35.5 Q29.3 -36.7 29.0 -36.9 28.1 -36.8 25.6 -34.9 22.85 -32.85 20.25 -32.2 L17.75 -32.4 Q16.65 -33.1 15.85 -32.9 L14.85 -32.3 14.6 -31.6 Q15.75 -29.6 18.1 -29.25 L17.4 -28.6 Q19.4 -26.8 24.6 -26.45 L26.75 -26.35 27.3 -26.0 Q32.25 -23.05 33.65 -23.4 L33.95 -23.5 34.0 -23.35 33.25 -20.8 Q33.0 -19.65 34.95 -19.4 L34.9 -18.45 Q34.9 -18.3 37.35 -16.75 39.85 -15.15 40.1 -15.2 41.2 -15.45 41.85 -16.15 L40.95 -1.05 38.55 0.3 35.65 2.1 Q34.9 2.3 33.95 -0.15 33.1 -2.5 30.8 -1.8 L32.0 3.0 Q32.6 3.6 33.2 5.75 33.7 6.85 35.05 7.0 L36.65 8.35 Q39.0 10.1 40.2 10.0 38.05 38.7 36.05 47.2 L34.5 53.2 Q27.1 49.25 25.45 53.35 L28.2 54.75 Q28.05 55.5 28.35 56.6 L28.75 58.25 Q29.25 59.1 30.3 59.3 L30.1 59.65 Q30.35 60.5 30.75 60.8 L31.15 60.95 26.35 61.95 Q23.1 62.75 19.15 58.35 L17.45 56.3 Q15.85 50.55 13.3 45.45 10.15 39.2 8.45 42.5 M40.75 2.6 L40.55 5.0 Q39.3 4.05 38.7 4.2 L37.6 4.45 37.45 4.25 40.75 2.6 M29.2 -55.4 Q29.0 -55.4 29.0 -55.5 27.4 -54.85 24.15 -48.3 20.85 -41.8 21.25 -40.2 21.4 -39.45 22.85 -37.75 24.7 -35.6 26.35 -36.0 L27.3 -36.4 27.5 -36.8 27.55 -37.6 25.3 -39.35 Q24.45 -39.75 24.35 -40.25 24.1 -41.15 26.9 -47.55 29.65 -53.95 29.5 -54.6 L29.2 -55.4" fill="#000000" fill-opacity="0.101960786" fill-rule="evenodd" stroke="none"/>
    <path d="M42.15 -21.25 L42.65 -20.25 Q43.0 -18.85 42.6 -17.45 L41.85 -16.15 Q41.2 -15.45 40.1 -15.2 39.85 -15.15 37.35 -16.75 34.9 -18.3 34.9 -18.45 L34.95 -19.4 Q33.0 -19.65 33.25 -20.8 L34.0 -23.35 33.95 -23.5 33.65 -23.4 Q32.25 -23.05 27.3 -26.0 L26.75 -26.35 24.6 -26.45 Q19.4 -26.8 17.4 -28.6 L18.1 -29.25 Q15.75 -29.6 14.6 -31.6 L14.85 -32.3 15.85 -32.9 Q16.65 -33.1 17.75 -32.4 L20.25 -32.2 Q22.85 -32.85 25.6 -34.9 28.1 -36.8 29.0 -36.9 29.3 -36.7 29.6 -35.5 L29.8 -35.6 30.0 -35.35 30.35 -34.55 Q30.5 -33.9 30.15 -32.95 29.75 -31.9 29.9 -31.35 L36.05 -26.75 Q40.75 -23.15 42.15 -21.25 M40.95 -1.05 Q43.2 -2.05 46.0 -2.75 L48.4 -3.2 56.05 -4.8 56.9 -4.8 Q57.35 -4.75 57.55 -4.0 57.75 -3.25 57.35 -2.85 L56.7 -2.35 Q47.45 -0.95 42.95 1.25 L40.75 2.6 37.45 4.25 37.6 4.45 38.7 4.2 Q39.3 4.05 40.55 5.0 L42.75 7.05 Q43.0 7.9 42.5 8.7 41.85 9.6 40.4 9.95 L40.2 10.0 Q39.0 10.1 36.65 8.35 L35.05 7.0 Q33.7 6.85 33.2 5.75 32.6 3.6 32.0 3.0 L30.8 -1.8 Q33.1 -2.5 33.95 -0.15 34.9 2.3 35.65 2.1 L38.55 0.3 40.95 -1.05" fill="#000000" fill-opacity="0.2" fill-rule="evenodd" stroke="none"/>
    <path d="M-13.05 -22.65 Q-12.95 -22.2 -16.9 -17.35 -20.85 -12.55 -20.75 -12.05 L-15.6 1.85 Q-15.2 3.6 -15.85 4.75 -16.4 5.6 -17.15 5.8 -15.75 5.4 -19.35 1.05 L-27.1 -8.7 Q-37.05 -23.3 -22.35 -27.0 -18.85 -27.85 -16.15 -26.3 -13.65 -24.95 -13.05 -22.65" fill="#ffffff" fill-rule="evenodd" stroke="none"/>
  </g>
  <defs>
    <linearGradient gradientTransform="matrix(-0.0142, -0.0567, 0.0517, -0.0129, 10.85, 7.7)" gradientUnits="userSpaceOnUse" id="gradient0" spreadMethod="pad" x1="-819.2" x2="819.2">
      <stop offset="0.0" stop-color="#9dccd7"/>
      <stop offset="1.0" stop-color="#e1eaf7"/>
    </linearGradient>
  </defs>
</svg>
