<?xml version="1.0" encoding="UTF-8" standalone="no"?>
<svg xmlns:ffdec="https://www.free-decompiler.com/flash" xmlns:xlink="http://www.w3.org/1999/xlink" ffdec:objectType="shape" height="53.95px" width="44.15px" xmlns="http://www.w3.org/2000/svg">
  <g transform="matrix(1.0, 0.0, 0.0, 1.0, 22.75, 27.05)">
    <path d="M17.7 13.2 Q16.55 5.2 14.65 -2.65 5.95 -38.35 -13.85 -14.85 L-11.7 -12.05 -17.8 17.35 -16.3 15.7 Q-11.9 10.5 -10.5 14.25 -10.5 18.1 -13.95 19.35 L-17.8 19.85 -16.2 25.35 -10.2 25.35 -12.45 23.9 -11.85 23.2 -0.3 13.75 -1.4 17.55 -1.25 19.2 Q-1.35 21.45 -3.55 22.85 L-3.65 22.9 -7.3 25.35 -3.75 25.35 -1.15 25.3 3.15 25.3 Q6.6 15.65 15.65 12.45 L15.75 15.05 Q14.6 17.55 9.3 24.4 L10.8 24.9 11.25 24.45 18.8 24.75 18.35 17.3 19.95 14.65 21.3 26.9 -21.45 26.8 -21.0 21.2 -22.75 22.5 -20.6 20.2 -20.75 14.75 Q-22.1 -8.4 -6.85 -24.35 -2.15 -29.25 2.4 -25.25 18.85 -10.75 19.7 12.95 L17.7 13.2 M5.25 25.25 L6.75 24.75 6.35 24.55 5.25 25.25" fill="#000000" fill-rule="evenodd" stroke="none"/>
    <path d="M-10.5 14.25 Q-11.9 10.5 -16.3 15.7 L-17.8 17.35 -11.7 -12.05 -13.85 -14.85 Q5.95 -38.35 14.65 -2.65 16.55 5.2 17.7 13.2 16.9 13.65 15.75 15.05 L15.65 12.45 Q6.6 15.65 3.15 25.3 L-1.15 25.3 Q3.95 20.85 9.75 14.75 8.25 13.25 7.0 13.0 L5.25 14.25 5.25 12.5 Q2.4 13.95 -1.25 19.2 L-1.4 17.55 -0.3 13.75 -11.85 23.2 -3.0 15.0 -6.15 10.45 -10.5 14.25 M18.35 17.3 L18.8 24.75 11.25 24.45 18.35 17.3 M-3.75 25.35 L-7.3 25.35 -3.65 22.9 -3.75 25.35 M-12.45 23.9 L-10.2 25.35 -16.2 25.35 -17.8 19.85 -13.95 19.35 -15.9 24.9 -13.5 25.0 -12.45 23.9 M5.25 25.25 L6.35 24.55 6.75 24.75 5.25 25.25" fill="#666666" fill-rule="evenodd" stroke="none"/>
    <path d="M17.7 13.2 L19.7 12.95 19.95 14.65 18.35 17.3 11.25 24.45 10.8 24.9 9.3 24.4 Q14.6 17.55 15.75 15.05 16.9 13.65 17.7 13.2 M-1.15 25.3 L-3.75 25.35 -3.65 22.9 -3.55 22.85 Q-1.35 21.45 -1.25 19.2 2.4 13.95 5.25 12.5 L5.25 14.25 7.0 13.0 Q8.25 13.25 9.75 14.75 3.95 20.85 -1.15 25.3 M-11.85 23.2 L-12.45 23.9 -13.5 25.0 -15.9 24.9 -13.95 19.35 Q-10.5 18.1 -10.5 14.25 L-6.15 10.45 -3.0 15.0 -11.85 23.2" fill="#ffff00" fill-rule="evenodd" stroke="none"/>
    <path d="M1.75 -20.5 Q-7.6 -14.7 -10.65 -1.7 -12.55 6.4 -9.5 14.7 -8.45 16.1 -6.9 16.65 L-1.3 17.5 Q5.6 18.55 12.0 16.5 11.55 13.65 11.4 10.75 10.5 -6.8 1.75 -20.5 M-14.3 -14.65 Q-6.15 -36.9 7.05 -16.65 18.95 1.6 21.4 23.55 L20.5 25.75 11.05 26.4 14.25 25.0 -2.2 26.5 0.15 26.9 -8.35 26.55 Q-10.15 26.65 -11.05 25.4 -22.95 8.95 -14.3 -14.65" fill="#000000" fill-opacity="0.2509804" fill-rule="evenodd" stroke="none"/>
    <path d="M2.5 -22.25 Q4.25 -22.25 6.95 -11.4 10.5 2.8 11.5 5.25 L10.75 6.5 Q9.2 5.15 3.9 -4.9 -1.5 -15.25 -1.5 -17.35 -1.5 -18.9 -0.1 -19.6 1.1 -20.2 0.5 -22.0 L2.5 -22.25" fill="#ffffff" fill-opacity="0.2509804" fill-rule="evenodd" stroke="none"/>
  </g>
</svg>
