<?xml version="1.0" encoding="UTF-8" standalone="no"?>
<svg xmlns:ffdec="https://www.free-decompiler.com/flash" xmlns:xlink="http://www.w3.org/1999/xlink" ffdec:objectType="shape" height="78.0px" width="122.7px" xmlns="http://www.w3.org/2000/svg">
  <g transform="matrix(1.0, 0.0, 0.0, 1.0, 61.2, 39.15)">
    <path d="M-28.1 1.1 L-24.2 -1.9 56.15 -9.25 54.6 -17.4 -0.05 -18.55 Q-1.5 -15.2 -1.9 -17.2 -2.0 -17.95 -2.4 -18.45 -2.65 -18.8 -3.2 -18.9 L-3.3 -19.0 -2.15 -20.05 -3.35 -33.25 Q-7.65 -33.15 -11.6 -34.4 -33.3 -41.7 -39.5 -24.65 L-39.55 -23.85 Q-40.6 -10.9 -47.95 0.25 -51.1 2.35 -51.55 3.3 L-49.9 4.5 Q-51.8 8.75 -53.3 13.0 L-58.55 36.3 -33.25 19.8 -33.1 16.95 Q-32.45 8.3 -28.1 1.1 M58.95 -20.95 L58.45 -17.35 61.5 -5.15 -15.5 1.8 -15.7 3.6 -25.45 2.25 -28.65 20.35 -30.1 22.75 -30.4 24.75 -32.5 24.95 Q-45.85 37.7 -61.05 38.85 L-59.4 37.05 -60.55 37.0 -60.8 36.65 Q-61.8 30.45 -60.3 24.6 -53.25 -2.75 -45.2 -28.3 L-37.4 -39.15 -34.6 -39.0 Q-27.95 -36.0 -20.95 -37.5 5.05 -43.0 0.2 -19.1 L58.95 -20.95" fill="#000000" fill-rule="evenodd" stroke="none"/>
    <path d="M-47.95 0.25 Q-40.6 -10.9 -39.55 -23.85 L-39.5 -24.65 Q-33.3 -41.7 -11.6 -34.4 -7.65 -33.15 -3.35 -33.25 L-2.15 -20.05 -3.3 -19.0 -3.2 -18.9 Q-2.65 -18.8 -2.4 -18.45 -2.0 -17.95 -1.9 -17.2 -1.5 -15.2 -0.05 -18.55 L54.6 -17.4 56.15 -9.25 -24.2 -1.9 -28.1 1.1 -28.15 -1.5 -26.85 -1.9 -29.05 -2.65 Q-37.35 -4.45 -45.7 -1.65 L-46.15 -1.6 -47.95 0.25 M-16.5 -31.1 L-16.5 -18.15 -15.65 -16.9 -13.6 -17.3 -12.4 -21.1 Q-11.55 -23.75 -11.55 -26.15 -11.55 -28.7 -12.45 -29.75 L-14.0 -31.1 -16.5 -31.1" fill="#d2d8c9" fill-rule="evenodd" stroke="none"/>
    <path d="M-16.5 -31.1 L-14.0 -31.1 -12.45 -29.75 Q-11.55 -28.7 -11.55 -26.15 -11.55 -23.75 -12.4 -21.1 L-13.6 -17.3 -15.65 -16.9 -16.5 -18.15 -16.5 -31.1" fill="#ee0000" fill-rule="evenodd" stroke="none"/>
    <path d="M-29.05 -2.65 L-26.85 -1.9 -28.15 -1.5 -29.05 -2.65" fill="#2f3025" fill-rule="evenodd" stroke="none"/>
    <path d="M-28.1 1.1 Q-32.45 8.3 -33.1 16.95 L-33.25 19.8 -58.55 36.3 -53.3 13.0 Q-51.8 8.75 -49.9 4.5 L-51.55 3.3 Q-51.1 2.35 -47.95 0.25 L-46.15 -1.6 -45.7 -1.65 Q-37.35 -4.45 -29.05 -2.65 L-28.15 -1.5 -28.1 1.1 M-53.3 13.0 L-52.8 13.2 -53.35 13.05 -52.8 13.2 -53.3 13.0" fill="#83836b" fill-rule="evenodd" stroke="none"/>
    <path d="M11.7 -15.8 L14.45 -15.4 6.0 -15.85 6.2 -15.85 -2.4 -16.35 -3.65 -33.05 0.2 -32.3 Q-2.4 -27.25 -2.65 -22.55 -2.9 -17.85 6.35 -18.2 L56.9 -19.8 Q56.75 -18.0 59.15 -11.65 61.5 -5.3 42.25 -4.2 L1.8 -1.7 Q-19.4 -0.35 -25.15 5.2 -34.7 14.25 -34.0 29.45 L-35.7 29.2 -37.15 19.9 -52.35 35.25 -60.6 34.15 Q-60.8 32.55 -60.3 31.05 -54.4 12.9 -47.45 0.4 L-49.95 2.4 Q-48.35 -7.9 -43.45 -17.7 -38.25 -28.05 -32.2 -36.45 L-30.25 -36.05 -28.4 -37.3 -26.8 -36.45 -27.1 -33.75 Q-14.05 -38.65 -14.6 -35.3 L-5.65 -33.45 -9.55 -33.25 -8.05 -15.0 Q-45.6 0.35 -24.95 -12.7 -26.55 -14.35 -26.95 -16.8 -28.4 -25.5 -22.95 -31.0 L-22.55 -29.3 Q-22.2 -27.3 -22.35 -25.35 -22.65 -20.85 -19.55 -18.05 -16.05 -17.7 -12.75 -22.75 -9.85 -27.15 -11.05 -33.2 -21.6 -33.75 -30.1 -27.5 -33.25 -20.7 -37.2 -14.45 -50.3 6.1 -55.65 30.3 -38.1 26.25 -34.8 10.5 -31.35 -6.0 -10.8 -3.9 L-13.05 -4.35 -14.1 -5.6 -1.5 -15.55 Q-0.45 -15.3 0.05 -14.1 1.6 -10.3 1.35 -5.95 L5.95 -5.95 50.7 -11.95 52.8 -15.65 11.7 -15.8" fill="#000000" fill-opacity="0.2509804" fill-rule="evenodd" stroke="none"/>
    <path d="M-33.15 1.95 Q-33.0 11.8 -37.2 18.9 L-35.65 -0.85 Q-33.2 -0.6 -33.15 1.95 M-10.4 -36.0 L-9.2 -36.9 Q-2.2 -31.3 -3.4 -22.4 -5.4 -22.05 -6.4 -24.15 -11.35 -34.45 -20.85 -35.85 L-10.4 -36.0 M-14.3 -25.45 L-14.1 -26.4 Q-13.0 -29.4 -12.4 -27.1 L-13.0 -23.85 -14.3 -25.45 M30.8 -13.05 L21.75 -12.4 Q7.55 -10.4 -5.25 -14.6 L40.5 -17.2 34.15 -15.2 50.5 -15.3 Q43.95 -13.15 36.95 -13.1 L30.8 -13.05" fill="#ffffff" fill-rule="evenodd" stroke="none"/>
  </g>
</svg>
