<?xml version="1.0" encoding="UTF-8" standalone="no"?>
<svg xmlns:ffdec="https://www.free-decompiler.com/flash" xmlns:xlink="http://www.w3.org/1999/xlink" ffdec:objectType="shape" height="177.75px" width="121.75px" xmlns="http://www.w3.org/2000/svg">
  <g transform="matrix(1.0, 0.0, 0.0, 1.0, 92.85, 43.3)">
    <path d="M-75.35 -13.55 L-67.35 -25.85 Q-57.55 -35.25 -50.05 -39.1 -41.85 -43.3 -31.9 -43.3 -13.0 -43.3 -1.25 -29.5 7.55 -19.15 12.95 0.1 17.9 12.45 21.65 24.45 28.9 47.6 28.9 67.2 28.9 98.5 10.5 116.35 -8.2 134.45 -41.65 134.45 -69.6 134.45 -81.9 115.15 -92.85 98.05 -92.85 63.1 -92.85 27.25 -83.7 3.4 -80.35 -5.25 -75.35 -13.55 M-27.85 -38.1 Q-56.35 -38.1 -73.65 -3.45 -80.65 10.5 -84.45 27.8 -87.95 43.55 -87.95 57.65 -87.95 74.35 -86.95 83.5 -85.45 97.1 -81.15 105.95 -70.5 127.85 -38.25 127.85 -7.6 127.85 8.55 107.8 22.0 91.1 22.0 66.4 22.0 19.95 2.2 -12.1 -5.4 -24.35 -14.3 -31.6 -22.3 -38.1 -27.85 -38.1" fill="#000000" fill-rule="evenodd" stroke="none"/>
  </g>
</svg>
