<?xml version="1.0" encoding="UTF-8" standalone="no"?>
<svg xmlns:ffdec="https://www.free-decompiler.com/flash" xmlns:xlink="http://www.w3.org/1999/xlink" ffdec:objectType="shape" height="152.1px" width="126.8px" xmlns="http://www.w3.org/2000/svg">
  <g transform="matrix(1.0, 0.0, 0.0, 1.0, 0.0, 0.0)">
    <path d="M8.75 122.6 L6.9 115.95 8.6 111.55 3.25 109.6 Q1.65 114.35 2.65 119.6 3.5 124.2 6.25 128.35 L11.5 128.35 8.75 122.6 M1.2 106.35 Q7.7 107.05 10.0 113.1 13.45 122.3 14.5 131.35 L2.4 130.05 2.5 129.8 Q-1.7 116.8 1.2 106.35 M95.45 131.7 L95.25 125.85 92.7 126.8 Q89.5 137.35 90.45 148.1 L92.45 148.1 93.85 144.35 97.2 144.35 95.45 131.7 M87.2 146.6 L87.05 146.1 Q84.7 131.15 93.95 122.75 103.4 133.0 100.5 148.15 98.9 149.2 97.05 149.5 91.4 149.8 87.2 146.6" fill="#519c30" fill-rule="evenodd" stroke="none"/>
    <path d="M8.75 122.6 L11.5 128.35 6.25 128.35 Q3.5 124.2 2.65 119.6 1.65 114.35 3.25 109.6 L8.6 111.55 6.9 115.95 3.25 110.1 8.5 124.85 8.75 122.6 M93.85 144.35 L95.45 131.7 97.2 144.35 93.85 144.35" fill="#5ab035" fill-rule="evenodd" stroke="none"/>
    <path d="M6.9 115.95 L8.75 122.6 8.5 124.85 3.25 110.1 6.9 115.95 M93.85 144.35 L92.45 148.1 90.45 148.1 Q89.5 137.35 92.7 126.8 L95.25 125.85 95.45 131.7 93.85 144.35" fill="#a2bf26" fill-rule="evenodd" stroke="none"/>
    <path d="M6.0 109.1 Q6.5 109.15 6.7 109.45 13.45 119.25 20.1 129.9 L19.7 130.0 Q3.15 133.05 6.0 109.1 M95.0 127.6 L96.8 128.15 98.4 132.65 99.25 129.85 102.45 140.6 100.1 144.65 110.2 145.6 105.95 147.6 109.55 149.7 103.45 148.35 100.55 147.25 101.95 150.15 96.45 152.1 96.15 150.55 Q93.05 141.55 94.55 131.85 L95.0 127.6" fill="#000000" fill-opacity="0.2509804" fill-rule="evenodd" stroke="none"/>
    <path d="M0.7 107.9 Q1.85 106.7 5.0 110.6 L5.0 115.85 4.75 116.35 Q4.5 116.85 3.0 116.85 0.5 116.85 0.0 114.5 L0.0 111.85 Q0.0 108.65 0.7 107.9 M94.55 131.85 L90.1 134.8 87.25 134.45 92.7 124.0 95.0 127.6 94.55 131.85" fill="#ffffff" fill-opacity="0.5019608" fill-rule="evenodd" stroke="none"/>
    <path d="M89.3 28.85 Q91.5 46.35 85.5 61.75 95.85 56.7 100.0 45.0 102.9 36.85 110.55 36.9 121.2 37.9 120.3 51.95 117.15 99.95 73.15 98.35 L73.15 136.55 75.65 136.6 Q58.55 162.8 30.65 143.7 L29.5 141.6 Q29.45 105.35 39.05 70.4 21.95 64.9 18.5 47.35 L19.3 46.25 Q19.95 43.95 19.5 41.8 17.25 31.15 20.75 20.8 L19.9 20.05 Q19.6 19.05 19.9 17.95 21.6 11.95 26.0 7.7 L26.65 7.7 Q31.0 3.05 36.3 9.85 41.05 22.9 38.95 36.2 L49.05 43.5 Q56.15 27.6 68.35 15.6 83.0 1.15 87.5 19.25 L88.9 26.3 Q87.45 18.6 81.75 12.35 60.0 20.6 52.25 44.85 L56.1 45.35 59.25 44.0 61.0 44.85 Q63.35 48.45 63.55 52.85 64.05 64.9 52.95 68.25 48.7 73.05 42.1 71.0 32.65 105.35 32.55 140.35 L33.9 141.25 Q53.15 155.7 69.8 139.65 64.5 119.85 69.65 97.65 63.8 96.45 61.15 91.6 49.15 69.35 78.7 63.85 81.25 57.9 84.0 52.3 90.3 39.3 89.3 28.85 M75.2 72.4 Q47.1 78.35 70.15 94.15 L70.7 90.8 73.8 92.45 73.5 94.55 Q79.2 94.95 84.45 92.7 119.9 77.65 110.45 38.85 99.6 59.3 81.3 70.95 L80.2 73.85 75.25 73.15 75.5 72.35 75.2 72.4 M57.35 48.75 Q54.65 48.6 51.55 48.85 41.85 49.0 37.7 40.35 L35.7 40.05 34.0 22.45 32.55 12.55 Q30.9 12.2 29.65 13.35 18.65 23.45 21.7 39.7 L23.65 40.3 23.0 44.4 23.9 44.65 24.5 45.2 24.5 46.1 Q23.15 51.3 26.85 54.95 48.4 76.7 54.55 51.75 L57.35 48.75" fill="#519c30" fill-rule="evenodd" stroke="none"/>
    <path d="M88.9 26.3 L89.3 28.85 Q90.3 39.3 84.0 52.3 81.25 57.9 78.7 63.85 49.15 69.35 61.15 91.6 63.8 96.45 69.65 97.65 64.5 119.85 69.8 139.65 53.15 155.7 33.9 141.25 L32.55 140.35 Q32.65 105.35 42.1 71.0 48.7 73.05 52.95 68.25 64.05 64.9 63.55 52.85 63.35 48.45 61.0 44.85 L59.25 44.0 56.1 45.35 52.25 44.85 Q60.0 20.6 81.75 12.35 87.45 18.6 88.9 26.3 M75.25 73.15 L80.2 73.85 81.3 70.95 Q99.6 59.3 110.45 38.85 119.9 77.65 84.45 92.7 79.2 94.95 73.5 94.55 L73.8 92.45 70.7 90.8 70.15 94.15 Q47.1 78.35 75.2 72.4 L75.25 73.15 M57.35 48.75 L54.55 51.75 Q48.4 76.7 26.85 54.95 23.15 51.3 24.5 46.1 L24.5 45.2 23.9 44.65 23.0 44.4 23.65 40.3 21.7 39.7 Q18.65 23.45 29.65 13.35 30.9 12.2 32.55 12.55 L34.0 22.45 35.7 40.05 37.7 40.35 Q41.85 49.0 51.55 48.85 54.65 48.6 57.35 48.75" fill="#5ab035" fill-rule="evenodd" stroke="none"/>
    <path d="M70.25 102.55 Q66.85 122.9 64.0 143.1 63.3 138.7 63.75 134.3 66.1 111.95 70.25 91.6 71.2 97.0 70.25 102.55 M53.55 125.85 L53.6 124.9 Q56.75 103.05 67.25 83.6 57.8 104.6 53.55 125.85 M50.05 145.0 Q50.35 128.95 53.3 113.3 L51.0 147.35 Q50.05 146.35 50.05 145.0 M45.75 93.45 Q46.85 78.3 55.25 66.6 L36.65 142.2 45.75 93.45 M69.65 68.2 L74.65 55.3 Q78.75 35.25 91.2 19.6 80.55 44.7 69.65 68.2 M64.75 64.35 Q64.1 64.45 63.7 64.85 62.95 65.4 63.0 63.5 70.6 30.55 90.2 3.55 74.15 32.2 64.75 64.35 M38.85 43.4 L40.45 45.45 Q44.85 50.2 55.0 53.85 54.35 54.6 51.85 54.6 44.15 54.6 38.85 43.4 M27.35 23.35 L28.7 35.65 30.25 31.6 Q28.45 60.5 54.5 64.1 46.6 65.8 39.7 62.25 L40.5 63.85 38.5 61.95 Q21.3 42.65 27.6 21.55 L27.35 23.35 M35.75 23.5 Q35.65 30.8 36.65 38.05 L32.0 13.55 33.5 13.1 Q35.85 18.0 35.75 23.5 M57.25 41.6 L60.3 32.95 Q65.45 19.5 77.25 11.35 L74.35 14.9 Q64.0 29.2 57.25 41.6 M104.1 50.7 L111.2 41.35 Q101.45 80.7 62.55 81.5 L58.4 90.4 61.5 81.35 61.45 80.95 Q62.0 80.55 62.75 80.5 L64.25 78.6 63.15 80.5 Q69.15 80.25 74.95 79.0 97.55 74.2 104.1 50.7 M87.95 84.9 Q103.6 71.85 109.2 50.6 L106.9 62.25 Q100.35 95.7 74.0 89.6 L72.3 92.0 72.3 92.4 Q73.0 94.55 71.4 93.6 L71.1 89.35 Q72.25 88.55 73.7 88.8 82.0 89.9 87.95 84.9" fill="#a2bf26" fill-rule="evenodd" stroke="none"/>
    <path d="M105.45 40.2 Q105.8 39.15 106.55 38.65 107.15 38.25 108.15 38.4 L109.05 38.8 109.35 39.05 Q111.05 51.95 102.65 62.75 85.8 84.55 59.1 84.35 L59.25 79.75 57.0 77.85 Q60.25 74.7 64.9 74.0 87.95 70.15 100.0 51.6 L102.45 52.1 Q111.3 48.75 108.7 39.35 L105.45 40.2 M81.0 13.4 L82.0 12.35 80.9 12.6 79.2 10.0 84.65 10.35 Q75.1 29.6 60.0 46.55 L55.25 44.95 55.15 44.4 Q56.85 30.45 66.5 19.35 L67.0 21.55 65.2 26.0 Q66.55 23.95 68.15 22.05 L73.85 20.35 69.5 27.25 Q72.25 23.3 75.25 19.75 77.65 19.75 79.35 17.9 81.0 16.05 81.0 13.4 M58.3 42.85 L57.9 43.75 58.1 43.85 58.3 42.85 M22.5 22.65 Q25.6 22.65 27.8 21.25 29.45 20.2 29.9 18.8 L24.75 56.35 23.1 55.85 22.85 55.0 Q20.8 39.0 22.5 22.65 M41.75 91.05 L48.25 68.6 Q44.4 88.3 42.55 108.05 40.7 127.9 36.9 144.55 L36.25 137.1 34.5 143.1 34.0 139.55 Q30.1 129.85 32.9 111.4 36.3 88.65 44.8 70.1 L41.75 91.05" fill="#ffffff" fill-opacity="0.2509804" fill-rule="evenodd" stroke="none"/>
    <path d="M100.0 51.6 Q100.0 46.9 101.6 43.55 103.2 40.2 105.45 40.2 L108.7 39.35 Q111.3 48.75 102.45 52.1 L100.0 51.6 M81.0 13.4 Q81.0 16.05 79.35 17.9 77.65 19.75 75.25 19.75 L73.85 20.35 68.15 22.05 67.0 21.55 66.5 19.35 Q66.5 15.5 70.25 12.75 73.95 10.0 79.2 10.0 L80.9 12.6 81.0 13.4 M22.5 22.65 L21.0 22.35 21.0 17.1 Q24.1 10.6 29.75 8.65 L30.0 17.85 29.9 18.8 Q29.45 20.2 27.8 21.25 25.6 22.65 22.5 22.65" fill="#ffffff" fill-opacity="0.5019608" fill-rule="evenodd" stroke="none"/>
    <path d="M32.75 40.35 L32.0 14.85 33.5 14.85 41.75 50.8 32.75 40.35 M56.4 47.55 Q57.0 47.95 57.15 48.65 58.65 55.75 54.35 61.55 55.05 63.0 54.55 64.65 54.0 66.55 52.2 67.5 L56.8 68.9 57.5 69.2 57.2 70.25 Q54.75 73.6 50.25 74.3 L41.0 81.65 40.8 76.1 37.5 73.85 39.5 71.6 23.25 57.35 25.15 56.05 Q28.15 54.4 31.0 55.85 L28.5 52.85 33.0 53.6 49.15 61.6 56.4 47.55 M112.2 39.35 Q118.1 68.45 98.8 88.8 84.25 104.2 73.6 93.35 L69.25 94.4 Q73.25 99.6 71.9 105.7 69.7 115.65 71.0 124.85 L72.9 125.65 70.75 137.05 72.75 138.45 70.75 140.8 71.25 143.35 62.7 147.3 62.45 149.5 Q48.45 153.05 36.85 145.9 L36.7 143.85 Q39.7 142.0 43.8 142.45 50.6 143.0 56.2 139.2 70.8 129.55 62.25 106.8 58.0 105.4 56.95 100.8 55.3 93.8 58.25 87.35 L61.6 84.8 Q69.7 89.15 78.65 89.35 91.9 89.65 98.15 78.65 108.6 60.4 112.2 39.35 M87.0 18.6 L91.0 34.6 Q90.8 53.2 76.9 71.3 L76.3 66.7 70.85 68.65 66.75 72.5 66.65 68.75 65.0 66.85 Q80.15 43.05 81.0 15.6 85.5 7.95 87.0 18.6" fill="#000000" fill-opacity="0.2509804" fill-rule="evenodd" stroke="none"/>
    <path d="M53.25 12.95 L58.3 20.2 61.95 27.9 53.25 12.95 M79.8 8.35 L79.25 12.2 79.65 4.15 79.8 8.35 M66.5 19.2 L65.0 18.1 Q59.9 14.05 60.1 8.45 L60.5 10.15 Q61.95 15.95 66.5 19.2 M126.8 65.2 L124.9 65.3 Q119.2 65.55 118.15 61.95 L126.8 65.2 M123.1 78.05 L123.1 78.1 Q115.0 78.75 111.1 73.95 L123.1 78.05 M108.6 89.45 L112.5 92.7 107.95 89.5 108.1 86.45 108.6 89.45 M108.4 30.15 L109.25 37.7 108.6 36.05 Q107.35 30.1 108.4 30.15 M114.6 39.2 L118.9 29.7 117.25 34.15 114.6 39.2 M125.65 36.45 L122.25 38.9 118.3 40.95 125.65 36.45 M26.55 0.0 L27.25 3.55 27.75 7.4 Q26.6 6.9 26.35 4.2 L26.25 0.0 26.55 0.0 M9.25 19.2 L9.4 18.95 9.5 18.85 13.3 19.3 20.75 20.2 18.5 20.35 9.25 19.2 M15.75 6.4 Q22.25 9.75 23.75 12.1 L15.25 6.55 15.75 6.4 M12.0 47.15 L16.1 46.0 21.4 45.2 12.0 47.15 M11.5 28.85 L21.25 29.6 21.7 29.85 Q22.15 30.05 22.25 30.2 L11.25 29.2 11.4 28.95 11.5 28.85 M35.6 92.2 L34.15 91.5 Q25.4 88.15 16.25 88.35 26.8 86.9 35.6 92.2 M26.05 57.45 L23.6 59.7 Q21.9 61.0 19.75 61.7 20.8 61.2 23.35 59.35 L26.05 57.45 M95.75 128.75 Q98.35 126.0 99.1 126.0 96.95 128.5 95.75 128.75 M89.3 125.15 L87.75 122.5 88.45 122.95 Q91.75 125.9 89.3 125.15 M21.25 120.75 L32.6 117.0 27.95 119.05 21.25 120.75 M71.75 127.25 L76.7 125.95 81.6 125.35 71.75 127.25 M72.25 114.75 L77.0 113.7 82.75 113.25 72.25 114.75" fill="#3c7524" fill-rule="evenodd" stroke="none"/>
  </g>
</svg>
