<?xml version="1.0" encoding="UTF-8" standalone="no"?>
<svg xmlns:ffdec="https://www.free-decompiler.com/flash" xmlns:xlink="http://www.w3.org/1999/xlink" ffdec:objectType="shape" height="101.7px" width="77.15px" xmlns="http://www.w3.org/2000/svg">
  <g transform="matrix(1.0, 0.0, 0.0, 1.0, 0.0, 0.0)">
    <path d="M47.6 36.7 L62.95 96.05 62.2 97.25 51.25 94.5 50.9 98.25 47.9 99.0 Q22.3 104.15 0.45 88.75 L0.0 86.0 Q20.75 47.45 22.35 3.65 L24.3 3.35 26.0 4.5 29.0 4.25 29.6 6.95 32.45 3.1 35.2 4.75 39.0 0.0 44.95 23.35 74.95 6.75 77.15 7.9 Q66.5 26.3 47.35 35.65 L45.45 30.05 53.35 23.75 66.15 18.45 55.25 22.2 66.25 14.0 Q53.1 17.7 44.7 28.4 L38.25 10.0 43.75 29.4 38.4 34.25 38.2 30.85 36.4 33.25 37.25 27.0 35.55 29.55 38.25 21.0 Q32.1 35.8 34.75 51.55 L35.45 36.95 45.15 91.35 39.4 53.05 44.2 78.35 Q41.85 59.55 41.9 35.95 41.9 34.45 42.25 33.0 L38.75 41.85 38.4 34.5 44.45 30.8 47.6 36.7 M33.4 17.75 L33.5 9.0 29.95 39.55 31.5 28.75 31.5 31.5 36.25 9.0 33.4 17.75 M26.5 13.55 L26.25 6.0 Q22.35 32.35 26.95 57.6 L28.95 20.4 30.0 10.3 29.15 17.05 27.45 11.6 26.5 13.55 M21.3 73.15 L24.25 46.0 12.6 78.4 20.4 45.75 2.5 89.5 10.5 81.55 8.05 85.55 10.9 83.5 11.4 85.75 20.9 78.45 16.35 77.8 20.8 66.55 21.3 73.15 M28.9 68.8 L29.4 75.2 26.5 77.35 29.45 76.9 29.5 81.85 23.15 83.35 24.35 63.1 21.8 83.7 14.2 88.15 21.65 84.95 21.7 89.15 23.0 84.5 29.4 83.55 29.4 89.6 17.5 94.5 23.0 94.75 29.5 90.5 30.35 88.0 32.55 90.4 33.3 94.1 33.9 91.65 40.25 96.05 34.25 90.4 39.15 71.95 36.4 65.7 35.95 70.05 31.45 73.45 29.9 47.45 30.1 73.7 28.9 68.8 M35.5 76.15 L34.65 79.55 30.8 81.45 31.2 76.55 37.15 73.75 35.95 78.25 35.5 76.15 M34.55 80.35 L32.75 89.05 31.1 87.35 32.0 84.2 30.8 86.95 30.75 81.9 34.55 80.35 M54.8 87.9 L56.7 91.7 48.0 89.75 58.25 94.5 54.8 87.9" fill="#824217" fill-rule="evenodd" stroke="none"/>
    <path d="M47.6 36.7 L44.45 30.8 38.4 34.5 38.75 41.85 42.25 33.0 Q41.9 34.45 41.9 35.95 41.85 59.55 44.2 78.35 L39.4 53.05 45.15 91.35 35.45 36.95 34.75 51.55 Q32.1 35.8 38.25 21.0 L35.55 29.55 37.25 27.0 36.4 33.25 38.2 30.85 38.4 34.25 43.75 29.4 38.25 10.0 44.7 28.4 Q53.1 17.7 66.25 14.0 L55.25 22.2 66.15 18.45 53.35 23.75 45.45 30.05 47.35 35.65 48.0 37.5 47.6 36.7 M54.8 87.9 L58.25 94.5 48.0 89.75 56.7 91.7 54.8 87.9 M34.55 80.35 L30.75 81.9 30.8 86.95 32.0 84.2 31.1 87.35 32.75 89.05 34.55 80.35 M35.5 76.15 L35.95 78.25 37.15 73.75 31.2 76.55 30.8 81.45 34.65 79.55 35.5 76.15 M28.9 68.8 L30.1 73.7 29.9 47.45 31.45 73.45 35.95 70.05 36.4 65.7 39.15 71.95 34.25 90.4 40.25 96.05 33.9 91.65 33.3 94.1 32.55 90.4 30.35 88.0 29.5 90.5 23.0 94.75 17.5 94.5 29.4 89.6 29.4 83.55 23.0 84.5 21.7 89.15 21.65 84.95 14.2 88.15 21.8 83.7 24.35 63.1 23.15 83.35 29.5 81.85 29.45 76.9 26.5 77.35 29.4 75.2 28.9 68.8 M21.3 73.15 L20.8 66.55 16.35 77.8 20.9 78.45 11.4 85.75 10.9 83.5 8.05 85.55 10.5 81.55 2.5 89.5 20.4 45.75 12.6 78.4 24.25 46.0 21.3 73.15 M26.5 13.55 L27.45 11.6 29.15 17.05 30.0 10.3 28.95 20.4 26.95 57.6 Q22.35 32.35 26.25 6.0 L26.5 13.55 M33.4 17.75 L36.25 9.0 31.5 31.5 31.5 28.75 29.95 39.55 33.5 9.0 33.4 17.75" fill="#6f1a11" fill-rule="evenodd" stroke="none"/>
    <path d="M70.3 10.0 L69.2 10.1 74.05 7.3 70.3 10.0 M65.8 12.05 Q64.2 13.8 64.2 16.25 L46.1 24.8 65.8 12.05 M69.4 13.05 Q70.75 11.65 70.75 10.85 L70.75 10.6 75.05 8.75 69.4 13.05 M23.75 98.65 L11.0 95.0 10.85 95.2 3.0 90.0 4.85 88.65 0.9 87.55 20.75 17.65 Q22.6 17.65 23.9 16.5 25.2 15.35 25.2 13.7 L25.75 18.15 24.5 28.3 24.1 30.85 Q17.25 46.85 18.5 64.6 L18.5 65.1 16.85 72.8 12.6 84.5 17.6 79.3 Q20.25 74.5 30.0 47.0 L27.55 58.7 27.0 58.0 16.9 88.95 19.15 89.95 23.25 92.2 27.2 86.3 26.65 91.3 42.95 89.1 43.6 89.05 45.1 89.0 47.2 90.9 24.05 96.4 23.75 98.65 M23.3 8.7 L23.5 7.95 24.55 8.4 24.6 8.8 23.3 8.7 M36.2 3.35 L35.95 2.45 37.65 2.7 Q36.95 2.95 36.2 3.35 M58.35 17.15 Q56.95 17.9 59.0 17.0 L58.35 17.15" fill="#ffffff" fill-opacity="0.2509804" fill-rule="evenodd" stroke="none"/>
    <path d="M27.55 58.7 L25.9 66.45 26.5 71.55 31.4 63.85 34.2 67.6 36.2 51.55 Q28.15 39.75 33.55 26.65 L35.75 40.5 40.25 40.2 43.0 29.25 44.05 31.8 72.05 14.1 73.2 16.05 45.35 35.4 59.65 96.0 52.95 94.6 51.25 95.95 Q38.3 105.9 23.75 98.65 L24.05 96.4 47.2 90.9 45.1 89.0 48.0 87.25 45.35 82.7 43.6 89.05 42.95 89.1 41.0 81.75 39.5 83.5 37.25 58.8 34.7 68.25 36.0 70.0 34.1 70.3 33.7 71.75 33.9 70.35 29.85 71.0 27.3 82.65 19.15 89.95 16.9 88.95 27.0 58.0 27.55 58.7 M23.5 7.95 L20.9 6.1 25.4 3.6 33.05 11.15 31.5 6.85 36.2 3.35 Q36.95 2.95 37.65 2.7 L41.65 2.3 37.5 38.5 37.45 17.4 37.0 20.25 34.75 20.0 33.1 12.3 24.55 8.4 23.5 7.95 M25.75 18.15 L28.55 13.8 30.0 47.0 Q20.25 74.5 17.6 79.3 L12.6 84.5 16.85 72.8 Q18.4 68.4 18.5 65.1 L18.5 64.6 Q17.25 46.85 24.1 30.85 L24.75 30.15 Q26.1 29.0 24.5 28.3 L25.75 18.15" fill="#000000" fill-opacity="0.2509804" fill-rule="evenodd" stroke="none"/>
    <path d="M70.3 10.0 L70.5 10.05 Q70.85 10.2 70.75 10.6 L70.75 10.85 Q70.75 11.65 69.4 13.05 L64.2 16.25 Q64.2 13.8 65.8 12.05 L69.2 10.1 70.3 10.0 M20.75 17.65 L23.3 8.7 24.6 8.8 25.2 13.7 Q25.2 15.35 23.9 16.5 22.6 17.65 20.75 17.65" fill="#ffffff" fill-opacity="0.5019608" fill-rule="evenodd" stroke="none"/>
  </g>
</svg>
