<?xml version="1.0" encoding="UTF-8" standalone="no"?>
<svg xmlns:ffdec="https://www.free-decompiler.com/flash" xmlns:xlink="http://www.w3.org/1999/xlink" ffdec:objectType="shape" height="91.0px" width="87.2px" xmlns="http://www.w3.org/2000/svg">
  <g transform="matrix(1.0, 0.0, 0.0, 1.0, 0.0, 0.0)">
    <path d="M83.9 12.05 L48.65 72.15 Q36.8 77.15 24.15 75.95 13.35 75.7 2.9 74.15 L0.0 65.45 Q26.45 38.05 56.9 14.75 70.65 4.25 87.2 0.0 L83.9 12.05 M61.0 65.35 Q64.1 63.7 68.65 64.15 73.15 64.55 76.25 66.8 79.75 69.3 79.75 73.0 79.75 76.4 75.55 78.3 71.7 80.0 65.5 80.0 60.1 80.0 58.3 76.05 57.5 74.2 57.5 70.75 57.5 67.15 61.0 65.35 M40.25 88.0 L40.25 82.55 52.45 82.55 52.45 88.0 40.25 88.0 M21.75 90.2 L21.1 90.05 Q16.7 87.65 20.0 85.0 L29.6 78.0 Q30.45 86.2 21.75 90.2 M78.7 11.7 L79.0 11.95 79.1 11.8 78.7 11.7" fill="#cecd97" fill-rule="evenodd" stroke="none"/>
    <path d="M0.85 71.05 Q6.6 57.8 19.0 47.65 L50.65 21.45 Q66.85 8.1 84.1 0.35 L4.2 72.95 0.85 71.05 M70.5 65.05 L65.55 73.55 57.4 77.0 Q55.5 60.5 70.5 65.05 M38.55 88.15 Q38.0 87.65 38.0 86.0 38.0 84.5 40.6 83.4 42.7 82.5 44.25 82.5 L44.8 82.75 Q45.0 82.85 45.0 84.35 45.0 85.9 43.85 87.2 42.45 88.8 40.0 88.75 L38.55 88.15 M18.0 88.25 L15.85 87.8 Q19.4 78.85 28.75 79.35 L18.0 88.25" fill="#ffffff" fill-rule="evenodd" stroke="none"/>
    <path d="M15.9 74.35 L31.5 71.35 Q55.65 37.65 85.65 8.85 70.0 34.7 59.9 52.8 49.75 70.9 38.8 74.55 27.8 78.2 15.9 74.35 M68.0 80.0 Q75.75 64.9 80.0 73.0 76.8 81.05 68.0 80.0 M52.0 83.0 Q52.55 92.8 45.0 86.0 L52.0 83.0 M19.2 90.8 L29.0 79.0 Q30.1 89.35 25.45 91.0 L19.2 90.8" fill="#000000" fill-opacity="0.2509804" fill-rule="evenodd" stroke="none"/>
  </g>
</svg>
