<?xml version="1.0" encoding="UTF-8" standalone="no"?>
<svg xmlns:ffdec="https://www.free-decompiler.com/flash" xmlns:xlink="http://www.w3.org/1999/xlink" ffdec:objectType="shape" height="118.3px" width="125.6px" xmlns="http://www.w3.org/2000/svg">
  <g transform="matrix(1.0, 0.0, 0.0, 1.0, 0.0, 0.0)">
    <path d="M125.35 35.1 Q125.75 55.4 122.6 74.5 117.65 104.7 105.4 110.85 106.35 111.25 106.35 111.7 106.35 113.4 104.75 114.2 100.5 116.35 86.6 116.45 L78.05 117.2 70.6 117.95 Q37.6 117.95 30.1 117.75 L26.9 117.65 26.6 117.85 24.6 118.2 Q21.6 118.2 19.0 116.8 17.3 116.45 16.85 115.95 L15.85 115.15 15.45 114.2 Q8.55 107.4 4.35 89.2 1.0 74.75 0.35 60.0 0.35 52.15 4.85 42.45 9.75 31.9 18.4 23.05 40.05 0.75 72.6 0.5 96.0 -2.45 112.4 12.85 118.4 18.45 122.15 25.35 125.35 31.35 125.35 35.1" fill="#c9d39a" fill-rule="evenodd" stroke="none"/>
    <path d="M109.05 79.0 Q101.5 104.2 70.6 104.2 61.7 104.2 50.75 97.25 41.8 91.6 37.6 85.95 34.35 81.8 33.6 75.9 33.35 74.0 33.35 66.1 L32.9 59.35 Q32.8 53.2 34.4 48.5 39.25 34.0 59.6 34.0 79.95 34.0 87.85 50.5 91.85 58.8 91.85 68.5 91.85 74.0 90.35 76.75 87.2 82.5 77.6 82.5 64.1 82.5 59.9 74.25 58.6 71.6 58.35 68.35 L58.35 65.25 Q57.95 62.5 58.4 60.0 59.3 55.0 63.6 55.0 68.0 55.0 67.85 60.15 67.8 62.8 66.85 65.6 66.85 67.6 70.6 70.5 74.55 73.5 77.95 73.5 81.25 73.5 82.6 71.0 83.35 69.65 83.35 68.25 83.35 60.1 80.15 54.0 74.4 43.0 59.95 43.0 46.2 43.0 42.65 54.5 40.9 60.3 41.85 66.1 41.85 75.4 46.15 83.0 53.6 96.2 71.6 96.2 92.35 96.2 99.65 80.5 103.3 72.55 102.85 64.0 104.0 53.2 100.65 43.8 94.05 25.25 71.6 25.25 30.1 25.25 19.9 61.05 16.65 72.3 16.95 86.05 17.05 93.05 17.85 98.45 17.85 100.05 19.5 103.05 21.1 106.0 21.1 107.05 L20.95 108.75 Q20.7 109.2 20.6 109.7 L19.85 110.2 Q19.1 110.7 17.6 110.7 10.55 110.7 9.15 96.15 8.7 91.6 8.85 86.05 L9.1 81.35 Q9.1 55.1 24.95 37.15 38.95 21.4 59.85 17.05 80.1 12.85 94.75 21.55 110.6 31.0 110.6 51.25 112.9 66.2 109.05 79.0" fill="#dcc592" fill-rule="evenodd" stroke="none"/>
    <path d="M98.5 71.6 L98.7 72.4 92.6 83.25 91.8 83.3 59.6 83.25 67.55 81.75 Q69.6 77.75 74.8 78.05 98.6 79.2 92.6 40.25 L98.5 71.6 M98.75 96.15 Q118.7 77.85 117.85 54.45 121.7 32.3 106.6 8.25 127.8 20.3 125.35 50.9 121.2 88.75 114.6 113.2 83.9 119.1 38.6 118.2 L73.1 107.2 62.65 106.95 44.6 92.2 Q78.55 114.6 98.75 96.15 M25.25 56.75 L17.6 75.25 Q23.0 35.4 49.85 26.0 L42.5 33.95 25.25 56.75 M65.2 62.45 L68.1 59.0 72.8 70.05 67.5 71.8 65.2 62.45 M42.6 74.25 Q42.25 67.4 42.75 55.15 43.2 42.9 68.6 44.25 47.25 55.0 42.6 74.25" fill="#000000" fill-opacity="0.2509804" fill-rule="evenodd" stroke="none"/>
    <path d="M98.5 71.6 L102.25 57.0 98.6 40.25 Q110.45 71.3 100.05 83.0 86.8 97.75 66.8 95.15 L69.9 94.65 Q82.35 91.85 91.8 83.3 L92.6 83.25 98.7 72.4 98.5 71.6 M81.1 57.0 L84.1 67.0 77.0 72.85 73.7 68.9 81.1 57.0 M42.5 33.95 L60.8 32.95 Q36.35 35.85 35.4 61.1 34.4 86.25 30.5 78.6 26.55 70.85 27.9 58.3 L25.25 56.75 42.5 33.95 M52.2 4.95 Q57.85 3.25 64.15 2.2 L81.6 0.25 Q17.85 25.15 12.25 49.35 6.65 73.55 9.6 104.05 10.4 119.65 3.35 71.5 L0.0 70.55 Q0.25 49.6 12.45 32.1 25.95 12.8 51.55 5.15 L50.6 5.25 52.2 4.95 M66.25 52.6 L66.35 53.1 Q56.85 56.25 51.6 73.25 L51.1 62.35 Q54.6 50.55 66.25 52.6" fill="#ffffff" fill-opacity="0.5019608" fill-rule="evenodd" stroke="none"/>
  </g>
</svg>
