<?xml version="1.0" encoding="UTF-8" standalone="no"?>
<svg xmlns:ffdec="https://www.free-decompiler.com/flash" xmlns:xlink="http://www.w3.org/1999/xlink" ffdec:objectType="shape" height="280.0px" width="128.8px" xmlns="http://www.w3.org/2000/svg">
  <g transform="matrix(1.0, 0.0, 0.0, 1.0, 0.0, 0.0)">
    <path d="M66.0 0.0 L128.8 15.0 128.8 280.0 0.0 280.0 0.0 15.0 66.0 0.0" fill="#000000" fill-rule="evenodd" stroke="none"/>
    <path d="M126.8 24.75 L112.95 21.65 112.95 13.35 126.8 16.7 126.8 24.75 M81.25 18.6 L95.1 21.7 95.1 29.7 81.25 26.6 81.25 18.6 M110.95 12.85 L110.95 21.2 97.1 18.15 97.1 9.55 110.95 12.85 M95.1 17.7 L81.25 14.6 81.25 5.7 95.1 9.05 95.1 17.7 M110.95 49.5 L110.95 57.8 97.1 55.15 97.1 46.65 110.95 49.5 M95.1 91.8 L81.25 89.6 81.25 80.85 95.1 83.25 95.1 91.8 M66.0 2.0 L79.25 5.2 79.25 14.15 65.4 11.1 65.4 2.15 66.0 2.0 M47.55 30.85 L47.55 39.55 33.7 42.35 33.7 33.85 47.55 30.85 M47.55 6.3 L47.55 14.8 33.7 17.85 33.7 9.5 47.55 6.3 M49.55 30.4 L63.4 27.35 63.4 36.35 49.55 39.15 49.55 30.4 M31.7 18.3 L17.85 21.3 17.85 13.15 31.7 9.95 31.7 18.3 M15.85 13.6 L15.85 21.75 2.0 24.8 2.0 16.8 15.85 13.6 M2.0 40.8 L15.85 37.8 15.85 46.0 2.0 48.8 2.0 40.8 M17.85 37.35 L31.7 34.3 31.7 42.75 17.85 45.6 17.85 37.35 M15.85 58.25 L2.0 60.85 2.0 52.8 15.85 50.0 15.85 58.25 M17.85 57.85 L17.85 49.6 31.7 46.8 31.7 55.25 17.85 57.85 M63.4 53.3 L63.4 61.3 49.55 63.9 49.55 55.9 63.4 53.3 M79.25 118.05 L79.25 126.8 65.4 125.05 65.4 116.05 79.25 118.05 M63.4 142.2 L63.4 150.2 49.55 151.7 49.55 143.7 63.4 142.2 M2.0 108.85 L2.0 100.85 15.85 98.7 15.85 106.9 2.0 108.85 M2.0 132.9 L2.0 124.85 15.85 122.95 15.85 131.15 2.0 132.9 M31.7 129.15 L17.85 130.9 17.85 122.65 31.7 120.7 31.7 129.15 M33.7 165.95 L33.7 157.45 47.55 155.9 47.55 164.65 33.7 165.95 M2.0 168.9 L2.0 160.9 15.85 159.4 15.85 167.6 2.0 168.9 M63.4 163.15 L49.55 164.45 49.55 155.7 63.4 154.2 63.4 163.15 M126.8 132.85 L112.95 131.1 112.95 122.85 126.8 124.85 126.8 132.85 M81.25 118.35 L95.1 120.3 95.1 128.85 81.25 127.05 81.25 118.35 M97.1 120.6 L110.95 122.55 110.95 130.85 97.1 129.1 97.1 120.6 M112.95 159.35 L126.8 160.9 126.8 168.9 112.95 167.55 112.95 159.35 M95.1 215.45 L81.25 214.8 81.25 206.05 95.1 206.95 95.1 215.45 M110.95 268.75 L110.95 277.0 97.1 277.0 97.1 268.5 110.95 268.75 M49.55 230.75 L63.4 230.1 63.4 239.05 49.55 239.5 49.55 230.75 M47.55 239.55 L33.7 240.0 33.7 231.5 47.55 230.85 47.55 239.55 M79.25 239.45 L65.4 239.0 65.4 230.05 79.25 230.7 79.25 239.45 M2.0 220.95 L15.85 220.3 15.85 228.35 2.0 228.95 2.0 220.95 M15.85 244.55 L15.85 252.8 2.0 253.0 2.0 245.0 15.85 244.55 M79.25 264.25 L65.4 264.0 65.4 256.0 79.25 256.25 79.25 264.25" fill="#ffff00" fill-rule="evenodd" stroke="none"/>
    <path d="M63.4 11.35 L49.55 14.4 49.55 5.85 63.4 2.6 63.4 11.35 M63.4 15.35 L63.4 23.35 49.55 26.35 49.55 18.4 63.4 15.35 M63.4 49.3 L49.55 51.9 49.55 43.15 63.4 40.35 63.4 49.3 M47.55 18.85 L47.55 26.8 33.7 29.85 33.7 21.85 47.55 18.85 M15.85 33.75 L2.0 36.8 2.0 28.8 15.85 25.8 15.85 33.75 M17.85 33.3 L17.85 25.35 31.7 22.3 31.7 30.3 17.85 33.3 M31.7 67.25 L17.85 69.85 17.85 61.85 31.7 59.25 31.7 67.25 M33.7 66.9 L33.7 58.9 47.55 56.3 47.55 64.3 33.7 66.9 M2.0 72.85 L2.0 64.85 15.85 62.25 15.85 70.25 2.0 72.85 M17.85 86.1 L31.7 83.75 31.7 92.2 17.85 94.4 17.85 86.1 M2.0 84.85 L2.0 76.8 15.85 74.2 15.85 82.45 2.0 84.85 M15.85 94.7 L2.0 96.85 2.0 88.85 15.85 86.45 15.85 94.7 M17.85 98.4 L31.7 96.2 31.7 104.7 17.85 106.65 17.85 98.4 M33.7 79.4 L33.7 70.85 47.55 68.25 47.55 77.0 33.7 79.4 M31.7 79.75 L17.85 82.1 17.85 73.85 31.7 71.25 31.7 79.75 M33.7 91.9 L33.7 83.4 47.55 81.0 47.55 89.75 33.7 91.9 M49.55 80.65 L63.4 78.3 63.4 87.25 49.55 89.45 49.55 80.65 M49.55 67.9 L63.4 65.3 63.4 74.3 49.55 76.65 49.55 67.9 M63.4 91.25 L63.35 100.25 49.55 102.15 49.55 93.45 63.4 91.25 M33.7 95.9 L47.55 93.75 47.55 102.45 33.7 104.4 33.7 95.9 M47.55 52.3 L33.7 54.9 33.7 46.4 47.55 43.55 47.55 52.3 M63.4 112.2 L49.55 114.15 49.55 106.15 63.4 104.25 63.4 112.2 M47.55 131.2 L47.55 139.9 33.7 141.45 33.7 132.9 47.55 131.2 M47.55 106.45 L47.55 114.45 33.7 116.4 33.7 108.4 47.55 106.45 M49.55 130.95 L64.4 129.1 64.4 138.1 49.55 139.7 49.55 130.95 M49.55 118.2 L63.4 116.25 63.4 125.2 49.55 126.95 49.55 118.2 M47.55 118.5 L47.55 127.2 33.7 128.9 33.7 120.4 47.55 118.5 M31.7 116.7 L17.85 118.6 17.85 110.65 31.7 108.7 31.7 116.7 M2.0 120.85 L2.0 112.85 15.85 110.95 15.85 118.9 2.0 120.85 M17.85 134.9 L31.7 133.15 31.7 141.65 17.85 143.15 17.85 134.9 M15.85 143.35 L2.0 144.9 2.0 136.9 15.85 135.15 15.85 143.35 M17.85 147.2 L31.7 145.65 31.7 153.65 17.85 155.15 17.85 147.2 M31.7 166.15 L17.85 167.4 17.85 159.2 31.7 157.65 31.7 166.15 M2.0 148.9 L15.85 147.4 15.85 155.4 2.0 156.9 2.0 148.9 M2.0 172.9 L15.85 171.65 15.85 179.95 2.0 181.45 2.0 172.9 M17.85 183.7 L31.7 182.6 31.7 190.6 17.85 191.7 17.85 183.7 M15.85 195.85 L15.85 204.1 2.0 204.95 2.0 196.95 15.85 195.85 M15.85 191.85 L2.0 192.95 2.0 184.95 15.85 183.85 15.85 191.85 M17.85 195.7 L31.7 194.6 31.7 203.1 17.85 203.95 17.85 195.7 M31.7 178.6 L17.85 179.7 17.85 171.45 31.7 170.15 31.7 178.6 M33.7 178.75 L33.7 169.95 47.55 168.65 47.45 177.45 33.7 178.75 M33.7 190.45 L33.7 182.45 47.55 181.4 47.55 189.35 33.7 190.45 M49.55 181.25 L63.4 180.15 63.4 188.15 49.55 189.2 49.55 181.25 M49.55 168.45 L63.4 167.15 63.4 176.15 49.55 177.2 49.55 168.45 M63.4 192.15 L63.4 201.1 49.55 202.0 49.55 193.2 63.4 192.15 M33.7 194.45 L47.55 193.35 47.55 202.1 33.7 202.95 33.7 194.45 M47.55 151.95 L33.7 153.45 33.7 145.45 47.55 143.9 47.55 151.95 M63.4 214.1 L49.55 214.75 49.55 206.0 63.4 205.1 63.4 214.1 M47.55 206.1 L47.55 214.85 33.7 215.5 33.7 207.0 47.55 206.1 M49.55 218.75 L63.4 218.1 63.4 226.1 49.55 226.75 49.55 218.75 M47.55 218.85 L47.55 226.85 33.7 227.5 33.7 219.45 47.55 218.85 M63.4 243.05 L63.4 252.05 49.55 252.25 49.55 243.5 63.4 243.05 M31.7 215.6 L17.85 216.2 17.85 207.95 31.7 207.1 31.7 215.6 M2.0 216.95 L2.0 208.95 15.85 208.1 15.85 216.3 2.0 216.95 M17.85 232.25 L31.7 231.6 31.7 240.05 17.85 240.5 17.85 232.25 M2.0 232.95 L15.85 232.35 15.85 240.55 2.0 241.0 2.0 232.95 M17.85 244.5 L31.7 244.05 31.7 252.55 17.85 252.75 17.85 244.5 M31.7 227.6 L17.85 228.25 17.85 220.2 31.7 219.55 31.7 227.6 M31.7 264.55 L17.85 264.75 17.85 256.75 31.7 256.55 31.7 264.55 M33.7 256.5 L47.55 256.3 47.55 264.3 33.7 264.5 33.7 256.5 M2.0 265.0 L2.0 257.0 15.85 256.8 15.85 264.8 2.0 265.0 M2.0 269.0 L15.85 268.8 15.95 277.2 2.0 277.4 2.0 269.0 M33.7 268.5 L47.55 268.3 47.55 277.0 33.7 277.0 33.7 268.5 M31.7 277.0 L17.85 277.0 17.85 268.75 31.7 268.55 31.7 277.0 M63.4 264.05 L49.55 264.25 49.55 256.25 63.4 256.05 63.4 264.05 M47.55 243.55 L47.55 252.3 33.7 252.5 33.7 244.0 47.55 243.55 M49.55 268.25 L63.4 268.05 63.4 277.0 49.55 277.0 49.55 268.25" fill="#333333" fill-rule="evenodd" stroke="none"/>
    <path d="M126.8 48.75 L112.95 45.9 112.95 37.65 126.8 40.75 126.8 48.75 M126.8 36.75 L112.95 33.65 112.95 25.65 126.8 28.75 126.8 36.75 M95.1 46.2 L95.1 54.75 81.25 52.1 81.25 43.35 95.1 46.2 M81.25 39.35 L81.25 30.6 95.1 33.7 95.1 42.25 81.25 39.35 M97.1 34.15 L110.95 37.2 110.95 45.5 97.1 42.65 97.1 34.15 M110.95 25.2 L110.95 33.2 97.1 30.15 97.1 22.15 110.95 25.2 M112.95 49.9 L126.8 52.75 126.8 60.8 112.95 58.15 112.95 49.9 M112.95 62.15 L126.8 64.8 126.8 72.8 112.95 70.15 112.95 62.15 M110.95 69.75 L97.1 67.15 97.1 59.1 110.95 61.75 110.95 69.75 M81.25 68.1 L95.1 70.75 95.1 79.25 81.25 76.85 81.25 68.1 M95.1 58.75 L95.1 66.75 81.25 64.1 81.25 56.1 95.1 58.75 M95.1 95.8 L95.1 104.3 81.25 102.35 81.25 93.6 95.1 95.8 M97.1 83.6 L110.95 86.05 110.95 94.35 97.1 92.1 97.1 83.6 M112.95 86.4 L126.8 88.8 126.8 96.85 112.95 94.65 112.95 86.4 M112.95 74.15 L126.8 76.8 126.8 84.8 112.95 82.4 112.95 74.15 M97.1 96.1 L110.95 98.35 110.95 106.55 97.1 104.6 97.1 96.1 M97.1 71.15 L110.95 73.75 110.95 82.05 97.1 79.6 97.1 71.15 M65.4 15.1 L79.25 18.15 79.25 26.15 65.4 23.1 65.4 15.1 M79.25 38.95 L65.4 36.1 65.4 27.1 79.25 30.15 79.25 38.95 M65.4 40.1 L79.25 42.95 79.25 51.7 65.4 49.1 65.4 40.1 M65.4 61.1 L65.4 53.1 79.25 55.75 79.25 63.7 65.4 61.1 M65.4 65.1 L79.25 67.7 79.25 76.5 65.4 74.1 65.4 65.1 M79.25 93.3 L79.25 102.05 65.4 100.05 65.4 91.1 79.25 93.3 M65.4 87.1 L65.4 78.1 79.25 80.5 79.25 89.3 65.4 87.1 M65.4 112.05 L65.4 104.05 79.25 106.05 79.25 114.05 65.4 112.05 M79.25 139.6 L65.4 138.05 65.4 129.05 79.25 130.85 79.25 139.6 M65.4 142.05 L79.25 143.6 79.25 151.6 65.4 150.05 65.4 142.05 M65.4 167.05 L79.25 168.35 79.25 177.15 65.4 176.05 65.4 167.05 M79.25 164.35 L65.4 163.05 65.4 154.05 79.25 155.6 79.25 164.35 M79.25 193.15 L79.25 201.9 65.4 201.05 65.4 192.05 79.25 193.15 M65.4 188.05 L65.4 180.05 79.25 181.15 79.25 189.15 65.4 188.05 M126.8 120.85 L112.95 118.85 112.95 110.85 126.8 112.85 126.8 120.85 M126.8 108.85 L112.95 106.85 112.95 98.65 126.8 100.85 126.8 108.85 M126.8 144.9 L112.95 143.35 112.95 135.1 126.8 136.85 126.8 144.9 M110.95 118.6 L97.1 116.6 97.1 108.6 110.95 110.6 110.95 118.6 M95.1 116.3 L81.25 114.35 81.25 106.35 95.1 108.35 95.1 116.3 M95.1 145.35 L95.1 153.35 81.25 151.8 81.25 143.8 95.1 145.35 M97.1 133.1 L110.95 134.85 110.95 143.1 97.1 141.55 97.1 133.1 M95.1 141.35 L81.25 139.8 81.25 131.1 95.1 132.85 95.1 141.35 M97.1 145.55 L110.95 147.1 110.95 155.1 97.1 153.55 97.1 145.55 M110.95 167.35 L97.1 166.05 97.1 157.6 110.95 159.1 110.95 167.35 M81.25 168.55 L95.1 169.9 95.1 178.4 81.25 177.3 81.25 168.55 M95.1 165.85 L81.25 164.55 81.25 155.85 95.1 157.35 95.1 165.85 M95.1 194.4 L95.1 202.9 81.25 202.05 81.25 193.3 95.1 194.4 M97.1 182.55 L110.95 183.65 110.95 191.65 97.1 190.55 97.1 182.55 M95.1 190.4 L81.25 189.3 81.25 181.3 95.1 182.4 95.1 190.4 M112.95 183.8 L126.8 184.9 126.8 192.9 112.95 191.8 112.95 183.8 M112.95 171.6 L126.8 172.9 126.8 180.9 112.95 179.8 112.95 171.6 M97.1 194.55 L110.95 195.65 110.95 203.9 97.1 203.05 97.1 194.55 M97.1 170.1 L110.95 171.4 110.95 179.65 97.1 178.55 97.1 170.1 M126.8 156.9 L112.95 155.35 112.95 147.35 126.8 148.9 126.8 156.9 M126.8 196.9 L126.8 204.9 112.95 204.05 112.95 195.8 126.8 196.9 M126.8 216.95 L112.95 216.3 112.95 208.05 126.8 208.95 126.8 216.95 M127.8 229.0 L112.95 228.3 112.95 220.3 127.8 221.0 127.8 229.0 M126.8 240.95 L112.95 240.55 112.95 232.3 126.8 232.95 126.8 240.95 M110.95 216.2 L97.1 215.55 97.1 207.05 110.95 207.95 110.95 216.2 M81.25 218.8 L95.1 219.45 95.1 227.45 81.25 226.8 81.25 218.8 M95.1 244.0 L95.1 252.5 81.25 252.3 81.25 243.55 95.1 244.0 M81.25 239.55 L81.25 230.8 95.1 231.45 95.1 239.95 81.25 239.55 M97.1 231.55 L110.95 232.2 110.95 240.45 97.1 240.05 97.1 231.55 M97.1 244.05 L110.95 244.5 110.95 252.75 97.1 252.55 97.1 244.05 M97.1 219.55 L110.95 220.2 110.95 228.2 97.1 227.55 97.1 219.55 M112.95 256.75 L126.8 257.0 126.8 265.0 112.95 264.75 112.95 256.75 M110.95 264.75 L97.1 264.5 97.1 256.5 110.95 256.75 110.95 264.75 M81.25 264.25 L81.25 256.25 95.1 256.5 95.1 264.5 81.25 264.25 M81.25 268.25 L95.1 268.5 95.1 277.0 81.25 277.0 81.25 268.25 M112.95 268.75 L126.8 269.0 126.8 277.0 112.95 277.0 112.95 268.75 M126.8 245.0 L126.8 253.0 112.95 252.8 112.95 244.55 126.8 245.0 M79.25 218.7 L79.25 226.7 65.4 226.05 65.4 218.05 79.25 218.7 M65.4 214.05 L65.4 205.05 79.25 205.95 79.25 214.7 65.4 214.05 M65.4 243.05 L79.25 243.45 79.25 252.25 65.4 252.0 65.4 243.05 M65.4 268.0 L79.25 268.25 79.25 277.0 65.4 277.0 65.4 268.0" fill="#111111" fill-rule="evenodd" stroke="none"/>
  </g>
</svg>
