<?xml version="1.0" encoding="UTF-8" standalone="no"?>
<svg xmlns:ffdec="https://www.free-decompiler.com/flash" xmlns:xlink="http://www.w3.org/1999/xlink" ffdec:objectType="shape" height="319.8px" width="114.0px" xmlns="http://www.w3.org/2000/svg">
  <g transform="matrix(1.0, 0.0, 0.0, 1.0, 0.0, 0.0)">
    <path d="M47.7 19.15 Q48.55 10.9 50.45 4.6 L50.45 4.45 Q50.45 3.2 54.8 2.0 58.75 0.95 64.35 0.4 70.0 -0.1 73.85 0.3 77.85 0.75 78.2 2.0 L79.95 2.5 83.0 16.7 Q83.95 24.3 83.25 31.95 L80.8 31.7 80.55 30.55 78.1 28.2 Q74.6 30.3 67.1 21.25 L48.25 23.1 49.05 20.05 47.7 19.15 M71.75 22.6 L79.7 18.15 80.65 20.8 83.0 16.7 78.25 9.3 74.4 15.45 75.65 5.9 74.2 5.6 72.75 7.25 72.5 6.05 Q68.95 10.1 67.0 11.3 L66.0 13.15 65.85 11.75 60.65 10.15 60.15 11.1 60.3 9.95 Q57.7 8.45 54.5 5.75 L54.15 5.8 53.25 8.05 54.15 13.75 57.1 15.8 57.1 17.85 60.65 18.25 62.8 14.15 63.2 19.15 67.2 21.15 69.15 15.7 70.15 21.5 67.35 21.25 Q69.65 22.3 71.75 22.6" fill="#565e55" fill-rule="evenodd" stroke="none"/>
    <path d="M70.15 21.5 L69.15 15.7 67.2 21.15 63.2 19.15 62.8 14.15 60.65 18.25 57.1 17.85 57.1 15.8 54.15 13.75 53.25 8.05 54.15 5.8 54.5 5.75 Q57.7 8.45 60.3 9.95 L60.15 11.1 60.65 10.15 65.85 11.75 66.0 13.15 67.0 11.3 Q68.95 10.1 72.5 6.05 L72.75 7.25 74.2 5.6 75.65 5.9 74.4 15.45 78.25 9.3 83.0 16.7 80.65 20.8 79.7 18.15 71.75 22.6 70.15 21.5 M67.1 21.25 Q67.25 34.5 63.25 32.15 L67.1 21.25" fill="#dec19f" fill-rule="evenodd" stroke="none"/>
    <path d="M83.25 31.95 L84.0 49.5 Q65.05 42.15 44.3 45.9 L44.4 45.7 44.3 45.85 47.7 19.15 49.05 20.05 48.25 23.1 67.1 21.25 Q74.6 30.3 78.1 28.2 L80.55 30.55 80.8 31.7 83.25 31.95 M70.15 21.5 L71.75 22.6 Q69.65 22.3 67.35 21.25 L70.15 21.5 M44.55 45.45 L46.25 41.9 46.1 41.7 44.55 45.45 M67.1 21.25 L63.25 32.15 Q67.25 34.5 67.1 21.25" fill="#e0c8b8" fill-rule="evenodd" stroke="none"/>
    <path d="M84.0 49.5 L84.45 68.6 42.5 66.1 44.3 45.9 44.3 45.85 44.4 45.7 44.3 45.9 Q65.05 42.15 84.0 49.5" fill="#6f5b52" fill-rule="evenodd" stroke="none"/>
    <path d="M84.45 68.6 L84.7 131.35 84.15 130.75 78.8 132.05 78.0 130.4 Q67.55 139.3 55.95 135.75 55.0 135.5 54.2 136.2 L53.75 137.95 Q69.25 145.15 84.75 131.65 L86.4 151.55 Q73.9 154.2 61.4 152.45 50.15 150.4 39.3 144.55 35.85 142.75 32.3 142.15 L37.15 105.75 42.5 66.1 84.45 68.6 M58.0 83.4 Q48.35 80.15 40.85 84.4 L40.85 87.0 Q56.9 86.45 64.85 93.85 73.55 92.35 76.55 85.05 67.55 86.6 58.0 83.4 M37.15 105.75 Q52.35 110.35 68.3 108.9 L68.45 109.1 74.2 109.75 Q68.85 116.65 62.1 114.85 49.5 112.2 37.15 105.8 49.5 112.2 62.1 114.85 68.85 116.65 74.2 109.75 L68.45 109.1 68.3 108.9 Q52.35 110.35 37.15 105.75 M45.8 124.65 Q66.35 139.25 82.25 116.75 L80.6 116.95 Q71.85 120.0 63.3 124.4 L45.95 122.3 45.8 124.65" fill="#725035" fill-rule="evenodd" stroke="none"/>
    <path d="M86.4 151.55 Q86.9 162.15 87.75 172.75 88.65 183.6 90.5 194.1 99.45 244.35 109.9 293.9 L112.15 303.85 Q53.85 334.55 0.0 303.85 L3.65 293.3 Q15.75 258.25 21.4 219.5 27.05 180.95 32.3 142.15 35.85 142.75 39.3 144.55 50.15 150.4 61.4 152.45 73.9 154.2 86.4 151.55" fill="#dfa688" fill-rule="evenodd" stroke="none"/>
    <path d="M84.7 131.35 L84.8 131.55 84.75 131.65 Q69.25 145.15 53.75 137.95 L54.2 136.2 Q55.0 135.5 55.95 135.75 67.55 139.3 78.0 130.4 L78.8 132.05 84.15 130.75 84.7 131.35 M58.0 83.4 Q67.55 86.6 76.55 85.05 73.55 92.35 64.85 93.85 56.9 86.45 40.85 87.0 L40.85 84.4 Q48.35 80.15 58.0 83.4 M45.8 124.65 L45.95 122.3 63.3 124.4 Q71.85 120.0 80.6 116.95 L82.25 116.75 Q66.35 139.25 45.8 124.65" fill="#bb8875" fill-rule="evenodd" stroke="none"/>
    <path d="M84.7 55.2 Q84.9 74.55 84.45 94.9 83.95 115.25 85.85 140.2 87.7 165.15 92.2 192.1 L96.15 213.95 111.15 291.2 Q112.4 297.65 114.0 303.85 86.4 322.35 54.5 319.4 58.35 290.85 63.35 280.05 72.3 260.75 73.7 237.2 74.25 226.85 71.4 217.2 67.1 202.55 67.35 185.9 67.65 160.55 69.8 135.55 71.8 112.5 65.15 95.7 59.1 80.4 59.75 59.8 60.6 34.1 62.85 8.55 L62.9 0.85 Q69.8 -1.45 79.8 2.4 82.3 8.05 83.4 21.95 84.5 35.85 84.7 55.2" fill="#000000" fill-opacity="0.5019608" fill-rule="evenodd" stroke="none"/>
    <path d="M50.1 36.2 Q53.75 19.25 59.45 39.8 58.55 40.3 57.65 40.75 L54.95 36.55 51.5 38.85 50.1 36.2" fill="#6f5b52" fill-opacity="0.5019608" fill-rule="evenodd" stroke="none"/>
    <path d="M33.7 257.65 Q34.45 267.2 31.7 276.65 L27.45 290.75 Q25.65 291.35 25.25 289.6 21.15 270.2 33.6 257.25 L33.7 257.65 M62.45 115.75 L61.75 118.1 40.15 116.2 Q50.85 103.15 62.45 115.75 M52.75 129.0 Q59.05 125.25 63.55 133.35 L52.05 132.4 52.75 129.0 M71.35 133.3 L69.85 132.7 Q77.15 119.45 84.0 124.0 82.35 134.35 71.35 133.3 M76.35 141.8 Q67.85 148.05 58.7 146.65 67.2 140.25 76.4 139.05 L76.35 141.8 M47.85 93.5 L61.1 95.75 60.95 99.15 Q54.2 99.5 48.05 96.0 L47.85 93.5 M68.3 48.0 Q68.05 33.6 73.25 41.5 L69.75 41.9 69.85 45.55 72.8 47.8 68.5 48.75 68.3 48.0 M59.05 44.8 L64.7 39.85 65.9 40.9 Q66.4 47.85 62.95 53.1 L62.3 54.15 Q59.35 51.25 59.05 44.8 M81.8 88.95 L81.85 91.1 81.05 92.05 Q72.7 99.5 63.55 100.25 70.55 85.75 81.8 88.95" fill="#000000" fill-opacity="0.5019608" fill-rule="evenodd" stroke="none"/>
  </g>
</svg>
