<?xml version="1.0" encoding="UTF-8" standalone="no"?>
<svg xmlns:ffdec="https://www.free-decompiler.com/flash" xmlns:xlink="http://www.w3.org/1999/xlink" ffdec:objectType="shape" height="268.3px" width="294.1px" xmlns="http://www.w3.org/2000/svg">
  <g transform="matrix(1.0, 0.0, 0.0, 1.0, 0.2, 0.0)">
    <path d="M94.35 69.1 Q106.3 97.3 130.55 115.4 148.7 129.05 172.35 117.7 177.6 123.25 180.15 131.0 181.15 134.0 180.0 129.0 188.25 132.2 188.1 127.85 187.4 106.2 186.2 84.5 185.1 64.3 199.1 49.05 210.1 36.95 227.15 34.15 256.5 29.55 255.95 53.8 255.5 74.3 256.7 95.5 239.9 81.1 217.2 84.5 202.1 86.5 187.85 91.25 195.4 97.7 206.9 93.4 230.5 84.45 248.1 98.85 251.2 101.4 255.0 101.2 257.25 115.5 260.45 129.75 267.65 162.2 277.0 194.25 283.9 217.8 293.9 240.3 287.1 243.95 280.0 246.3 260.8 252.9 240.5 255.6 219.6 258.35 198.95 255.8 179.8 253.35 161.15 258.25 141.1 263.35 121.05 266.05 99.45 268.55 77.85 265.25 57.35 262.15 37.55 255.4 18.8 249.1 0.8 240.55 L0.0 241.05 0.3 240.55 64.8 129.8 Q66.55 120.6 69.5 111.8 77.15 89.2 70.05 71.0 79.2 63.05 93.4 70.75 L94.35 69.1 M70.05 70.9 Q56.05 52.6 60.55 30.7 64.0 14.15 73.8 0.45 98.05 26.75 93.05 65.35 75.05 59.35 71.9 63.3 68.75 67.25 70.05 70.9 M0.3 240.55 L0.8 240.55 0.3 240.55" fill="#6c3224" fill-rule="evenodd" stroke="none"/>
    <path d="M256.7 95.5 L255.0 101.2 Q251.2 101.4 248.1 98.85 230.5 84.45 206.9 93.4 195.4 97.7 187.85 91.25 202.1 86.5 217.2 84.5 239.9 81.1 256.7 95.5 M70.05 71.0 L70.0 71.0 70.05 70.9 Q68.75 67.25 71.9 63.3 75.05 59.35 93.05 65.35 L94.6 68.1 94.35 69.1 93.4 70.75 Q79.2 63.05 70.05 71.0" fill="#936953" fill-rule="evenodd" stroke="none"/>
    <path d="M0.8 240.55 L0.3 240.55" fill="none" stroke="#0099ff" stroke-linecap="round" stroke-linejoin="round" stroke-width="1.0"/>
    <path d="M188.1 84.75 L208.05 85.05 189.9 87.75 192.65 86.25 188.1 84.75 M209.45 93.15 L210.6 91.6 Q231.45 86.6 251.85 98.3 L254.9 101.8 223.7 92.25 Q217.05 94.9 209.45 93.15 M223.35 54.15 Q236.3 53.45 234.8 57.0 L242.35 60.4 218.55 56.1 216.1 67.5 217.3 67.75 215.8 68.25 210.15 77.75 208.1 68.65 197.75 68.25 209.15 67.9 211.5 56.4 200.9 58.25 213.4 54.7 218.4 48.85 218.65 54.25 223.35 54.15 M201.8 89.15 L189.35 91.7 Q201.4 84.05 217.45 85.4 L218.1 86.5 197.05 89.0 201.8 89.15 M222.9 129.75 Q240.85 130.65 256.55 139.45 241.4 137.9 226.9 131.45 L222.9 129.75 M210.4 141.15 Q214.2 139.9 222.25 140.6 243.1 142.6 263.15 146.3 261.0 147.5 258.4 147.8 234.2 149.85 211.9 142.9 L210.4 141.15 M219.85 117.5 Q240.45 119.75 256.2 129.5 240.6 128.75 226.35 120.3 206.85 133.0 191.3 119.75 204.0 125.05 216.8 121.85 L216.8 118.3 219.85 117.5 M212.9 106.75 Q231.8 98.35 250.15 113.25 233.8 102.1 218.1 107.4 L212.9 106.75 M226.9 112.75 L248.4 119.0 Q238.75 118.95 227.25 112.95 L226.9 112.75 M202.2 105.6 Q198.1 110.1 188.85 105.6 L202.2 105.6 M212.15 178.65 Q201.2 177.1 190.45 174.4 L264.65 177.05 251.2 179.15 250.0 180.35 Q231.0 181.35 212.15 178.65 M189.7 181.8 Q192.75 188.25 190.95 195.3 L192.4 196.75 189.2 195.95 191.0 193.15 189.55 183.3 189.7 181.8 M181.8 182.8 L182.15 183.4 Q187.3 191.3 186.85 199.25 185.2 190.35 181.8 182.8 M180.6 165.0 L181.65 163.95 179.8 167.45 Q179.5 166.05 180.6 165.0 M183.1 153.05 L185.15 157.1 184.05 159.25 183.1 153.05 M238.65 102.25 Q248.65 104.45 254.75 109.1 L238.65 102.25 M65.75 31.5 L77.1 31.35 61.25 34.35 67.6 32.5 61.1 31.85 Q71.25 26.5 82.25 28.1 L65.75 31.5 M73.6 16.6 L67.35 19.35 69.4 17.5 67.25 17.1 Q68.1 15.7 69.55 15.15 74.4 13.4 79.75 14.1 L67.85 16.5 73.6 16.6 M87.5 91.85 L85.15 91.7 104.0 90.6 76.75 94.6 78.75 95.1 75.25 94.6 87.5 91.85 M91.95 69.45 L93.75 70.5 74.0 68.7 74.3 66.0 Q83.8 64.55 91.95 69.45 M85.65 61.6 L84.3 61.4 Q87.35 62.3 91.0 64.5 L83.85 63.25 76.05 64.25 74.0 63.5 82.05 62.85 Q74.4 60.65 70.8 66.65 73.6 61.7 78.1 60.9 L66.3 61.8 77.05 58.3 Q84.8 57.2 92.1 59.55 L92.95 60.35 93.0 60.55 Q90.6 62.45 85.65 61.6 M74.75 43.0 L63.0 44.75 65.0 42.15 Q64.75 40.45 65.9 40.75 L74.75 43.0 M100.25 135.5 L108.25 136.05 77.25 137.05 82.15 136.25 100.7 135.5 100.25 135.5 M89.5 102.75 L106.25 103.6 72.35 107.1 89.5 102.75 M73.25 51.6 L79.05 47.75 81.9 51.6 73.25 51.6 M81.1 125.0 L82.05 123.35 76.85 121.75 87.15 121.95 85.1 124.75 81.1 125.0 M190.3 220.8 L187.75 219.3 Q207.1 225.3 226.65 222.05 206.7 227.65 186.0 221.05 L190.3 220.8 M242.75 202.75 L208.05 200.55 231.7 199.55 213.3 198.3 212.6 198.55 Q209.75 199.1 208.05 196.7 L256.8 202.35 242.75 202.75 M242.05 240.55 Q225.0 242.6 212.15 237.45 220.45 240.5 229.7 238.55 L208.05 234.45 Q208.65 233.55 209.7 233.8 237.2 237.05 264.55 233.05 L237.55 238.95 250.8 237.4 242.05 240.55 M253.05 235.2 L247.65 235.95 214.7 235.2 Q233.95 241.2 253.05 235.2 M66.75 254.95 L68.9 254.65 88.15 256.6 Q77.15 258.45 66.75 254.95 M33.25 247.2 L30.3 246.5 Q18.0 243.35 9.2 235.7 L33.25 247.2 M57.9 203.85 L48.45 201.8 38.5 200.3 Q50.35 192.85 57.9 203.85 M105.6 204.55 L108.7 203.65 Q121.3 199.15 135.25 199.8 125.7 207.45 113.2 205.05 L105.6 204.55 M118.25 238.8 L118.25 240.3 Q107.55 241.1 96.9 240.1 80.45 238.05 64.55 233.6 L66.5 233.8 17.05 223.6 Q25.3 222.6 33.1 224.85 53.45 230.6 74.25 233.95 96.25 237.7 118.25 238.8 M112.25 239.3 Q109.25 238.0 103.5 238.3 97.4 238.6 101.0 239.3 L112.25 239.3 M129.0 178.55 Q109.35 181.5 89.25 181.9 68.95 182.35 49.5 176.3 71.25 175.6 92.9 175.75 111.1 175.85 129.0 178.55" fill="#000000" fill-opacity="0.5019608" fill-rule="evenodd" stroke="none"/>
    <path d="M255.8 65.0 Q257.3 77.1 256.0 99.05 254.65 120.95 278.9 193.15 285.9 214.05 288.1 226.3 290.2 227.1 291.5 232.65 L293.45 241.3 290.4 241.85 287.55 242.3 Q249.75 259.8 243.05 231.6 L229.0 173.5 Q221.65 143.6 227.6 118.2 214.35 106.25 223.55 92.75 225.5 89.8 228.65 87.75 L225.9 82.85 Q230.65 62.5 229.75 41.45 229.5 35.25 244.7 36.0 259.85 36.7 255.8 65.0 M288.9 231.15 Q288.55 228.35 288.85 231.05 L288.9 231.15 M174.75 121.8 Q173.9 121.1 175.0 122.1 L174.75 121.8 M171.5 121.5 Q171.5 119.7 170.0 119.2 L173.3 117.6 Q180.4 123.45 179.6 132.9 176.9 164.2 173.35 195.45 171.5 211.55 180.95 224.75 191.3 239.25 190.05 256.85 144.65 258.65 99.05 267.55 86.85 270.0 75.85 264.3 79.2 226.85 92.7 190.9 L105.75 155.6 Q103.15 132.4 95.9 110.3 90.25 93.2 79.6 78.5 L85.55 62.7 75.6 53.1 Q83.0 31.75 76.9 10.0 L73.75 0.0 81.45 8.9 Q93.55 26.1 92.95 47.0 92.3 68.85 104.15 87.3 115.9 105.65 134.65 116.6 146.65 123.55 158.8 122.2 158.5 122.6 158.5 123.0 L161.0 125.5 Q164.0 128.0 166.5 128.0 169.9 128.0 171.0 125.25 171.5 123.95 171.5 121.5" fill="#000000" fill-opacity="0.5019608" fill-rule="evenodd" stroke="none"/>
  </g>
</svg>
