<?xml version="1.0" encoding="UTF-8" standalone="no"?>
<svg xmlns:ffdec="https://www.free-decompiler.com/flash" xmlns:xlink="http://www.w3.org/1999/xlink" ffdec:objectType="shape" height="172.75px" width="228.0px" xmlns="http://www.w3.org/2000/svg">
  <g transform="matrix(1.0, 0.0, 0.0, 1.0, 0.0, -0.05)">
    <path d="M123.6 118.45 L126.25 118.85 Q116.9 132.6 116.05 149.0 115.45 161.0 113.05 172.8 L107.65 171.4 105.5 167.55 103.9 169.35 108.45 131.1 99.6 116.5 108.3 117.55 114.35 127.3 123.6 118.45" fill="#664422" fill-rule="evenodd" stroke="none"/>
    <path d="M190.3 14.4 Q195.7 18.25 197.95 24.65 220.85 38.9 227.1 65.1 230.0 77.25 221.3 86.0 224.9 102.5 213.05 115.35 210.65 117.9 207.2 118.9 L208.05 124.8 Q176.15 139.3 142.05 129.2 135.45 132.55 129.3 128.65 124.6 125.65 121.5 120.8 L108.4 116.65 Q94.2 128.8 75.6 127.35 52.95 126.1 36.45 110.4 32.5 106.6 29.4 102.05 L20.4 95.2 Q12.6 91.3 7.3 84.8 L11.35 80.6 Q9.2 78.9 7.65 76.65 -2.45 72.75 0.8 62.15 L0.55 61.15 4.1 57.25 Q4.1 54.4 6.15 52.4 8.1 50.3 10.9 50.3 16.3 39.6 28.15 41.35 L28.6 41.45 Q32.0 16.3 51.15 15.25 L52.45 17.85 Q63.05 4.6 71.7 19.45 75.15 11.3 84.4 11.1 L82.6 7.0 Q87.65 -0.4 96.5 0.1 L98.85 5.15 101.75 6.55 99.7 6.6 103.6 23.0 104.6 23.55 Q112.5 27.55 111.6 36.5 L111.55 36.65 111.75 36.5 Q122.4 23.4 133.8 31.05 L134.25 31.05 134.0 31.2 136.9 33.45 138.0 33.8 138.05 34.75 Q140.15 37.55 140.1 41.35 L144.05 36.5 Q139.55 23.45 145.75 11.15 L154.55 14.35 155.1 14.2 Q172.9 2.15 190.3 14.4 M123.7 33.05 L124.0 33.2 Q124.7 30.65 123.7 33.05 M117.4 110.6 L118.5 110.7 Q118.55 108.2 117.4 110.6" fill="#8ccb2c" fill-rule="evenodd" stroke="none"/>
    <path d="M166.3 14.2 Q154.8 10.45 149.2 21.05 L146.9 21.35 144.9 29.85 Q141.15 23.05 145.55 16.2 L148.6 16.35 Q150.35 15.05 152.3 14.05 166.45 6.3 172.65 14.85 L166.3 14.2 M175.6 29.05 L180.8 23.75 203.05 36.2 Q190.85 42.55 181.4 29.0 175.85 37.75 166.45 38.05 L163.35 33.25 162.65 36.2 Q157.75 52.2 140.35 47.9 L138.55 49.9 136.35 48.35 Q137.55 43.45 143.15 43.55 160.1 43.95 164.0 25.7 L168.6 33.95 175.6 29.05 M179.7 52.85 L185.25 66.25 176.0 79.35 183.2 88.85 Q178.4 103.1 166.6 100.95 L178.35 88.9 172.4 77.9 181.6 66.75 176.5 55.5 179.7 52.85 M194.6 67.05 L202.75 56.0 199.95 45.85 207.2 57.4 200.0 67.0 205.4 75.15 198.55 110.55 Q193.0 107.6 195.65 100.4 200.15 88.4 200.2 75.15 L194.6 67.05 M162.0 126.7 L151.15 124.15 Q142.4 122.1 143.6 112.6 L138.9 116.95 145.0 108.95 148.3 120.1 Q169.3 120.95 184.05 132.65 182.7 133.45 181.25 133.6 169.7 135.45 162.0 126.7 M103.05 66.25 L91.6 74.45 101.25 63.25 111.45 69.25 121.0 64.75 131.2 77.15 120.85 68.5 109.3 73.05 103.05 66.25 M83.0 58.25 Q89.0 45.9 103.75 44.8 121.4 44.2 125.55 51.0 L113.15 50.55 Q105.5 48.85 99.0 51.7 89.2 56.1 81.8 63.15 L78.65 58.0 73.15 67.05 69.15 67.2 Q68.75 66.35 68.95 65.55 71.25 54.85 81.1 54.85 L83.0 58.25 M98.25 82.0 L112.35 86.6 Q124.5 90.55 137.0 89.05 148.85 87.35 156.35 91.1 147.2 93.85 136.6 94.0 126.0 94.2 115.85 91.5 104.65 88.5 98.25 82.0 M151.85 64.5 L146.1 74.25 131.75 82.05 143.6 69.25 137.95 72.2 151.05 60.9 151.85 64.5 M58.55 34.55 L60.25 30.05 64.75 31.0 68.75 25.95 73.3 28.1 79.75 20.85 88.25 22.6 67.25 36.4 63.0 35.65 59.6 39.45 54.45 36.2 51.3 41.25 41.85 35.3 38.55 53.65 Q36.65 49.75 36.85 45.45 37.0 41.45 38.15 37.55 39.35 33.7 40.8 29.9 L49.75 36.35 52.0 29.75 58.55 34.55 M27.55 73.3 L34.6 77.55 32.15 86.35 41.7 93.25 40.75 100.7 Q41.4 101.25 42.1 101.4 58.75 100.35 64.75 109.2 L36.15 102.9 37.0 93.45 27.9 87.4 31.0 78.25 23.8 74.4 32.05 65.35 27.55 73.3 M58.0 83.25 Q69.6 84.2 75.0 91.5 L54.9 84.5 53.3 68.95 58.0 83.25 M90.95 108.25 L80.75 115.3 91.0 103.25 94.5 105.8 109.9 98.1 110.6 105.65 93.9 111.5 90.95 108.25" fill="#9ce828" fill-rule="evenodd" stroke="none"/>
    <path d="M162.0 67.4 L162.1 66.8 162.3 66.7 163.15 66.55 163.3 68.5 163.05 70.25 162.55 70.25 162.25 69.15 Q162.0 68.35 162.0 67.4 M180.75 68.45 L185.7 68.95 182.15 70.45 180.75 68.45 M215.85 59.35 L213.65 59.8 212.45 59.45 212.1 59.15 212.05 57.85 Q212.1 55.75 213.95 55.25 215.85 54.8 217.75 56.8 217.9 55.9 217.9 57.65 217.95 58.6 215.85 59.35 M185.15 88.25 L185.15 87.0 187.0 87.0 187.0 88.25 185.15 88.25 M225.0 88.95 L222.0 85.5 228.0 85.5 225.0 88.95 M210.35 104.0 L210.2 102.95 Q211.05 100.7 213.6 99.8 215.15 99.35 215.8 100.7 L213.4 104.6 210.35 104.0 M215.8 115.35 L212.55 120.9 209.9 119.15 Q211.3 116.3 215.8 115.35 M46.95 102.9 L48.0 102.75 Q48.85 103.05 49.6 104.1 L49.05 105.55 48.0 105.9 46.75 105.6 Q46.4 105.4 46.4 104.25 46.4 103.1 46.95 102.9 M75.2 116.75 Q75.2 115.6 75.75 115.4 L76.8 115.25 Q77.7 115.55 78.4 116.65 L77.9 118.05 76.8 118.4 75.65 118.1 Q75.2 117.9 75.2 116.75 M75.55 105.0 L75.7 103.85 76.45 103.75 77.65 103.95 78.0 105.05 77.5 105.7 76.75 106.15 75.8 106.1 Q75.55 106.05 75.55 105.0 M57.05 86.7 L56.55 86.45 55.65 85.85 Q56.25 85.0 56.8 84.6 L57.9 84.25 58.4 85.3 Q58.1 86.3 57.05 86.7 M71.15 67.15 L71.15 68.5 69.3 68.5 69.3 67.15 71.15 67.15 M62.15 59.85 L61.05 60.2 59.95 59.95 Q59.5 59.7 59.5 58.55 59.5 57.45 60.0 57.25 L61.1 57.1 Q62.0 57.4 62.7 58.4 L62.15 59.85 M20.25 76.2 Q19.95 76.15 19.95 75.05 L20.1 73.95 20.9 73.9 22.05 74.1 22.45 75.15 21.95 75.8 21.2 76.2 Q20.8 76.05 20.25 76.2 M130.35 78.3 L136.0 77.05 133.2 82.2 130.35 78.3 M94.95 90.85 Q99.9 89.45 99.5 94.95 96.6 97.65 93.75 94.1 L94.45 90.95 94.95 90.85 M175.1 101.95 Q178.35 100.1 180.15 103.2 L179.55 104.95 177.8 107.05 Q175.1 105.4 175.1 101.95 M136.55 123.15 L136.9 120.9 140.8 122.75 136.55 123.15" fill="#dddd4d" fill-rule="evenodd" stroke="none"/>
    <path d="M190.05 19.95 L185.45 26.2 172.0 23.6 168.0 26.85 163.5 24.55 173.4 37.25 165.1 42.75 162.85 42.05 161.8 43.95 145.55 41.05 Q142.8 35.2 141.8 28.75 140.05 17.85 149.9 12.85 159.65 8.05 170.4 6.75 182.25 5.15 189.7 14.3 L190.05 19.95 M162.25 42.25 L162.25 32.85 158.85 32.85 158.85 42.25 162.25 42.25 M91.65 4.9 L88.2 4.9 92.4 20.8 82.6 26.45 82.05 31.45 81.6 31.5 Q67.6 26.3 57.15 31.8 L61.55 37.35 51.6 40.35 51.0 45.15 Q48.8 46.6 50.0 49.45 43.05 55.65 35.75 48.35 L29.7 54.7 24.65 54.85 36.1 70.8 30.35 73.5 51.6 77.45 34.75 86.3 35.45 90.8 52.1 88.8 49.1 93.35 50.55 97.7 42.5 105.85 42.1 114.05 8.2 84.7 12.5 83.1 6.7 76.3 Q-2.65 65.6 2.9 56.4 8.45 47.15 30.8 38.8 L31.55 36.6 Q33.7 18.4 49.95 15.55 L53.25 17.3 Q57.0 11.25 64.65 12.95 L69.6 18.7 74.55 18.4 77.45 13.75 85.1 9.55 87.3 1.85 91.9 2.55 94.35 4.0 Q93.75 4.55 93.0 4.75 L91.65 4.9 M86.7 43.5 Q89.55 32.7 101.0 35.5 L86.8 43.5 86.7 43.5 M110.9 34.95 L127.5 32.0 113.0 41.5 113.05 38.95 109.6 36.2 110.9 34.95 M112.45 53.1 L121.4 57.05 107.1 56.0 112.45 53.1 M96.05 62.55 Q101.7 59.0 106.95 56.1 L101.0 63.0 96.05 62.55 M86.3 76.0 L88.65 68.05 104.8 90.6 102.35 90.0 Q92.6 87.45 89.25 78.0 L86.3 76.0 M86.1 96.55 L84.5 100.35 78.6 90.05 83.0 82.25 86.1 96.55 M71.35 38.5 L82.25 34.6 43.05 68.05 Q48.85 44.15 77.5 35.0 L71.35 38.5 M58.65 60.9 L63.7 60.9 Q60.0 63.8 58.65 66.3 L58.65 60.9 M61.9 96.4 L65.1 104.75 61.7 106.65 60.6 91.55 64.85 88.6 61.9 96.4 M63.7 75.3 L58.65 75.3 58.65 71.5 Q60.0 73.55 63.7 75.3 M109.4 149.45 L107.6 167.5 109.5 130.65 109.65 146.05 109.4 149.45" fill="#ffffff" fill-opacity="0.2509804" fill-rule="evenodd" stroke="none"/>
    <path d="M189.7 14.3 Q195.95 23.05 205.55 28.1 215.4 33.2 219.65 43.3 223.35 52.05 224.25 61.5 225.3 72.35 224.8 83.2 224.35 93.9 220.35 103.85 216.6 113.25 209.5 120.5 201.75 128.4 191.15 131.8 181.05 135.1 170.45 134.9 161.3 134.7 152.3 132.55 142.65 130.25 133.25 127.0 125.5 124.3 117.65 121.9 L109.85 119.65 115.35 128.15 116.65 125.65 121.05 125.4 110.8 172.8 114.45 130.3 105.45 121.05 Q89.85 128.35 72.85 126.75 59.85 126.1 53.35 120.35 60.55 121.3 69.05 118.5 75.15 116.5 78.2 110.9 L84.6 113.25 94.05 110.1 94.8 105.15 100.45 105.15 102.6 102.45 124.5 109.35 142.75 100.8 138.35 106.95 148.35 112.2 161.4 106.0 155.15 110.8 159.9 120.5 172.0 109.4 175.0 116.75 178.45 116.2 185.0 109.25 187.3 108.8 200.5 88.5 191.5 81.6 186.9 86.15 184.9 81.95 195.7 47.3 193.4 77.75 202.15 64.5 198.7 56.85 202.6 48.5 194.6 37.65 196.9 33.65 195.7 24.8 190.05 19.95 189.7 14.3 M162.25 42.25 L158.85 42.25 158.85 32.85 162.25 32.85 162.25 42.25 M189.55 33.7 L188.65 36.25 184.75 30.75 189.55 33.7 M179.3 55.6 Q177.2 50.7 178.05 47.6 L182.0 56.35 Q180.25 57.85 179.3 55.6 M166.75 62.6 Q167.7 61.0 169.1 61.0 170.5 61.0 171.5 62.6 172.45 64.2 172.45 66.5 172.45 68.8 171.5 70.4 170.5 72.0 169.1 72.0 167.7 72.0 166.75 70.4 165.75 68.8 165.75 66.5 165.75 64.2 166.75 62.6 M203.35 94.05 Q198.15 93.4 195.5 100.7 203.1 103.9 208.5 98.6 L203.35 94.05 M191.4 110.8 L191.15 107.25 188.65 111.75 191.4 110.8 M172.9 101.6 L183.15 92.35 174.0 105.25 172.9 101.6 M129.9 30.25 Q142.05 33.6 138.0 45.35 L129.9 30.25 M93.0 4.75 Q100.05 6.25 99.0 23.0 92.6 6.25 91.65 4.9 L93.0 4.75 M109.6 36.2 Q107.3 35.6 104.4 28.6 109.25 29.45 110.9 34.95 L109.6 36.2 M144.9 56.35 Q154.2 60.35 154.8 70.0 L148.0 76.05 151.95 68.8 144.9 56.35 M132.1 83.7 L132.85 66.3 134.45 87.85 126.0 92.05 132.1 83.7 M109.65 146.05 L110.45 141.2 113.05 141.3 109.4 149.45 109.65 146.05" fill="#000000" fill-opacity="0.2509804" fill-rule="evenodd" stroke="none"/>
  </g>
</svg>
