<?xml version="1.0" encoding="UTF-8" standalone="no"?>
<svg xmlns:ffdec="https://www.free-decompiler.com/flash" xmlns:xlink="http://www.w3.org/1999/xlink" ffdec:objectType="shape" height="236.6px" width="194.0px" xmlns="http://www.w3.org/2000/svg">
  <g transform="matrix(1.0, 0.0, 0.0, 1.0, 0.0, 0.0)">
    <path d="M90.5 159.9 L93.65 159.5 98.6 166.6 102.75 160.3 Q105.25 160.85 108.1 161.85 111.0 182.65 111.6 203.4 112.1 220.45 107.05 236.2 L91.95 236.6 Q91.4 228.2 93.15 219.7 99.25 189.7 90.5 159.9" fill="#5f5347" fill-rule="evenodd" stroke="none"/>
    <path d="M90.5 159.9 Q63.15 166.35 35.85 159.8 16.0 155.15 0.25 142.35 -0.15 125.45 5.95 109.75 13.85 89.4 25.65 70.85 36.85 53.15 50.7 37.55 64.0 22.65 78.25 8.7 95.5 -8.2 112.35 7.75 128.05 22.75 144.6 36.65 160.65 50.15 170.45 68.8 180.4 87.65 189.75 106.7 199.0 125.55 186.55 142.15 173.1 159.95 151.2 164.25 129.35 168.7 108.1 161.85 105.25 160.85 102.75 160.3 L93.65 159.5 90.5 159.9" fill="#4e6d2c" fill-rule="evenodd" stroke="none"/>
    <path d="M88.35 112.6 Q109.95 113.75 130.45 105.6 149.1 98.2 168.35 96.4 L178.0 82.65 194.0 118.65 193.0 128.65 187.35 139.95 179.0 150.65 Q156.7 167.6 129.75 165.35 116.7 164.1 107.35 162.15 117.4 195.55 108.65 228.7 L106.9 233.8 105.35 215.55 Q98.45 192.7 90.7 168.95 89.05 163.85 91.7 159.3 L98.8 167.95 101.35 158.6 84.25 156.45 Q86.25 157.45 88.25 158.4 66.95 166.7 45.9 158.2 L43.2 157.05 45.75 153.2 68.7 154.55 72.1 154.75 78.75 155.15 75.8 152.05 133.95 150.3 142.25 150.15 145.85 149.8 159.4 149.7 171.55 137.1 123.3 145.2 53.0 140.9 56.45 139.25 100.5 141.9 82.0 139.65 90.65 139.65 113.75 141.9 102.0 139.55 120.3 139.15 Q137.25 141.25 153.65 136.25 L157.6 134.9 138.9 134.7 173.05 124.35 Q145.5 128.6 117.7 122.55 L146.8 120.55 157.9 120.65 182.1 105.3 152.85 116.25 155.7 110.4 124.0 120.15 90.9 118.4 132.8 116.85 90.6 114.2 77.8 113.05 70.85 112.15 39.4 102.45 65.55 107.95 88.35 112.6 M18.25 123.3 L30.1 124.15 56.4 126.25 74.7 127.15 80.95 127.4 144.5 129.05 97.45 130.65 91.25 130.65 83.45 130.6 67.8 130.35 61.1 130.15 55.9 130.1 Q35.35 130.7 18.25 123.3 M51.5 87.25 L51.1 86.85 Q48.0 83.8 51.5 85.0 L90.6 90.8 138.6 86.95 98.0 84.25 108.75 84.65 113.4 84.55 142.35 84.25 131.7 83.4 153.0 78.65 120.0 82.0 Q93.85 82.1 72.0 77.0 L125.0 77.0 124.75 77.3 141.75 72.0 144.65 70.3 131.9 72.15 134.8 66.85 106.25 70.75 102.65 68.25 100.25 68.2 Q101.4 69.3 103.1 70.45 L101.8 70.3 84.9 67.5 83.95 67.15 97.25 66.8 79.3 63.0 97.7 64.4 Q100.35 68.45 99.55 65.6 L98.95 64.5 Q124.05 63.35 144.45 52.05 L131.6 65.4 138.15 65.1 148.0 51.6 148.6 51.8 152.45 49.45 155.3 53.55 152.5 52.9 155.0 53.6 144.5 64.9 Q147.9 64.8 144.05 65.5 L144.0 65.6 Q149.95 63.85 162.0 64.6 L160.85 65.1 161.25 64.95 162.05 64.75 163.4 66.95 159.6 65.85 159.25 65.75 Q149.85 69.55 149.6 70.1 L142.25 75.15 156.1 77.7 175.0 77.65 162.6 82.9 178.0 82.65 Q165.55 85.8 164.7 86.5 151.75 96.9 135.35 99.75 L109.45 98.65 Q98.95 97.25 88.7 93.85 L86.35 93.75 74.55 92.75 Q65.25 91.8 59.35 90.3 53.95 89.0 51.5 87.25 M80.0 41.3 Q66.15 38.25 61.15 35.6 L59.25 34.35 67.5 36.1 71.0 36.95 89.25 41.3 92.8 41.95 Q113.0 45.9 126.6 41.9 L136.7 39.1 140.0 39.55 Q137.65 42.2 131.55 43.55 110.1 47.95 88.35 42.9 L80.0 41.3 M123.05 39.9 L118.25 36.6 138.25 30.75 139.1 31.3 Q133.95 34.85 128.0 37.85 L135.9 39.0 123.05 39.9 M188.3 128.55 L188.3 124.25 179.85 133.4 188.3 128.55 M168.05 133.3 L176.9 132.35 180.1 128.15 168.05 133.3 M187.85 122.2 L183.65 109.2 174.85 119.1 184.55 118.75 182.05 123.85 187.85 122.2 M123.0 26.25 L117.95 26.0 102.7 23.95 Q115.65 15.85 123.0 26.25 M105.9 27.45 L120.05 28.35 117.4 29.3 Q101.9 33.35 105.9 27.45 M136.25 45.35 L145.2 40.65 144.25 38.6 139.75 36.4 145.0 37.2 145.2 40.65 148.75 42.85 136.25 45.35 M104.15 9.35 Q105.15 7.1 107.5 6.35 110.0 5.55 111.75 5.35 L115.3 9.9 115.95 10.7 110.4 11.15 Q108.45 10.3 104.15 9.35 M110.7 13.1 L115.15 17.45 105.0 13.05 110.7 13.1 M91.0 83.35 L90.65 83.45 90.25 83.35 93.7 82.45 91.0 83.35 M89.9 83.7 L89.0 83.65 89.65 83.5 89.9 83.7 M83.2 94.6 L88.1 97.15 78.5 95.15 83.2 94.6 M88.75 93.95 L89.25 94.45 87.7 94.05 88.75 93.95 M101.55 96.4 L105.25 97.05 Q125.85 100.5 144.8 92.15 L101.55 96.4 M128.25 46.95 L110.0 50.6 108.0 46.6 Q118.5 48.25 128.25 46.95 M132.5 59.85 Q129.5 60.6 127.5 61.6 131.0 62.15 132.5 59.85 M94.5 137.1 L90.8 135.4 108.6 136.95 94.5 137.1 M133.75 116.55 L157.45 104.15 117.6 114.85 133.75 116.55 M89.45 97.4 L105.5 99.65 102.55 99.9 89.45 97.4 M85.95 121.05 L85.85 120.85 89.2 121.05 85.95 121.05" fill="#000000" fill-opacity="0.2509804" fill-rule="evenodd" stroke="none"/>
    <path d="M88.35 112.6 L65.55 107.95 95.05 106.65 89.1 104.0 Q90.0 104.6 89.35 104.95 L89.1 105.05 88.9 105.2 88.25 105.4 30.25 95.5 30.25 99.65 39.4 102.45 70.85 112.15 61.5 112.0 85.25 114.4 77.8 113.05 90.6 114.2 Q92.05 118.4 83.5 117.4 L81.15 117.15 90.9 118.4 124.0 120.15 146.8 120.55 117.7 122.55 65.75 124.35 80.95 127.4 74.7 127.15 48.25 122.65 56.4 126.25 30.1 124.15 26.45 121.85 38.85 122.95 9.35 110.15 32.75 115.0 15.05 108.35 7.9 109.5 7.3 109.25 14.75 107.25 10.0 99.65 20.2 107.75 44.95 107.55 Q38.2 106.45 32.4 102.55 29.3 100.45 27.6 97.3 L26.8 95.65 Q26.4 94.75 14.0 92.65 L44.8 92.45 19.0 81.65 51.5 87.25 Q53.95 89.0 59.35 90.3 L56.15 89.85 Q70.7 100.0 88.1 97.15 L83.2 94.6 74.55 92.75 86.35 93.75 87.7 94.05 89.25 94.45 88.75 93.95 88.7 93.85 Q98.95 97.25 109.45 98.65 L135.35 99.75 151.25 97.4 Q137.9 101.25 123.3 102.4 104.65 104.0 86.2 102.0 L96.6 107.25 88.35 112.6 M120.3 139.15 L102.0 139.55 90.65 139.65 82.0 139.65 100.5 141.9 56.45 139.25 33.15 139.0 53.0 140.9 123.3 145.2 Q137.35 146.2 145.85 149.8 L142.25 150.15 133.95 150.3 Q79.3 150.5 30.9 140.45 L72.1 154.75 68.7 154.55 Q49.8 152.7 33.2 143.0 L28.5 140.25 20.75 140.9 32.5 147.4 Q30.95 150.8 27.35 151.9 20.95 154.1 14.5 152.6 L12.3 151.95 28.75 147.4 0.0 134.65 28.35 134.9 2.0 124.65 25.65 130.85 Q22.25 128.45 19.7 125.8 L20.5 125.5 20.85 125.2 11.7 122.8 18.25 123.3 Q35.35 130.7 55.9 130.1 L61.1 130.15 58.0 133.15 Q74.35 139.55 94.5 137.1 L108.6 136.95 150.35 136.8 120.3 139.15 M51.5 85.0 L57.55 84.5 41.25 78.4 66.7 81.15 Q48.0 71.9 32.2 70.15 23.3 65.95 48.0 71.3 35.6 64.25 38.75 51.6 48.05 65.45 65.5 65.15 L70.25 56.65 45.85 58.65 Q52.7 54.9 64.45 55.05 L42.75 44.6 43.4 44.65 Q65.55 52.15 85.25 43.35 68.9 45.95 55.9 39.4 L80.0 41.3 88.35 42.9 Q81.1 51.1 70.0 51.1 L102.65 52.25 102.5 53.85 Q104.0 57.4 119.8 57.4 119.3 58.7 117.35 58.4 L76.2 62.15 79.3 63.0 97.25 66.8 83.95 67.15 Q78.6 67.15 74.8 65.0 71.0 62.85 71.0 59.85 L68.25 63.7 71.25 67.9 44.5 64.1 48.15 67.6 Q66.05 78.4 84.9 67.5 L101.8 70.3 90.65 74.1 112.4 75.65 103.1 70.45 Q101.4 69.3 100.25 68.2 L102.65 68.25 106.25 70.75 114.8 75.4 131.9 72.15 144.65 70.3 141.75 72.0 124.75 77.3 125.0 77.0 72.0 77.0 Q93.85 82.1 120.0 82.0 L120.05 82.45 131.7 83.4 142.35 84.25 113.4 84.55 95.95 83.3 Q92.15 83.2 91.0 83.35 L93.7 82.45 89.55 81.85 Q89.9 82.1 89.85 82.3 89.8 82.85 89.35 83.1 L89.0 83.0 89.2 83.15 88.9 83.25 78.1 83.6 Q90.1 85.7 90.6 90.8 L51.5 85.0 M61.15 35.6 L56.5 34.9 Q72.75 27.8 93.0 31.35 L66.5 20.6 89.3 20.15 84.75 14.85 101.25 18.35 93.45 21.2 107.5 20.85 82.9 24.9 100.5 30.85 67.5 36.1 59.25 34.35 61.15 35.6 M71.0 36.95 L123.05 39.9 135.9 39.0 137.5 38.85 136.7 39.1 126.6 41.9 89.25 41.3 71.0 36.95 M97.7 64.4 L98.95 64.5 99.55 65.6 Q100.35 68.45 97.7 64.4 M162.0 64.6 L161.25 64.95 160.85 65.1 162.0 64.6 M159.6 65.85 Q155.45 68.0 157.35 67.9 155.8 68.55 149.6 70.1 149.85 69.55 159.25 65.75 L159.6 65.85 M123.0 26.25 L132.5 27.85 120.05 28.35 105.9 27.45 92.75 24.5 117.95 26.0 123.0 26.25 M104.15 9.35 Q108.45 10.3 110.4 11.15 L111.5 11.85 111.7 12.5 Q111.6 12.95 110.7 13.1 L105.0 13.05 103.1 13.0 Q92.15 12.95 85.5 6.6 L104.15 9.35 M109.0 2.0 L105.2 2.55 92.5 6.85 98.5 3.35 95.4 2.55 109.0 2.0 M97.75 70.7 L89.1 68.3 79.95 72.0 97.75 70.7 M82.05 54.6 L92.45 53.85 74.15 54.65 85.85 55.75 82.05 54.6 M71.0 59.85 L76.35 57.9 73.0 57.85 71.0 59.85 M32.15 134.8 Q31.9 135.6 33.5 134.65 L32.15 134.8 M34.25 130.4 L37.5 135.65 65.15 137.1 34.25 130.4 M20.5 107.95 L34.75 113.2 57.25 111.4 20.5 107.95 M102.55 99.9 L105.5 99.65 89.45 97.4 85.75 99.45 102.55 99.9 M85.85 120.85 L77.45 120.65 85.95 121.05 89.2 121.05 85.85 120.85 M91.25 130.65 L97.45 130.65 112.4 134.0 67.8 130.35 83.45 130.6 97.25 131.9 91.25 130.65 M70.25 98.1 Q72.75 99.35 76.7 99.4 L70.25 98.1 M95.15 235.15 L94.05 236.6 Q87.15 233.2 98.75 211.45 103.15 224.15 95.15 235.15" fill="#ffffff" fill-opacity="0.2509804" fill-rule="evenodd" stroke="none"/>
  </g>
</svg>
