<?xml version="1.0" encoding="UTF-8" standalone="no"?>
<svg xmlns:ffdec="https://www.free-decompiler.com/flash" xmlns:xlink="http://www.w3.org/1999/xlink" ffdec:objectType="shape" height="92.5px" width="92.75px" xmlns="http://www.w3.org/2000/svg">
  <g transform="matrix(1.0, 0.0, 0.0, 1.0, 46.35, 46.25)">
    <path d="M12.4 -40.25 Q33.15 -40.25 33.15 -25.5 29.9 -21.25 29.65 -20.25 34.0 -17.65 40.35 -7.25 46.4 2.55 46.4 5.6 46.4 12.75 38.4 13.75 45.4 24.4 45.4 27.6 45.4 46.25 22.9 46.25 17.45 46.25 8.1 43.75 -1.25 41.25 -9.6 41.25 -25.4 41.25 -31.85 34.55 -35.35 30.9 -35.35 26.6 -35.35 22.7 -32.85 19.5 -38.8 19.35 -42.95 13.7 -46.35 9.1 -46.35 5.25 -46.35 0.4 -43.45 -5.7 -39.75 -13.5 -34.1 -14.75 -35.35 -18.5 -35.35 -21.5 -35.35 -22.65 -32.3 -26.65 -29.15 -30.8 -24.85 -35.0 -13.45 -46.25 -6.6 -46.25 -0.7 -46.25 3.05 -43.4 5.65 -41.4 6.15 -39.25 L12.4 -40.25 M-23.85 -33.5 L-23.5 -33.6 -23.6 -34.0 -23.85 -33.5" fill="#ffffff" fill-rule="evenodd" stroke="none"/>
  </g>
</svg>
