<?xml version="1.0" encoding="UTF-8" standalone="no"?>
<svg xmlns:ffdec="https://www.free-decompiler.com/flash" xmlns:xlink="http://www.w3.org/1999/xlink" ffdec:objectType="shape" height="248.9px" width="187.8px" xmlns="http://www.w3.org/2000/svg">
  <g transform="matrix(1.0, 0.0, 0.0, 1.0, 0.0, 0.0)">
    <path d="M86.65 185.75 L107.85 185.75 110.75 245.0 Q105.15 248.7 98.55 248.75 92.6 249.4 87.5 246.85 84.7 245.4 82.75 243.0 L86.65 185.75" fill="#9d6037" fill-rule="evenodd" stroke="none"/>
    <path d="M93.25 195.0 L92.4 218.75 97.25 202.75 95.0 247.75 93.75 248.25 91.4 229.25 88.75 248.0 86.2 247.65 Q86.05 221.05 91.75 195.0 L93.25 195.0 M104.0 198.5 Q105.95 221.5 103.0 244.25 L102.6 242.55 Q99.1 220.6 103.0 198.5 L104.0 198.5" fill="#a35332" fill-rule="evenodd" stroke="none"/>
    <path d="M101.3 190.4 L102.3 189.95 Q113.75 197.65 111.75 211.0 109.05 229.4 109.05 248.25 L93.4 248.6 92.2 246.85 90.6 248.3 87.0 247.1 94.95 238.6 Q75.65 216.4 96.75 197.0 L98.5 196.75 Q97.9 192.55 101.3 190.4" fill="#000000" fill-opacity="0.2509804" fill-rule="evenodd" stroke="none"/>
    <path d="M63.15 200.65 L63.05 200.3 Q62.0 201.1 63.15 200.65 M99.35 0.0 L99.6 0.25 Q112.55 19.45 130.25 30.7 119.75 35.0 110.7 32.1 L128.4 54.95 Q128.55 55.8 127.45 55.75 119.3 56.3 114.25 49.5 117.35 71.65 134.35 82.7 132.85 84.15 130.8 83.7 124.25 82.7 118.5 78.75 135.15 104.65 159.2 121.5 157.8 122.9 155.8 122.75 148.55 121.6 142.0 118.25 L174.3 136.0 Q155.05 143.2 134.5 140.75 154.5 151.6 166.65 165.65 L147.05 162.25 Q173.3 172.15 186.1 192.55 L144.05 186.0 158.5 217.4 Q153.95 219.3 149.4 216.1 127.6 200.8 102.35 196.15 L86.2 212.9 82.85 211.4 78.4 202.1 76.75 201.75 Q49.15 203.95 25.6 214.2 24.95 213.3 21.95 212.7 16.45 211.9 15.75 206.85 L21.5 200.5 Q6.35 203.1 0.0 193.45 L38.25 161.25 Q25.75 169.05 11.55 168.55 L39.5 146.45 32.6 145.1 53.75 120.25 54.0 119.6 Q41.5 128.8 34.5 120.35 L74.1 86.1 Q72.6 86.5 71.35 87.2 59.25 94.2 49.55 91.25 L82.0 59.0 Q66.5 66.15 54.35 59.3 L78.9 36.6 72.1 36.2 Q71.75 34.3 73.1 32.8 88.0 16.35 99.35 0.0" fill="#5ec92e" fill-rule="evenodd" stroke="none"/>
    <path d="M163.65 137.0 Q145.0 134.55 134.75 119.25 L165.3 136.65 Q164.7 137.25 163.65 137.0 M181.15 190.4 L181.8 192.05 Q160.35 177.9 141.75 160.25 L187.8 177.0 Q177.5 179.75 167.3 176.7 L165.05 175.9 Q175.3 181.2 181.15 190.4 M97.1 10.2 Q91.95 23.8 80.8 33.7 86.65 20.1 96.65 8.65 L97.1 10.2 M97.0 21.5 Q98.45 45.7 94.55 69.85 L89.2 102.3 98.0 76.5 Q90.7 107.65 84.1 139.2 82.05 149.2 78.75 158.5 75.35 168.0 71.25 177.0 L70.25 177.25 Q93.95 101.3 96.0 21.5 L97.0 21.5 M97.25 21.75 L101.25 17.0 109.45 62.95 Q110.25 62.45 110.95 62.55 123.4 65.95 131.15 76.85 120.5 76.45 113.5 67.7 113.45 80.7 115.9 93.9 121.55 124.55 123.3 155.4 120.4 153.85 119.75 147.9 L111.8 77.1 113.0 97.25 110.3 91.3 118.3 209.4 Q114.8 202.8 113.85 192.05 111.0 159.2 109.6 126.35 108.85 108.55 106.95 91.0 103.2 55.85 99.75 20.25 L97.25 21.75 M83.85 40.3 Q75.95 55.25 64.25 58.0 71.15 45.3 84.25 39.25 L83.85 40.3 M111.6 19.05 L121.0 33.5 99.25 9.0 111.6 19.05 M110.0 64.45 L112.1 70.85 113.0 67.25 110.0 64.45 M108.95 63.95 L110.7 78.2 111.45 74.15 Q110.3 68.55 108.95 63.95 M88.0 57.5 Q74.35 97.65 66.8 140.45 L89.0 86.5 Q75.65 127.25 59.25 165.25 L59.05 161.0 48.25 185.75 73.0 151.75 Q61.65 184.25 35.55 206.6 L35.4 206.4 35.35 206.15 35.3 205.85 Q34.5 206.8 33.7 206.25 L51.2 165.6 Q34.8 191.25 11.0 209.75 L13.1 207.35 Q25.55 193.45 38.25 179.75 60.1 156.05 67.7 124.0 73.9 97.9 78.55 71.65 70.75 81.3 60.75 84.0 L79.2 67.25 81.05 54.05 Q83.2 36.2 93.75 22.0 L83.9 62.1 88.0 57.5 M98.75 76.5 L100.55 77.0 Q103.0 97.1 102.45 117.4 102.1 131.0 101.1 144.45 L100.9 145.0 99.25 81.0 97.45 91.75 98.75 76.5 M123.9 92.6 L125.25 92.25 140.0 112.5 129.0 103.25 124.1 94.35 Q126.9 122.6 142.15 145.4 139.0 146.85 136.75 142.65 119.55 110.5 122.0 75.75 L123.9 92.6 M122.85 50.3 Q113.9 45.05 111.5 34.5 120.4 39.65 123.15 50.2 L122.85 50.3 M48.9 131.25 L32.6 144.05 Q43.55 127.4 60.85 118.75 L48.9 131.25 M42.65 119.65 Q52.9 103.55 69.25 92.25 57.55 108.45 42.6 120.05 42.55 119.8 42.65 119.65 M16.25 163.5 Q32.65 150.3 52.0 141.5 35.8 154.75 17.0 164.25 L16.25 163.5 M5.25 191.25 Q27.85 171.9 52.5 158.25 45.75 163.75 39.75 169.95 24.2 186.0 5.25 191.25 M129.25 147.25 Q142.9 182.4 150.05 219.25 142.75 204.7 138.4 189.15 132.6 168.5 127.75 147.5 L129.25 147.25 M98.0 111.5 Q101.3 123.7 98.2 136.15 93.05 156.95 86.75 177.4 82.4 191.7 76.25 205.25 L74.5 205.6 Q74.4 200.15 76.65 194.75 84.45 176.1 90.35 156.85 97.1 134.65 97.0 111.5 L98.0 111.5 M161.5 162.05 Q147.65 160.7 139.75 146.5 151.5 151.8 161.55 160.75 L161.5 162.05 M86.75 202.6 Q91.5 174.45 105.0 149.75 101.1 178.35 88.25 203.75 L87.0 204.1 86.75 202.6" fill="#ffffff" fill-rule="evenodd" stroke="none"/>
    <path d="M50.0 194.3 L35.25 208.75 28.6 206.35 24.1 207.65 Q47.15 178.55 67.3 146.85 70.4 142.0 72.55 136.3 L68.25 142.85 Q79.95 123.35 81.2 97.05 L67.6 138.35 15.1 169.6 Q23.3 153.5 40.4 145.05 L37.6 142.65 Q45.4 129.3 60.6 121.15 L63.15 109.1 Q53.1 114.45 42.85 119.4 L42.25 119.15 29.5 123.2 29.7 119.55 Q45.95 103.05 68.35 96.9 L73.6 79.35 50.7 91.45 47.35 90.4 Q57.4 73.0 77.65 65.45 81.05 54.75 90.6 49.3 L87.55 112.1 87.2 113.7 86.65 115.5 Q80.45 130.95 82.55 143.85 L81.7 147.9 69.45 164.35 69.5 166.9 67.3 169.9 63.8 170.9 54.3 186.8 50.0 194.3 M90.35 37.35 L93.0 37.75 Q82.8 55.25 59.1 59.85 L57.05 58.15 Q78.25 44.7 98.0 22.5 L90.35 37.35 M96.45 8.3 L96.65 14.05 Q96.3 30.05 75.7 34.35 80.9 15.35 96.45 8.3 M14.8 191.15 L5.3 187.5 Q45.6 174.9 64.55 148.5 L45.0 178.25 47.55 170.55 14.8 191.15 M55.8 139.45 L57.7 131.4 41.65 144.5 Q48.1 141.45 55.8 139.45 M112.5 154.85 L115.3 135.7 111.6 137.2 109.75 105.35 Q115.4 127.75 122.25 149.95 129.1 172.2 142.75 190.6 153.85 205.55 149.75 219.2 136.25 210.15 128.5 194.4 119.05 175.15 112.5 154.85" fill="#ffffff" fill-opacity="0.2509804" fill-rule="evenodd" stroke="none"/>
    <path d="M181.1 187.55 L177.1 190.7 Q163.65 191.5 151.15 186.35 139.8 181.7 133.65 170.9 L138.9 169.5 103.0 22.75 106.45 25.35 103.5 16.15 105.75 10.0 124.4 34.65 110.5 29.0 118.75 53.75 112.0 43.1 Q112.15 46.95 113.2 50.7 119.0 71.55 134.75 87.0 L118.55 73.3 124.6 96.0 Q146.1 105.85 156.3 127.0 L132.8 107.95 Q135.1 111.9 137.9 115.6 149.9 131.3 169.15 136.55 L142.9 140.1 143.3 144.25 146.0 145.5 Q158.5 152.15 164.6 164.9 L149.35 158.8 151.8 162.45 Q163.3 178.6 181.1 187.55 M50.0 194.3 L54.3 186.8 67.3 169.9 69.5 166.9 Q75.9 158.35 80.45 154.1 L81.7 147.9 82.55 143.85 86.8 125.65 84.4 183.55 64.5 198.1 62.9 196.8 57.75 202.25 56.75 197.25 48.5 201.9 50.0 194.3 M87.2 113.7 L87.55 112.1 87.3 117.25 87.2 113.7 M112.5 154.85 L102.6 195.9 100.35 194.95 94.25 202.1 Q93.9 189.8 99.55 178.85 107.15 164.15 107.85 147.6 108.85 124.55 109.3 101.6 L109.75 105.35 111.6 137.2 115.3 135.7 112.5 154.85 M143.0 156.25 L146.0 167.55 149.95 168.6 143.0 156.25 M91.85 189.9 L92.75 189.95 Q92.4 191.45 91.85 189.9" fill="#000000" fill-opacity="0.2509804" fill-rule="evenodd" stroke="none"/>
  </g>
</svg>
