<?xml version="1.0" encoding="UTF-8" standalone="no"?>
<svg xmlns:ffdec="https://www.free-decompiler.com/flash" xmlns:xlink="http://www.w3.org/1999/xlink" ffdec:objectType="shape" height="94.55px" width="126.65px" xmlns="http://www.w3.org/2000/svg">
  <g transform="matrix(1.0, 0.0, 0.0, 1.0, 35.95, 110.05)">
    <path d="M75.55 -73.95 Q73.8 -72.6 73.8 -70.65 73.8 -68.7 75.55 -67.35 77.35 -66.0 79.85 -66.0 82.35 -66.0 84.1 -67.35 85.9 -68.7 85.9 -70.65 85.9 -72.6 84.1 -73.95 82.35 -75.3 79.85 -75.3 77.35 -75.3 75.55 -73.95 M63.2 -71.35 L69.2 -70.95 Q69.95 -76.7 75.1 -79.2 78.25 -80.7 82.0 -80.7 85.75 -80.7 88.0 -77.85 90.55 -74.6 90.55 -68.3 91.0 -66.2 90.0 -64.3 88.05 -60.5 80.75 -60.5 75.8 -60.5 74.9 -62.05 73.65 -64.3 72.05 -64.85 64.85 -67.45 50.25 -63.7 35.45 -59.05 32.15 -58.3 18.15 -55.0 8.8 -40.45 6.05 -36.25 3.1 -29.95 L-0.15 -23.5 Q-2.5 -23.8 -2.5 -27.0 -2.5 -30.05 0.75 -36.55 4.85 -44.65 11.3 -51.55 30.1 -71.5 59.45 -71.5 L63.2 -71.35" fill="#000000" fill-rule="evenodd" stroke="none"/>
    <path d="M27.9 -107.9 Q29.95 -110.05 34.7 -110.05 38.55 -110.05 41.35 -107.65 44.5 -105.0 45.5 -99.95 46.2 -96.55 45.65 -95.35 43.9 -91.5 34.7 -91.5 L30.95 -92.3 27.15 -93.15 -7.05 -66.65 Q-12.25 -62.4 -17.95 -53.55 -23.55 -44.9 -24.6 -39.75 -25.85 -33.55 -27.35 -27.8 -30.3 -16.45 -32.0 -15.5 -33.8 -17.2 -35.45 -20.1 -37.95 -32.5 -27.5 -51.05 -15.55 -72.4 6.95 -87.45 20.65 -92.75 24.95 -102.45 27.0 -106.95 27.9 -107.9 M30.65 -103.55 Q29.25 -102.4 29.6 -100.75 29.95 -99.1 31.75 -97.9 33.55 -96.75 35.8 -96.75 38.05 -96.75 39.4 -97.9 40.75 -99.1 40.4 -100.75 40.05 -102.4 38.3 -103.55 36.45 -104.75 34.2 -104.75 31.95 -104.75 30.65 -103.55" fill="#000000" fill-rule="evenodd" stroke="none"/>
  </g>
</svg>
