<?xml version="1.0" encoding="UTF-8" standalone="no"?>
<svg xmlns:ffdec="https://www.free-decompiler.com/flash" xmlns:xlink="http://www.w3.org/1999/xlink" ffdec:objectType="shape" height="223.1px" width="160.75px" xmlns="http://www.w3.org/2000/svg">
  <g transform="matrix(1.0, 0.0, 0.0, 1.0, 0.0, 87.75)">
    <path d="M158.75 -56.5 Q160.75 -54.7 160.75 -52.05 160.75 -49.45 158.75 -47.6 156.75 -45.8 153.9 -45.8 151.05 -45.8 149.0 -47.6 147.0 -49.45 147.0 -52.05 147.0 -54.7 149.0 -56.5 151.05 -58.35 153.9 -58.35 156.75 -58.35 158.75 -56.5 M116.8 -82.0 Q116.8 -79.65 114.55 -77.9 112.25 -76.25 109.0 -76.25 105.75 -76.25 103.55 -77.9 101.25 -79.65 101.25 -82.0 101.25 -84.4 103.55 -86.05 105.75 -87.75 109.0 -87.75 112.25 -87.75 114.55 -86.05 116.8 -84.4 116.8 -82.0 M47.65 117.3 Q47.65 124.8 42.35 130.1 37.05 135.35 29.55 135.35 22.05 135.35 16.75 130.1 11.45 124.8 11.45 117.3 11.45 109.8 16.75 104.55 22.05 99.25 29.55 99.25 37.05 99.25 42.35 104.55 47.65 109.8 47.65 117.3 M75.05 76.05 Q71.1 80.7 65.5 80.7 59.9 80.7 55.95 76.05 52.0 71.35 52.0 64.7 52.0 58.05 55.95 53.4 59.9 48.7 65.5 48.7 71.1 48.7 75.05 53.4 79.0 58.05 79.0 64.7 79.0 71.35 75.05 76.05 M19.75 35.0 Q23.1 39.25 23.1 45.25 23.1 51.25 19.75 55.5 16.35 59.75 11.55 59.75 6.75 59.75 3.4 55.5 0.0 51.25 0.0 45.25 0.0 39.25 3.4 35.0 6.75 30.75 11.55 30.75 16.35 30.75 19.75 35.0 M63.35 2.45 Q65.3 4.85 65.3 8.3 65.3 11.75 63.35 14.2 61.35 16.6 58.55 16.6 55.75 16.6 53.8 14.2 51.8 11.75 51.8 8.3 51.8 4.85 53.8 2.45 55.75 0.0 58.55 0.0 61.35 0.0 63.35 2.45" fill="#ffffff" fill-rule="evenodd" stroke="none"/>
  </g>
</svg>
