<?xml version="1.0" encoding="UTF-8" standalone="no"?>
<svg xmlns:ffdec="https://www.free-decompiler.com/flash" xmlns:xlink="http://www.w3.org/1999/xlink" ffdec:objectType="shape" height="400.0px" width="550.0px" xmlns="http://www.w3.org/2000/svg">
  <g transform="matrix(1.0, 0.0, 0.0, 1.0, 0.0, 0.0)">
    <path d="M550.0 140.6 L550.0 145.9 Q549.4 147.4 549.95 149.85 L550.0 149.85 550.0 180.9 Q500.0 186.25 442.75 180.75 L454.7 193.75 455.5 199.25 326.9 203.75 338.65 212.0 Q279.85 223.25 219.0 216.3 192.35 213.35 165.85 216.95 81.5 228.8 0.0 242.8 L0.0 237.25 Q2.15 235.65 0.0 237.0 L0.0 234.95 Q1.05 232.85 0.0 233.1 L0.0 0.0 Q63.65 45.25 138.05 40.65 161.75 39.4 181.05 26.2 L354.45 109.7 Q366.0 98.6 381.05 93.3 394.05 88.65 407.55 91.75 L408.0 92.0 Q436.9 105.95 470.2 111.65 512.85 118.65 550.0 140.6 M333.2 211.35 L333.8 211.3 Q333.05 209.95 333.2 211.35" fill="url(#gradient0)" fill-rule="evenodd" stroke="none"/>
    <path d="M550.0 145.9 L550.0 149.85 549.95 149.85 Q549.4 147.4 550.0 145.9 M0.0 0.0 L550.0 0.0 550.0 140.6 Q512.85 118.65 470.2 111.65 436.9 105.95 408.0 92.0 L407.55 91.75 Q394.05 88.65 381.05 93.3 366.0 98.6 354.45 109.7 L181.05 26.2 Q161.75 39.4 138.05 40.65 63.65 45.25 0.0 0.0" fill="url(#gradient1)" fill-rule="evenodd" stroke="none"/>
    <path d="M550.0 180.9 L550.0 400.0 0.0 400.0 0.0 242.8 Q81.5 228.8 165.85 216.95 192.35 213.35 219.0 216.3 279.85 223.25 338.65 212.0 L326.9 203.75 455.5 199.25 454.7 193.75 442.75 180.75 Q500.0 186.25 550.0 180.9 M0.0 234.95 L0.0 233.1 Q1.05 232.85 0.0 234.95" fill="url(#gradient2)" fill-rule="evenodd" stroke="none"/>
  </g>
  <defs>
    <linearGradient gradientTransform="matrix(0.0, 0.1335, 0.1484, 0.0, 279.05, 133.0)" gradientUnits="userSpaceOnUse" id="gradient0" spreadMethod="pad" x1="-819.2" x2="819.2">
      <stop offset="0.0" stop-color="#0e0403"/>
      <stop offset="1.0" stop-color="#aaa48a"/>
    </linearGradient>
    <radialGradient cx="0" cy="0" gradientTransform="matrix(-0.4832, 0.0, 0.0, 0.4832, 416.0, 27.0)" gradientUnits="userSpaceOnUse" id="gradient1" r="819.2" spreadMethod="pad">
      <stop offset="0.0" stop-color="#fdeac9"/>
      <stop offset="1.0" stop-color="#9d7e8e"/>
    </radialGradient>
    <linearGradient gradientTransform="matrix(0.0, 0.1514, 0.1543, 0.0, 270.65, 301.9)" gradientUnits="userSpaceOnUse" id="gradient2" spreadMethod="pad" x1="-819.2" x2="819.2">
      <stop offset="0.0" stop-color="#fdf7bd"/>
      <stop offset="1.0" stop-color="#6f8b41"/>
    </linearGradient>
  </defs>
</svg>
