<?xml version="1.0" encoding="UTF-8" standalone="no"?>
<svg xmlns:ffdec="https://www.free-decompiler.com/flash" xmlns:xlink="http://www.w3.org/1999/xlink" ffdec:objectType="shape" height="425.85px" width="623.85px" xmlns="http://www.w3.org/2000/svg">
  <g transform="matrix(1.0, 0.0, 0.0, 1.0, 48.0, 0.0)">
    <path d="M550.0 0.0 L550.0 400.0 0.0 400.0 0.0 0.0 550.0 0.0" fill="url(#gradient0)" fill-rule="evenodd" stroke="none"/>
    <path d="M381.35 330.15 Q386.25 333.5 387.1 333.5 388.05 333.5 402.85 329.75 420.3 326.0 434.35 326.0 457.35 326.0 498.3 332.35 L525.5 336.65 542.6 338.5 Q563.95 338.2 571.7 348.15 575.85 353.5 575.85 362.5 575.85 365.2 574.35 369.7 572.85 374.2 572.85 375.25 L575.85 388.0 574.85 403.75 Q574.85 410.8 564.4 417.6 551.75 425.85 532.35 425.85 L493.65 423.95 447.85 421.1 397.75 421.0 328.35 418.6 Q311.75 415.0 289.0 412.0 244.55 406.1 185.0 406.1 169.1 406.1 124.95 414.0 80.8 421.85 63.5 421.85 52.95 421.85 34.45 417.75 16.5 413.8 -1.5 407.65 -20.55 401.1 -32.1 394.65 -45.0 387.4 -45.0 382.0 -45.0 379.0 -43.0 370.55 L-41.0 362.5 Q-41.0 362.0 -44.5 358.95 -48.0 355.9 -48.0 354.0 -48.0 352.7 -38.75 345.55 -29.05 338.0 -25.5 338.0 -21.7 338.0 -18.75 341.4 -17.25 343.05 -16.25 344.75 10.4 344.75 20.6 340.0 L29.05 335.1 Q34.7 331.75 41.25 329.5 44.15 328.5 79.05 324.15 113.95 319.8 119.25 318.0 164.65 302.2 179.35 300.25 L197.2 299.5 223.0 300.0 Q286.4 300.0 304.35 307.4 308.8 309.2 313.25 312.45 317.3 314.75 325.1 314.75 331.0 314.75 333.8 313.4 336.55 312.0 339.35 312.0 352.4 312.0 370.15 322.75 374.0 325.1 381.35 330.15" fill="#000000" fill-rule="evenodd" stroke="none"/>
    <path d="M282.1 46.7 L287.9 61.55 262.1 59.6 267.9 45.4 282.1 46.7 M268.55 42.2 L274.35 28.65 280.8 43.5 268.55 42.2 M255.0 77.7 L260.8 62.85 289.2 64.75 295.0 80.25 275.0 93.5 255.0 77.7 295.0 80.25 255.0 77.7" fill="#000000" fill-rule="evenodd" stroke="none"/>
    <path d="M282.1 46.7 L287.9 61.55 262.1 59.6 267.9 45.4 282.1 46.7 M268.55 42.2 L274.35 28.65 280.8 43.5 268.55 42.2 M255.0 77.7 L260.8 62.85 289.2 64.75 295.0 80.25 275.0 93.5 255.0 77.7 295.0 80.25" fill="none" stroke="#ffffff" stroke-linecap="round" stroke-linejoin="round" stroke-width="2.0"/>
    <path d="M302.75 94.65 L302.75 125.95 314.1 130.0 314.1 400.0 234.1 400.0 234.1 130.0 244.2 126.55 244.2 94.65 Q273.45 73.4 302.75 94.65" fill="#000000" fill-rule="evenodd" stroke="none"/>
  </g>
  <defs>
    <radialGradient cx="0" cy="0" gradientTransform="matrix(0.5553, 0.0, 0.0, 0.5553, 274.6, 301.8)" gradientUnits="userSpaceOnUse" id="gradient0" r="819.2" spreadMethod="pad">
      <stop offset="0.06274509803921569" stop-color="#e9c127"/>
      <stop offset="0.10980392156862745" stop-color="#64360b"/>
      <stop offset="0.7686274509803922" stop-color="#15102c"/>
      <stop offset="1.0" stop-color="#000000"/>
    </radialGradient>
  </defs>
</svg>
