<?xml version="1.0" encoding="UTF-8" standalone="no"?>
<svg xmlns:ffdec="https://www.free-decompiler.com/flash" xmlns:xlink="http://www.w3.org/1999/xlink" ffdec:objectType="shape" height="400.0px" width="550.0px" xmlns="http://www.w3.org/2000/svg">
  <g transform="matrix(1.0, 0.0, 0.0, 1.0, 0.0, 0.0)">
    <path d="M550.0 140.7 Q528.85 137.5 507.6 142.25 L501.0 142.5 Q484.5 151.25 472.35 164.15 458.75 178.55 436.35 176.7 428.9 176.55 421.5 175.25 L419.8 173.7 Q409.15 175.75 400.35 183.55 394.65 188.65 387.95 192.1 L379.65 187.1 379.9 182.35 Q367.85 188.7 357.2 197.25 348.9 203.85 342.1 201.0 L339.0 196.75 Q313.3 222.4 279.3 218.9 252.85 216.5 229.1 229.8 L222.3 221.85 217.0 223.75 216.0 219.5 210.65 220.6 209.55 215.8 196.55 209.05 194.2 204.2 190.5 203.5 188.6 198.1 182.55 196.55 181.75 194.25 176.5 194.0 175.75 190.25 164.8 192.2 165.75 186.25 158.5 190.25 158.4 184.7 155.95 183.6 149.25 187.25 147.0 179.5 141.25 183.5 139.5 178.75 124.5 180.25 119.5 176.25 118.95 171.75 114.6 171.85 Q111.4 171.5 108.6 170.25 104.7 168.65 101.65 165.7 L100.8 165.05 Q99.05 165.95 97.75 167.75 L92.25 159.15 76.2 166.0 74.6 162.0 70.25 166.5 68.5 156.0 63.75 159.25 62.65 154.25 56.5 156.45 53.5 152.0 44.7 153.8 43.7 152.25 37.0 154.25 36.25 149.0 Q34.1 150.05 31.95 151.05 L30.85 146.95 25.5 150.0 21.45 145.35 17.9 149.55 12.0 148.05 9.5 145.0 5.5 149.5 5.25 141.0 3.0 140.75 0.0 144.55 0.0 0.0 550.0 0.0 550.0 140.7 M0.0 149.2 Q0.3 150.2 0.95 150.65 L0.0 150.65 0.0 149.2 M164.25 274.8 Q165.25 274.6 164.65 274.8 L164.25 274.8" fill="#fdfcff" fill-rule="evenodd" stroke="none"/>
    <path d="M229.1 229.8 Q252.85 216.5 279.3 218.9 313.3 222.4 339.0 196.75 L342.1 201.0 Q348.9 203.85 357.2 197.25 367.85 188.7 379.9 182.35 L379.65 187.1 387.95 192.1 Q394.65 188.65 400.35 183.55 409.15 175.75 419.8 173.7 L421.5 175.25 Q428.9 176.55 436.35 176.7 458.75 178.55 472.35 164.15 484.5 151.25 501.0 142.5 L507.6 142.25 Q528.85 137.5 550.0 140.7 L550.0 271.9 509.35 270.5 Q489.9 270.15 470.55 270.45 L429.75 272.45 Q408.1 274.25 386.4 272.8 364.6 271.95 342.95 273.15 L300.95 275.5 261.6 276.65 Q245.95 277.1 230.45 276.35 L188.25 275.0 164.0 275.0 165.45 274.8 Q183.05 272.2 183.15 258.85 L182.8 257.15 Q199.55 240.15 223.95 233.25 L218.3 231.75 229.1 229.8" fill="url(#gradient0)" fill-rule="evenodd" stroke="none"/>
    <path d="M229.1 229.8 L218.3 231.75 223.95 233.25 Q199.55 240.15 182.8 257.15 L183.15 258.85 Q183.05 272.2 165.45 274.8 L164.0 275.0 164.65 274.8 Q165.25 274.6 164.25 274.8 143.55 275.2 123.1 278.5 L110.95 280.0 85.5 280.0 55.25 278.75 36.9 280.0 22.0 280.0 0.95 280.0 0.0 280.15 0.0 150.65 0.95 150.65 Q0.3 150.2 0.0 149.2 L0.0 144.55 3.0 140.75 5.25 141.0 5.5 149.5 9.5 145.0 12.0 148.05 17.9 149.55 21.45 145.35 25.5 150.0 30.85 146.95 31.95 151.05 Q34.1 150.05 36.25 149.0 L37.0 154.25 43.7 152.25 44.7 153.8 53.5 152.0 56.5 156.45 62.65 154.25 63.75 159.25 68.5 156.0 70.25 166.5 74.6 162.0 76.2 166.0 92.25 159.15 97.75 167.75 Q99.05 165.95 100.8 165.05 L101.65 165.7 Q104.7 168.65 108.6 170.25 111.4 171.5 114.6 171.85 L118.95 171.75 119.5 176.25 124.5 180.25 139.5 178.75 141.25 183.5 147.0 179.5 149.25 187.25 155.95 183.6 158.4 184.7 158.5 190.25 165.75 186.25 164.8 192.2 175.75 190.25 176.5 194.0 181.75 194.25 182.55 196.55 188.6 198.1 190.5 203.5 194.2 204.2 196.55 209.05 209.55 215.8 210.65 220.6 216.0 219.5 217.0 223.75 222.3 221.85 229.1 229.8" fill="url(#gradient1)" fill-rule="evenodd" stroke="none"/>
    <path d="M164.0 285.05 L188.25 285.05 230.45 283.9 Q245.95 283.3 261.6 283.65 L300.95 284.6 342.95 286.6 Q364.6 287.6 386.4 286.9 408.1 285.65 429.75 287.2 L470.55 288.85 Q489.9 289.1 509.35 288.8 529.65 288.5 550.0 287.65 L550.0 397.0 509.85 397.0 507.6 396.6 501.0 396.4 Q496.45 394.4 492.3 392.1 481.15 386.05 472.35 378.2 458.75 366.1 436.35 367.65 L421.5 368.85 419.8 370.15 Q409.15 368.45 400.35 361.9 394.65 357.6 387.95 354.7 L379.65 358.9 379.9 362.9 Q367.85 357.55 357.2 350.4 348.9 344.85 342.1 347.25 L339.0 350.8 Q313.3 329.25 279.3 332.2 252.85 334.2 229.1 323.05 L218.3 321.4 223.95 320.15 Q199.55 314.35 182.8 300.05 L183.15 298.6 Q183.05 287.4 165.45 285.2 L164.0 285.05" fill="url(#gradient2)" fill-rule="evenodd" stroke="none"/>
    <path d="M0.0 280.15 L0.95 280.0 22.0 280.0 30.2 280.45 39.95 281.0 55.25 281.9 82.45 281.0 88.1 280.65 93.15 280.45 103.15 280.45 113.15 281.0 123.1 282.1 Q143.55 284.85 164.25 285.2 165.25 285.4 164.65 285.2 L164.0 285.05 165.45 285.2 Q183.05 287.4 183.15 298.6 L182.8 300.05 Q199.55 314.35 223.95 320.15 L218.3 321.4 229.1 323.05 222.3 329.7 217.0 328.1 216.0 331.7 210.65 330.75 209.55 334.8 196.55 340.45 194.2 344.55 190.5 345.15 188.6 349.65 182.55 350.95 181.75 352.9 176.5 353.1 175.75 356.25 164.8 354.65 165.75 359.65 158.5 356.25 158.4 360.95 155.95 361.85 149.25 358.8 147.0 365.3 141.25 361.95 139.5 365.95 124.5 364.65 119.5 368.05 118.95 371.8 114.6 371.75 Q111.4 372.0 108.6 373.05 104.7 374.4 101.65 376.9 101.0 377.55 100.8 377.45 99.05 376.7 97.75 375.15 L92.25 382.4 76.2 376.65 74.6 380.0 70.25 376.2 68.5 385.05 63.75 382.3 62.65 386.5 56.5 384.65 53.5 388.4 44.7 386.9 43.7 388.2 37.0 386.5 36.25 390.95 31.95 389.2 30.85 392.65 25.5 390.1 21.45 394.0 17.9 390.45 12.0 391.75 9.5 394.3 5.5 390.5 5.3 397.0 2.2 397.0 0.0 394.65 0.0 390.75 Q0.3 389.9 0.95 389.55 L0.0 389.55 0.0 280.15" fill="url(#gradient3)" fill-rule="evenodd" stroke="none"/>
    <path d="M164.0 275.0 L188.25 275.0 230.45 276.35 Q245.95 277.1 261.6 276.65 L300.95 275.5 342.95 273.15 Q364.6 271.95 386.4 272.8 408.1 274.25 429.75 272.45 L470.55 270.45 Q489.9 270.15 509.35 270.5 L550.0 271.9 550.0 287.65 Q529.65 288.5 509.35 288.8 489.9 289.1 470.55 288.85 L429.75 287.2 Q408.1 285.65 386.4 286.9 364.6 287.6 342.95 286.6 L300.95 284.6 261.6 283.65 Q245.95 283.3 230.45 283.9 L188.25 285.05 164.0 285.05 164.65 285.2 164.25 285.2 Q143.55 284.85 123.1 282.1 L113.15 281.0 103.15 280.45 93.15 280.45 88.1 280.65 82.45 281.0 55.25 281.9 39.95 281.0 30.2 280.45 22.0 280.0 36.9 280.0 55.25 278.75 85.5 280.0 110.95 280.0 123.1 278.5 Q143.55 275.2 164.25 274.8 L164.65 274.8 164.0 275.0" fill="#513f2f" fill-rule="evenodd" stroke="none"/>
    <path d="M0.0 280.0 L550.0 280.0 550.0 400.0 0.0 400.0 0.0 280.0" fill="#ffffff" fill-opacity="0.5019608" fill-rule="evenodd" stroke="none"/>
  </g>
  <defs>
    <linearGradient gradientTransform="matrix(-0.019, -0.0707, 0.0816, -0.0219, 396.9, 241.35)" gradientUnits="userSpaceOnUse" id="gradient0" spreadMethod="pad" x1="-819.2" x2="819.2">
      <stop offset="0.0" stop-color="#000000"/>
      <stop offset="1.0" stop-color="#254a24"/>
    </linearGradient>
    <linearGradient gradientTransform="matrix(0.0176, -0.0657, 0.0837, 0.0224, 94.55, 224.9)" gradientUnits="userSpaceOnUse" id="gradient1" spreadMethod="pad" x1="-819.2" x2="819.2">
      <stop offset="0.0" stop-color="#000000"/>
      <stop offset="1.0" stop-color="#6b6e27"/>
    </linearGradient>
    <linearGradient gradientTransform="matrix(-0.019, 0.0594, 0.0816, 0.0184, 396.9, 313.3)" gradientUnits="userSpaceOnUse" id="gradient2" spreadMethod="pad" x1="-819.2" x2="819.2">
      <stop offset="0.0" stop-color="#000000"/>
      <stop offset="1.0" stop-color="#254a24"/>
    </linearGradient>
    <linearGradient gradientTransform="matrix(0.0176, 0.0552, 0.0837, -0.0188, 94.55, 327.15)" gradientUnits="userSpaceOnUse" id="gradient3" spreadMethod="pad" x1="-819.2" x2="819.2">
      <stop offset="0.0" stop-color="#000000"/>
      <stop offset="1.0" stop-color="#6b6e27"/>
    </linearGradient>
  </defs>
</svg>
