<?xml version="1.0" encoding="UTF-8" standalone="no"?>
<svg xmlns:ffdec="https://www.free-decompiler.com/flash" xmlns:xlink="http://www.w3.org/1999/xlink" ffdec:objectType="shape" height="400.0px" width="550.0px" xmlns="http://www.w3.org/2000/svg">
  <g transform="matrix(1.0, 0.0, 0.0, 1.0, 0.0, 0.0)">
    <path d="M0.0 207.5 L0.0 0.0 550.0 0.0 550.0 207.5 Q271.15 190.1 0.0 207.5" fill="url(#gradient0)" fill-rule="evenodd" stroke="none"/>
    <path d="M550.0 207.5 L550.0 400.0 0.0 400.0 0.0 207.5 Q271.15 190.1 550.0 207.5" fill="url(#gradient1)" fill-rule="evenodd" stroke="none"/>
    <path d="M431.85 48.0 Q444.1 48.0 452.15 53.0 454.75 54.7 456.5 56.65 457.85 58.1 457.85 58.6 457.85 61.5 457.25 62.7 456.45 64.3 453.9 65.0 L436.15 66.25 432.85 67.75 427.85 67.75 426.95 67.35 426.85 67.4 Q425.1 68.5 423.85 68.5 418.45 68.5 417.1 67.15 L416.4 66.2 Q415.9 65.75 414.85 65.75 408.75 65.75 408.45 63.85 L408.1 61.85 Q407.5 60.55 405.35 59.5 405.1 60.85 405.1 58.35 405.1 57.85 407.25 57.5 409.3 57.15 411.1 56.3 411.15 54.55 411.9 53.8 410.2 54.65 409.1 54.75 411.8 53.7 415.9 48.9 420.5 45.55 428.6 49.5 L429.75 48.65 Q430.4 48.0 431.85 48.0 M417.1 51.5 L416.7 50.9 414.2 52.55 417.1 51.5 M438.05 65.35 L437.55 65.6 439.0 65.15 439.05 64.9 438.05 65.35 M453.4 62.55 L453.6 62.5 453.3 61.85 453.4 62.55" fill="#ffffff" fill-opacity="0.5019608" fill-rule="evenodd" stroke="none"/>
  </g>
  <defs>
    <linearGradient gradientTransform="matrix(0.0, 0.2285, -0.1266, 0.0, 275.0, 103.75)" gradientUnits="userSpaceOnUse" id="gradient0" spreadMethod="pad" x1="-819.2" x2="819.2">
      <stop offset="0.0" stop-color="#6da5f8"/>
      <stop offset="1.0" stop-color="#ffffff"/>
    </linearGradient>
    <linearGradient gradientTransform="matrix(0.0, 0.1278, -0.1228, 0.0, 275.0, 299.4)" gradientUnits="userSpaceOnUse" id="gradient1" spreadMethod="pad" x1="-819.2" x2="819.2">
      <stop offset="0.0" stop-color="#7db583"/>
      <stop offset="1.0" stop-color="#63a552"/>
    </linearGradient>
  </defs>
</svg>
