<?xml version="1.0" encoding="UTF-8" standalone="no"?>
<svg xmlns:ffdec="https://www.free-decompiler.com/flash" xmlns:xlink="http://www.w3.org/1999/xlink" ffdec:objectType="frame" height="463.0px" width="591.0px" xmlns="http://www.w3.org/2000/svg">
  <g transform="matrix(1.0, 0.0, 0.0, 1.0, 21.5, 0.0)">
    <use ffdec:characterId="1840" height="463.0" transform="matrix(1.0, 0.0, 0.0, 1.0, -21.5, 0.0)" width="591.0" xlink:href="#shape0"/>
    <use ffdec:characterId="1842" height="100.0" transform="matrix(0.22, 0.0, 0.0, 0.22, 26.0, 246.0)" width="100.0" xlink:href="#sprite0"/>
    <use ffdec:characterId="1843" height="120.5" transform="matrix(1.0, 0.0, 0.0, 1.0, 31.0, 110.5)" width="401.0" xlink:href="#shape2"/>
    <use ffdec:characterId="1842" height="100.0" transform="matrix(0.2, 0.0, 0.0, 0.2, 98.0, 170.0)" width="100.0" xlink:href="#sprite0"/>
    <use ffdec:characterId="1842" height="100.0" transform="matrix(0.2001, 0.0, 0.0, 0.2001, 418.0, 65.0)" width="100.0" xlink:href="#sprite0"/>
    <use ffdec:characterId="1844" height="117.0" transform="matrix(1.0, 0.0, 0.0, 1.0, 104.0, 59.0)" width="117.0" xlink:href="#shape3"/>
  </g>
  <defs>
    <g id="shape0" transform="matrix(1.0, 0.0, 0.0, 1.0, 21.5, 0.0)">
      <path d="M550.0 0.0 L550.0 400.0 0.0 400.0 0.0 0.0 550.0 0.0" fill="#000000" fill-rule="evenodd" stroke="none"/>
      <path d="M569.5 450.5 L-21.5 450.5 -21.5 296.95 Q274.0 251.7 569.5 304.75 L569.5 450.5" fill="#ffff99" fill-rule="evenodd" stroke="none"/>
      <path d="M198.3 430.35 Q199.55 435.55 193.2 438.25 158.4 453.1 120.55 450.05 82.05 447.6 61.3 416.0 66.9 410.55 75.75 411.35 98.9 412.4 126.0 399.0 131.75 398.25 127.95 394.2 L141.0 396.9 Q166.65 402.35 188.2 416.5 196.25 421.8 198.3 430.35 M273.05 453.25 L273.05 453.1 Q273.2 445.0 277.6 438.3 282.8 430.55 290.75 425.35 306.65 414.9 325.2 411.0 388.05 397.45 452.65 400.7 491.85 401.95 526.7 418.7 548.05 428.95 557.65 446.7 556.45 447.25 557.0 449.3 530.3 439.1 500.3 435.6 455.7 430.7 410.65 432.0 380.1 433.85 353.5 447.1 352.05 453.1 346.2 455.4 329.65 461.75 311.7 463.0 288.7 463.3 271.85 454.4 L273.05 453.25 M194.9 298.9 L195.25 302.5 Q233.1 305.3 241.65 330.15 226.05 346.3 202.15 340.15 176.6 333.7 173.35 310.85 172.75 306.45 173.5 302.0 L190.8 300.95 191.5 298.9 194.9 298.9 M151.85 302.4 Q147.6 301.55 145.6 298.1 L145.45 297.55 Q166.45 286.35 190.75 292.5 L190.75 294.0 162.75 297.2 165.55 302.55 151.85 302.4 M62.0 368.0 L62.1 367.55 Q77.95 363.6 97.8 369.55 116.1 375.05 124.05 390.95 122.0 389.5 89.8 384.0 57.6 378.45 57.0 390.0 48.7 403.65 59.6 409.05 L46.6 409.55 Q22.15 407.8 19.5 384.65 32.35 364.2 62.0 368.0 M484.3 331.2 L485.1 332.25 485.0 330.0 Q506.1 346.35 527.1 359.3 534.35 363.8 537.35 370.8 541.6 380.65 530.7 383.5 511.2 388.65 491.85 382.75 470.1 376.0 461.65 366.85 453.15 357.65 446.7 354.15 440.3 350.65 483.9 330.65 L484.25 331.1 482.2 334.1 Q482.65 333.95 484.3 331.2 M450.0 328.0 L450.0 339.0 449.25 338.45 450.1 339.1 Q431.05 343.15 421.85 326.85 L423.8 325.5 423.5 322.85 Q434.4 317.0 446.85 315.8 470.0 313.3 483.55 330.15 474.35 331.0 468.6 326.95 459.2 320.35 450.0 328.0" fill="#000000" fill-opacity="0.101960786" fill-rule="evenodd" stroke="none"/>
      <path d="M370.3 443.0 L373.15 445.1 373.1 449.8 Q367.25 448.4 370.3 443.0 M276.65 452.75 L274.25 453.5 Q271.1 448.3 275.2 442.8 288.25 425.25 307.85 415.85 321.15 410.55 334.85 406.95 339.15 405.85 343.55 405.5 L363.35 402.75 Q426.05 392.65 487.9 405.1 531.55 414.0 557.6 446.5 L555.85 447.85 552.55 444.55 Q537.5 430.45 518.85 421.55 499.75 412.5 479.0 409.1 409.6 397.4 340.1 409.25 297.6 416.5 276.65 452.75 M190.65 310.6 L203.25 332.1 Q192.35 323.0 190.65 310.6 M171.25 315.15 L171.5 308.2 173.5 307.25 173.4 316.25 171.25 315.15 M148.55 298.3 Q149.6 296.75 147.75 297.45 146.45 297.95 145.25 298.75 169.1 306.35 191.85 295.2 194.95 297.5 197.8 300.5 203.5 306.5 203.25 313.3 202.15 313.1 201.0 312.05 197.95 309.45 196.15 305.85 194.8 303.1 194.2 299.95 188.5 302.25 182.45 303.6 162.0 307.95 142.25 301.1 L135.5 320.1 134.15 319.7 Q134.05 296.5 155.6 290.1 175.15 284.25 189.8 293.8 168.2 291.8 148.55 298.3 M154.0 314.85 L152.75 314.35 156.9 306.6 Q157.95 309.2 156.25 311.85 L154.0 314.85 M14.1 389.8 Q23.75 369.4 46.35 365.95 64.7 363.45 83.0 366.05 114.05 370.55 131.15 393.2 L128.65 391.9 Q134.0 408.75 146.95 420.55 142.3 419.75 138.15 417.15 127.9 410.8 126.15 398.55 108.1 410.4 86.7 413.7 69.45 416.3 52.2 413.2 30.35 409.6 16.35 392.45 6.8 413.45 -14.9 421.2 -6.1 414.8 1.65 407.15 9.5 399.45 14.1 389.8 M53.15 368.8 Q28.0 369.5 20.0 389.5 22.35 401.35 35.15 404.3 55.6 409.05 76.85 408.85 98.25 408.65 117.8 400.9 127.4 397.1 120.95 388.7 107.7 371.6 85.3 369.45 69.1 368.35 53.15 368.8 M420.15 326.75 Q430.3 309.85 457.35 311.1 480.35 312.35 488.4 332.8 L506.85 379.1 486.85 335.0 Q474.85 343.9 459.9 344.4 438.3 345.3 422.3 331.05 L405.7 351.8 Q409.7 337.6 420.15 326.75 M431.1 344.35 L426.6 354.1 Q424.75 350.1 431.1 344.35 M477.0 359.8 L476.75 359.3 Q475.2 352.2 478.1 347.35 L478.35 360.1 477.0 359.8 M454.1 349.1 L455.35 349.1 456.35 362.6 454.1 349.1 M484.85 330.0 Q469.75 315.2 448.05 317.0 435.5 318.15 424.2 323.35 L426.1 322.6 424.7 327.4 Q432.3 338.35 446.2 339.75 468.2 342.2 484.85 330.0" fill="#f5e767" fill-rule="evenodd" stroke="none"/>
      <path d="M497.5 33.15 Q497.85 33.65 497.85 35.1 L497.35 37.0 496.5 37.4 494.85 38.0 492.4 35.95 491.85 35.25 Q491.85 33.75 492.65 32.9 494.0 31.45 497.1 32.5 L497.5 33.15 M525.85 156.0 Q525.4 157.4 523.85 158.0 522.6 157.5 521.85 156.75 522.75 155.45 523.65 154.95 L525.1 154.5 525.85 156.0 M433.7 75.95 Q433.7 77.95 432.25 79.4 430.8 80.85 428.7 80.85 425.3 80.85 424.15 77.95 L423.7 75.7 Q423.7 73.45 425.25 72.25 426.65 71.2 428.7 71.3 430.75 71.45 432.15 72.6 433.7 73.9 433.7 75.95 M330.5 60.15 Q330.85 60.65 330.85 62.1 L330.35 64.0 329.5 64.4 327.85 65.0 325.4 62.95 324.85 62.25 Q324.85 60.75 325.65 59.9 327.0 58.45 330.1 59.5 L330.5 60.15 M416.35 165.5 Q416.35 166.2 415.75 167.0 415.05 168.0 413.85 168.5 412.35 168.0 411.6 167.25 411.35 168.25 411.35 165.75 411.35 164.15 412.25 163.8 L413.85 163.5 Q415.45 164.15 416.35 165.5 M464.85 276.0 Q464.4 277.4 462.85 278.0 461.6 277.5 460.85 276.75 461.75 275.45 462.65 274.95 L464.1 274.5 464.85 276.0 M394.85 249.0 Q394.4 250.4 392.85 251.0 391.6 250.5 390.85 249.75 391.75 248.45 392.65 247.95 L394.1 247.5 394.85 249.0 M500.85 233.25 Q500.85 231.75 501.65 230.9 503.0 229.45 506.1 230.5 L506.5 231.15 Q506.85 231.65 506.85 233.1 L506.35 235.0 505.5 235.4 503.85 236.0 501.4 233.95 500.85 233.25 M226.5 146.15 Q226.85 146.65 226.85 148.1 L226.35 150.0 225.5 150.4 223.85 151.0 221.4 148.95 220.85 148.25 Q220.85 146.75 221.65 145.9 223.0 144.45 226.1 145.5 L226.5 146.15 M291.85 153.0 Q291.4 154.4 289.85 155.0 288.6 154.5 287.85 153.75 288.75 152.45 289.65 151.95 L291.1 151.5 291.85 153.0 M155.65 27.15 Q156.0 27.65 156.0 29.1 L155.5 31.0 154.65 31.4 153.0 32.0 150.5 29.9 150.0 29.25 Q150.0 27.7 150.75 26.9 152.05 25.45 155.25 26.5 L155.65 27.15 M47.0 55.75 Q47.9 54.45 48.75 53.95 L50.25 53.5 51.0 55.0 Q50.55 56.4 49.0 57.0 47.75 56.5 47.0 55.75 M77.65 77.15 Q78.0 77.65 78.0 79.1 L77.5 81.0 76.65 81.4 75.0 82.0 72.5 79.9 72.0 79.25 Q72.0 77.7 72.75 76.9 74.05 75.45 77.25 76.5 L77.65 77.15 M108.9 185.45 Q105.15 185.45 103.9 182.25 L103.45 179.8 Q103.45 177.45 105.15 176.15 106.65 174.95 108.9 175.05 111.15 175.15 112.65 176.4 114.35 177.8 114.35 180.1 114.35 182.25 112.75 183.85 111.15 185.45 108.9 185.45 M145.0 218.0 Q144.55 219.4 143.0 220.0 141.75 219.5 141.0 218.75 141.9 217.45 142.75 216.95 L144.25 216.5 145.0 218.0 M51.25 206.75 L50.5 208.75 49.0 209.25 47.3 208.8 Q46.75 208.45 46.75 206.85 46.75 205.25 47.5 204.95 L49.0 204.75 Q50.25 205.25 51.25 206.75 M32.5 259.5 L32.0 256.8 Q32.0 254.15 33.9 252.7 35.55 251.45 38.0 251.55 40.45 251.7 42.15 253.1 44.0 254.65 44.0 257.1 44.0 259.55 42.25 261.25 40.5 263.0 38.0 263.0 33.9 263.0 32.5 259.5 M222.65 232.9 Q224.0 231.45 227.1 232.5 L227.5 233.15 Q227.85 233.65 227.85 235.1 L227.35 237.0 226.5 237.4 224.85 238.0 222.4 235.95 221.85 235.25 Q221.85 233.75 222.65 232.9" fill="#ffffff" fill-rule="evenodd" stroke="none"/>
    </g>
    <g id="sprite0" transform="matrix(1.0, 0.0, 0.0, 1.0, 0.0, 0.0)">
      <use ffdec:characterId="1841" height="100.0" transform="matrix(1.0, 0.0, 0.0, 1.0, 0.0, 0.0)" width="100.0" xlink:href="#shape1"/>
    </g>
    <g id="shape1" transform="matrix(1.0, 0.0, 0.0, 1.0, 0.0, 0.0)">
      <path d="M100.0 50.0 Q100.0 70.8 85.4 85.4 70.8 100.0 50.0 100.0 29.2 100.0 14.6 85.4 0.0 70.8 0.0 50.0 0.0 29.2 14.6 14.6 29.2 0.0 50.0 0.0 70.8 0.0 85.4 14.6 100.0 29.2 100.0 50.0" fill="url(#gradient0)" fill-rule="evenodd" stroke="none"/>
    </g>
    <radialGradient cx="0" cy="0" gradientTransform="matrix(0.0637, 0.0, 0.0, 0.0637, 50.0, 50.0)" gradientUnits="userSpaceOnUse" id="gradient0" r="819.2" spreadMethod="pad">
      <stop offset="0.0" stop-color="#ffffff"/>
      <stop offset="1.0" stop-color="#ffffff" stop-opacity="0.0"/>
    </radialGradient>
    <g id="shape2" transform="matrix(1.0, 0.0, 0.0, 1.0, -31.0, -110.5)">
      <path d="M432.0 146.0 Q431.05 147.45 429.5 147.75 429.0 147.0 429.0 145.5 L430.05 145.2 431.5 145.25 432.0 146.0 M356.0 229.0 Q355.55 230.4 354.0 231.0 352.75 230.5 352.0 229.75 352.9 228.45 353.75 227.95 L355.25 227.5 356.0 229.0 M239.0 112.75 Q239.9 111.45 240.75 110.95 L242.25 110.5 243.0 112.0 Q242.55 113.4 241.0 114.0 239.75 113.5 239.0 112.75 M32.5 139.55 Q31.4 139.55 31.0 139.0 31.45 137.7 34.0 139.0 33.65 139.55 32.5 139.55" fill="#ffffff" fill-rule="evenodd" stroke="none"/>
    </g>
    <g id="shape3" transform="matrix(1.0, 0.0, 0.0, 1.0, -104.0, -59.0)">
      <path d="M203.85 76.1 Q221.0 93.25 221.0 117.5 221.0 141.75 203.85 158.85 186.75 176.0 162.5 176.0 138.25 176.0 121.1 158.85 104.0 141.75 104.0 117.5 104.0 93.25 121.1 76.1 138.25 59.0 162.5 59.0 186.75 59.0 203.85 76.1" fill="#006699" fill-rule="evenodd" stroke="none"/>
      <path d="M149.75 68.4 Q155.0 69.3 160.55 71.45 L161.85 71.4 161.85 71.35 Q162.55 70.55 163.4 70.2 166.1 69.2 174.9 69.95 L179.75 69.0 Q182.25 68.45 182.85 69.0 183.45 69.55 183.5 72.5 L183.5 77.0 Q177.15 76.7 176.2 78.2 L176.15 79.6 177.5 80.5 175.9 82.0 Q163.1 94.4 164.0 112.25 162.05 108.25 158.55 105.4 154.55 102.1 149.65 103.75 149.45 104.95 149.8 106.05 157.65 131.45 186.55 142.1 L180.75 137.8 188.45 142.75 Q172.7 155.5 164.25 173.25 159.3 156.3 161.2 140.45 163.1 124.6 144.05 116.35 125.0 108.05 118.3 93.9 111.55 79.8 123.75 74.15 135.9 68.45 141.25 67.85 L140.85 68.05 149.75 68.4 M209.35 99.95 Q207.65 99.15 209.25 100.25 L209.35 99.95 M220.35 129.0 L218.1 131.7 208.6 129.1 195.4 101.9 Q204.45 98.1 214.25 98.75 L219.1 108.15 Q223.2 117.1 208.0 125.0 L220.35 129.0 M207.6 124.95 Q208.25 126.95 207.75 125.2 L207.6 124.95 M162.9 72.4 L163.05 72.1 162.65 72.3 162.9 72.4" fill="#009966" fill-rule="evenodd" stroke="none"/>
      <path d="M141.25 67.85 L146.25 64.75 142.5 64.25 Q152.25 55.6 169.0 63.0 L169.3 63.2 160.5 64.0 163.25 66.25 Q156.3 68.1 149.75 68.4 L140.85 68.05 141.25 67.85 M146.5 67.0 Q144.4 66.3 142.5 67.25 L146.5 67.0" fill="#9d9d9d" fill-rule="evenodd" stroke="none"/>
      <path d="M203.85 76.1 Q221.0 93.25 221.0 117.5 221.0 141.75 203.85 158.85 186.75 176.0 162.5 176.0 138.25 176.0 121.1 158.85 104.0 141.75 104.0 117.5 104.0 93.25 121.1 76.1 138.25 59.0 162.5 59.0 186.75 59.0 203.85 76.1" fill="url(#gradient1)" fill-rule="evenodd" stroke="none"/>
    </g>
    <radialGradient cx="0" cy="0" gradientTransform="matrix(0.1334, 0.0, 0.0, 0.1334, 116.6, 90.3)" gradientUnits="userSpaceOnUse" id="gradient1" r="819.2" spreadMethod="pad">
      <stop offset="0.0" stop-color="#000000" stop-opacity="0.0"/>
      <stop offset="0.6352941176470588" stop-color="#000000" stop-opacity="0.0"/>
      <stop offset="0.8627450980392157" stop-color="#0e0e0e" stop-opacity="0.9019608"/>
    </radialGradient>
  </defs>
</svg>
