<?xml version="1.0" encoding="utf-8"?>
<svg xmlns="http://www.w3.org/2000/svg" viewBox="-0.0005 -0.018 550.0014 399.9998" width="550.001px" height="400px">
  <defs>
    <mask id="mask-0">
      <g transform="matrix(1, 0, 0, 1, 0.000023, 0.000934)" style="mix-blend-mode: color-burn;">
        <path d="M-13.0 -10.35 L13.0 -10.35 13.0 10.4 -13.0 10.4 -13.0 -10.35" fill-rule="evenodd" stroke="none" style="fill: rgb(255, 255, 255);"/>
      </g>
      <g transform="matrix(0.047273, 0, 0, 0.051875, -12.999977, -10.349067)">
        <path d="M 28.842 11.161 C 31.282 13.601 32.502 16.551 32.502 20.001 C 32.502 23.451 31.282 26.391 28.842 28.841 C 26.392 31.281 23.452 32.501 20.002 32.501 C 16.562 32.501 13.622 31.281 11.172 28.841 C 8.722 26.391 7.502 23.451 7.502 20.001 C 7.502 16.551 8.722 13.601 11.172 11.161 C 13.622 8.721 16.562 7.501 20.002 7.501 C 23.452 7.501 26.392 8.721 28.842 11.161" fill-rule="evenodd" stroke="none" style="stroke-width: 1;"/>
        <path d="M 78.842 11.161 C 81.282 13.601 82.502 16.551 82.502 20.001 C 82.502 23.451 81.282 26.391 78.842 28.841 C 76.392 31.281 73.452 32.501 70.002 32.501 C 66.562 32.501 63.622 31.281 61.172 28.841 C 58.722 26.391 57.502 23.451 57.502 20.001 C 57.502 16.551 58.722 13.601 61.172 11.161 C 63.622 8.721 66.562 7.501 70.002 7.501 C 73.452 7.501 76.392 8.721 78.842 11.161" fill-rule="evenodd" stroke="none" style="stroke-width: 1;"/>
        <path d="M 128.842 11.161 C 131.282 13.601 132.502 16.551 132.502 20.001 C 132.502 23.451 131.282 26.391 128.842 28.841 C 126.392 31.281 123.452 32.501 120.002 32.501 C 116.562 32.501 113.622 31.281 111.172 28.841 C 108.722 26.391 107.502 23.451 107.502 20.001 C 107.502 16.551 108.722 13.601 111.172 11.161 C 113.622 8.721 116.562 7.501 120.002 7.501 C 123.452 7.501 126.392 8.721 128.842 11.161" fill-rule="evenodd" stroke="none" style="stroke-width: 1;"/>
        <path d="M 178.842 11.161 C 181.282 13.601 182.502 16.551 182.502 20.001 C 182.502 23.451 181.282 26.391 178.842 28.841 C 176.392 31.281 173.452 32.501 170.002 32.501 C 166.562 32.501 163.622 31.281 161.172 28.841 C 158.722 26.391 157.502 23.451 157.502 20.001 C 157.502 16.551 158.722 13.601 161.172 11.161 C 163.622 8.721 166.562 7.501 170.002 7.501 C 173.452 7.501 176.392 8.721 178.842 11.161" fill-rule="evenodd" stroke="none" style="stroke-width: 1;"/>
        <path d="M 228.842 11.161 C 231.282 13.601 232.502 16.551 232.502 20.001 C 232.502 23.451 231.282 26.391 228.842 28.841 C 226.392 31.281 223.452 32.501 220.002 32.501 C 216.562 32.501 213.622 31.281 211.172 28.841 C 208.722 26.391 207.502 23.451 207.502 20.001 C 207.502 16.551 208.722 13.601 211.172 11.161 C 213.622 8.721 216.562 7.501 220.002 7.501 C 223.452 7.501 226.392 8.721 228.842 11.161" fill-rule="evenodd" stroke="none" style="stroke-width: 1;"/>
        <path d="M 278.842 11.161 C 281.282 13.601 282.502 16.551 282.502 20.001 C 282.502 23.451 281.282 26.391 278.842 28.841 C 276.392 31.281 273.452 32.501 270.002 32.501 C 266.562 32.501 263.622 31.281 261.172 28.841 C 258.722 26.391 257.502 23.451 257.502 20.001 C 257.502 16.551 258.722 13.601 261.172 11.161 C 263.622 8.721 266.562 7.501 270.002 7.501 C 273.452 7.501 276.392 8.721 278.842 11.161" fill-rule="evenodd" stroke="none" style="stroke-width: 1;"/>
        <path d="M 328.842 11.161 C 331.282 13.601 332.502 16.551 332.502 20.001 C 332.502 23.451 331.282 26.391 328.842 28.841 C 326.392 31.281 323.452 32.501 320.002 32.501 C 316.562 32.501 313.622 31.281 311.172 28.841 C 308.722 26.391 307.502 23.451 307.502 20.001 C 307.502 16.551 308.722 13.601 311.172 11.161 C 313.622 8.721 316.562 7.501 320.002 7.501 C 323.452 7.501 326.392 8.721 328.842 11.161" fill-rule="evenodd" stroke="none" style="stroke-width: 1;"/>
        <path d="M 378.84 11.161 C 381.28 13.601 382.5 16.551 382.5 20.001 C 382.5 23.451 381.28 26.391 378.84 28.841 C 376.39 31.281 373.45 32.501 370 32.501 C 366.56 32.501 363.62 31.281 361.17 28.841 C 358.72 26.391 357.5 23.451 357.5 20.001 C 357.5 16.551 358.72 13.601 361.17 11.161 C 363.62 8.721 366.56 7.501 370 7.501 C 373.45 7.501 376.39 8.721 378.84 11.161" fill-rule="evenodd" stroke="none" style="stroke-width: 1;"/>
        <path d="M 428.84 11.161 C 431.28 13.601 432.5 16.551 432.5 20.001 C 432.5 23.451 431.28 26.391 428.84 28.841 C 426.39 31.281 423.45 32.501 420 32.501 C 416.56 32.501 413.62 31.281 411.17 28.841 C 408.72 26.391 407.5 23.451 407.5 20.001 C 407.5 16.551 408.72 13.601 411.17 11.161 C 413.62 8.721 416.56 7.501 420 7.501 C 423.45 7.501 426.39 8.721 428.84 11.161" fill-rule="evenodd" stroke="none" style="stroke-width: 1;"/>
        <path d="M 478.84 11.161 C 481.28 13.601 482.5 16.551 482.5 20.001 C 482.5 23.451 481.28 26.391 478.84 28.841 C 476.39 31.281 473.45 32.501 470 32.501 C 466.56 32.501 463.62 31.281 461.17 28.841 C 458.72 26.391 457.5 23.451 457.5 20.001 C 457.5 16.551 458.72 13.601 461.17 11.161 C 463.62 8.721 466.56 7.501 470 7.501 C 473.45 7.501 476.39 8.721 478.84 11.161" fill-rule="evenodd" stroke="none" style="stroke-width: 1;"/>
        <path d="M 528.84 11.161 C 531.28 13.601 532.5 16.551 532.5 20.001 C 532.5 23.451 531.28 26.391 528.84 28.841 C 526.39 31.281 523.45 32.501 520 32.501 C 516.56 32.501 513.62 31.281 511.17 28.841 C 508.72 26.391 507.5 23.451 507.5 20.001 C 507.5 16.551 508.72 13.601 511.17 11.161 C 513.62 8.721 516.56 7.501 520 7.501 C 523.45 7.501 526.39 8.721 528.84 11.161" fill-rule="evenodd" stroke="none" style="stroke-width: 1;"/>
        <path d="M 28.842 61.16 C 31.282 63.6 32.502 66.55 32.502 70 C 32.502 73.45 31.282 76.39 28.842 78.84 C 26.392 81.28 23.452 82.5 20.002 82.5 C 16.562 82.5 13.622 81.28 11.172 78.84 C 8.722 76.39 7.502 73.45 7.502 70 C 7.502 66.55 8.722 63.6 11.172 61.16 C 13.622 58.72 16.562 57.5 20.002 57.5 C 23.452 57.5 26.392 58.72 28.842 61.16" fill-rule="evenodd" stroke="none" style="stroke-width: 1;"/>
        <path d="M 78.842 61.16 C 81.282 63.6 82.502 66.55 82.502 70 C 82.502 73.45 81.282 76.39 78.842 78.84 C 76.392 81.28 73.452 82.5 70.002 82.5 C 66.562 82.5 63.622 81.28 61.172 78.84 C 58.722 76.39 57.502 73.45 57.502 70 C 57.502 66.55 58.722 63.6 61.172 61.16 C 63.622 58.72 66.562 57.5 70.002 57.5 C 73.452 57.5 76.392 58.72 78.842 61.16" fill-rule="evenodd" stroke="none" style="stroke-width: 1;"/>
        <path d="M 128.842 61.16 C 131.282 63.6 132.502 66.55 132.502 70 C 132.502 73.45 131.282 76.39 128.842 78.84 C 126.392 81.28 123.452 82.5 120.002 82.5 C 116.562 82.5 113.622 81.28 111.172 78.84 C 108.722 76.39 107.502 73.45 107.502 70 C 107.502 66.55 108.722 63.6 111.172 61.16 C 113.622 58.72 116.562 57.5 120.002 57.5 C 123.452 57.5 126.392 58.72 128.842 61.16" fill-rule="evenodd" stroke="none" style="stroke-width: 1;"/>
        <path d="M 178.842 61.16 C 181.282 63.6 182.502 66.55 182.502 70 C 182.502 73.45 181.282 76.39 178.842 78.84 C 176.392 81.28 173.452 82.5 170.002 82.5 C 166.562 82.5 163.622 81.28 161.172 78.84 C 158.722 76.39 157.502 73.45 157.502 70 C 157.502 66.55 158.722 63.6 161.172 61.16 C 163.622 58.72 166.562 57.5 170.002 57.5 C 173.452 57.5 176.392 58.72 178.842 61.16" fill-rule="evenodd" stroke="none" style="stroke-width: 1;"/>
        <path d="M 228.842 61.16 C 231.282 63.6 232.502 66.55 232.502 70 C 232.502 73.45 231.282 76.39 228.842 78.84 C 226.392 81.28 223.452 82.5 220.002 82.5 C 216.562 82.5 213.622 81.28 211.172 78.84 C 208.722 76.39 207.502 73.45 207.502 70 C 207.502 66.55 208.722 63.6 211.172 61.16 C 213.622 58.72 216.562 57.5 220.002 57.5 C 223.452 57.5 226.392 58.72 228.842 61.16" fill-rule="evenodd" stroke="none" style="stroke-width: 1;"/>
        <path d="M 278.842 61.16 C 281.282 63.6 282.502 66.55 282.502 70 C 282.502 73.45 281.282 76.39 278.842 78.84 C 276.392 81.28 273.452 82.5 270.002 82.5 C 266.562 82.5 263.622 81.28 261.172 78.84 C 258.722 76.39 257.502 73.45 257.502 70 C 257.502 66.55 258.722 63.6 261.172 61.16 C 263.622 58.72 266.562 57.5 270.002 57.5 C 273.452 57.5 276.392 58.72 278.842 61.16" fill-rule="evenodd" stroke="none" style="stroke-width: 1;"/>
        <path d="M 328.842 61.16 C 331.282 63.6 332.502 66.55 332.502 70 C 332.502 73.45 331.282 76.39 328.842 78.84 C 326.392 81.28 323.452 82.5 320.002 82.5 C 316.562 82.5 313.622 81.28 311.172 78.84 C 308.722 76.39 307.502 73.45 307.502 70 C 307.502 66.55 308.722 63.6 311.172 61.16 C 313.622 58.72 316.562 57.5 320.002 57.5 C 323.452 57.5 326.392 58.72 328.842 61.16" fill-rule="evenodd" stroke="none" style="stroke-width: 1;"/>
        <path d="M 378.84 61.16 C 381.28 63.6 382.5 66.55 382.5 70 C 382.5 73.45 381.28 76.39 378.84 78.84 C 376.39 81.28 373.45 82.5 370 82.5 C 366.56 82.5 363.62 81.28 361.17 78.84 C 358.72 76.39 357.5 73.45 357.5 70 C 357.5 66.55 358.72 63.6 361.17 61.16 C 363.62 58.72 366.56 57.5 370 57.5 C 373.45 57.5 376.39 58.72 378.84 61.16" fill-rule="evenodd" stroke="none" style="stroke-width: 1;"/>
        <path d="M 428.84 61.16 C 431.28 63.6 432.5 66.55 432.5 70 C 432.5 73.45 431.28 76.39 428.84 78.84 C 426.39 81.28 423.45 82.5 420 82.5 C 416.56 82.5 413.62 81.28 411.17 78.84 C 408.72 76.39 407.5 73.45 407.5 70 C 407.5 66.55 408.72 63.6 411.17 61.16 C 413.62 58.72 416.56 57.5 420 57.5 C 423.45 57.5 426.39 58.72 428.84 61.16" fill-rule="evenodd" stroke="none" style="stroke-width: 1;"/>
        <path d="M 478.84 61.16 C 481.28 63.6 482.5 66.55 482.5 70 C 482.5 73.45 481.28 76.39 478.84 78.84 C 476.39 81.28 473.45 82.5 470 82.5 C 466.56 82.5 463.62 81.28 461.17 78.84 C 458.72 76.39 457.5 73.45 457.5 70 C 457.5 66.55 458.72 63.6 461.17 61.16 C 463.62 58.72 466.56 57.5 470 57.5 C 473.45 57.5 476.39 58.72 478.84 61.16" fill-rule="evenodd" stroke="none" style="stroke-width: 1;"/>
        <path d="M 528.84 61.16 C 531.28 63.6 532.5 66.55 532.5 70 C 532.5 73.45 531.28 76.39 528.84 78.84 C 526.39 81.28 523.45 82.5 520 82.5 C 516.56 82.5 513.62 81.28 511.17 78.84 C 508.72 76.39 507.5 73.45 507.5 70 C 507.5 66.55 508.72 63.6 511.17 61.16 C 513.62 58.72 516.56 57.5 520 57.5 C 523.45 57.5 526.39 58.72 528.84 61.16" fill-rule="evenodd" stroke="none" style="stroke-width: 1;"/>
        <path d="M 28.842 111.16 C 31.282 113.6 32.502 116.55 32.502 120 C 32.502 123.45 31.282 126.39 28.842 128.84 C 26.392 131.28 23.452 132.5 20.002 132.5 C 16.562 132.5 13.622 131.28 11.172 128.84 C 8.722 126.39 7.502 123.45 7.502 120 C 7.502 116.55 8.722 113.6 11.172 111.16 C 13.622 108.72 16.562 107.5 20.002 107.5 C 23.452 107.5 26.392 108.72 28.842 111.16" fill-rule="evenodd" stroke="none" style="stroke-width: 1;"/>
        <path d="M 78.842 111.16 C 81.282 113.6 82.502 116.55 82.502 120 C 82.502 123.45 81.282 126.39 78.842 128.84 C 76.392 131.28 73.452 132.5 70.002 132.5 C 66.562 132.5 63.622 131.28 61.172 128.84 C 58.722 126.39 57.502 123.45 57.502 120 C 57.502 116.55 58.722 113.6 61.172 111.16 C 63.622 108.72 66.562 107.5 70.002 107.5 C 73.452 107.5 76.392 108.72 78.842 111.16" fill-rule="evenodd" stroke="none" style="stroke-width: 1;"/>
        <path d="M 128.842 111.16 C 131.282 113.6 132.502 116.55 132.502 120 C 132.502 123.45 131.282 126.39 128.842 128.84 C 126.392 131.28 123.452 132.5 120.002 132.5 C 116.562 132.5 113.622 131.28 111.172 128.84 C 108.722 126.39 107.502 123.45 107.502 120 C 107.502 116.55 108.722 113.6 111.172 111.16 C 113.622 108.72 116.562 107.5 120.002 107.5 C 123.452 107.5 126.392 108.72 128.842 111.16" fill-rule="evenodd" stroke="none" style="stroke-width: 1;"/>
        <path d="M 178.842 111.16 C 181.282 113.6 182.502 116.55 182.502 120 C 182.502 123.45 181.282 126.39 178.842 128.84 C 176.392 131.28 173.452 132.5 170.002 132.5 C 166.562 132.5 163.622 131.28 161.172 128.84 C 158.722 126.39 157.502 123.45 157.502 120 C 157.502 116.55 158.722 113.6 161.172 111.16 C 163.622 108.72 166.562 107.5 170.002 107.5 C 173.452 107.5 176.392 108.72 178.842 111.16" fill-rule="evenodd" stroke="none" style="stroke-width: 1;"/>
        <path d="M 228.842 111.16 C 231.282 113.6 232.502 116.55 232.502 120 C 232.502 123.45 231.282 126.39 228.842 128.84 C 226.392 131.28 223.452 132.5 220.002 132.5 C 216.562 132.5 213.622 131.28 211.172 128.84 C 208.722 126.39 207.502 123.45 207.502 120 C 207.502 116.55 208.722 113.6 211.172 111.16 C 213.622 108.72 216.562 107.5 220.002 107.5 C 223.452 107.5 226.392 108.72 228.842 111.16" fill-rule="evenodd" stroke="none" style="stroke-width: 1;"/>
        <path d="M 278.842 111.16 C 281.282 113.6 282.502 116.55 282.502 120 C 282.502 123.45 281.282 126.39 278.842 128.84 C 276.392 131.28 273.452 132.5 270.002 132.5 C 266.562 132.5 263.622 131.28 261.172 128.84 C 258.722 126.39 257.502 123.45 257.502 120 C 257.502 116.55 258.722 113.6 261.172 111.16 C 263.622 108.72 266.562 107.5 270.002 107.5 C 273.452 107.5 276.392 108.72 278.842 111.16" fill-rule="evenodd" stroke="none" style="stroke-width: 1;"/>
        <path d="M 328.842 111.16 C 331.282 113.6 332.502 116.55 332.502 120 C 332.502 123.45 331.282 126.39 328.842 128.84 C 326.392 131.28 323.452 132.5 320.002 132.5 C 316.562 132.5 313.622 131.28 311.172 128.84 C 308.722 126.39 307.502 123.45 307.502 120 C 307.502 116.55 308.722 113.6 311.172 111.16 C 313.622 108.72 316.562 107.5 320.002 107.5 C 323.452 107.5 326.392 108.72 328.842 111.16" fill-rule="evenodd" stroke="none" style="stroke-width: 1;"/>
        <path d="M 378.84 111.16 C 381.28 113.6 382.5 116.55 382.5 120 C 382.5 123.45 381.28 126.39 378.84 128.84 C 376.39 131.28 373.45 132.5 370 132.5 C 366.56 132.5 363.62 131.28 361.17 128.84 C 358.72 126.39 357.5 123.45 357.5 120 C 357.5 116.55 358.72 113.6 361.17 111.16 C 363.62 108.72 366.56 107.5 370 107.5 C 373.45 107.5 376.39 108.72 378.84 111.16" fill-rule="evenodd" stroke="none" style="stroke-width: 1;"/>
        <path d="M 428.84 111.16 C 431.28 113.6 432.5 116.55 432.5 120 C 432.5 123.45 431.28 126.39 428.84 128.84 C 426.39 131.28 423.45 132.5 420 132.5 C 416.56 132.5 413.62 131.28 411.17 128.84 C 408.72 126.39 407.5 123.45 407.5 120 C 407.5 116.55 408.72 113.6 411.17 111.16 C 413.62 108.72 416.56 107.5 420 107.5 C 423.45 107.5 426.39 108.72 428.84 111.16" fill-rule="evenodd" stroke="none" style="stroke-width: 1;"/>
        <path d="M 478.84 111.16 C 481.28 113.6 482.5 116.55 482.5 120 C 482.5 123.45 481.28 126.39 478.84 128.84 C 476.39 131.28 473.45 132.5 470 132.5 C 466.56 132.5 463.62 131.28 461.17 128.84 C 458.72 126.39 457.5 123.45 457.5 120 C 457.5 116.55 458.72 113.6 461.17 111.16 C 463.62 108.72 466.56 107.5 470 107.5 C 473.45 107.5 476.39 108.72 478.84 111.16" fill-rule="evenodd" stroke="none" style="stroke-width: 1;"/>
        <path d="M 528.84 111.16 C 531.28 113.6 532.5 116.55 532.5 120 C 532.5 123.45 531.28 126.39 528.84 128.84 C 526.39 131.28 523.45 132.5 520 132.5 C 516.56 132.5 513.62 131.28 511.17 128.84 C 508.72 126.39 507.5 123.45 507.5 120 C 507.5 116.55 508.72 113.6 511.17 111.16 C 513.62 108.72 516.56 107.5 520 107.5 C 523.45 107.5 526.39 108.72 528.84 111.16" fill-rule="evenodd" stroke="none" style="stroke-width: 1;"/>
        <path d="M 28.842 161.16 C 31.282 163.6 32.502 166.55 32.502 170 C 32.502 173.45 31.282 176.39 28.842 178.84 C 26.392 181.28 23.452 182.5 20.002 182.5 C 16.562 182.5 13.622 181.28 11.172 178.84 C 8.722 176.39 7.502 173.45 7.502 170 C 7.502 166.55 8.722 163.6 11.172 161.16 C 13.622 158.72 16.562 157.5 20.002 157.5 C 23.452 157.5 26.392 158.72 28.842 161.16" fill-rule="evenodd" stroke="none" style="stroke-width: 1;"/>
        <path d="M 78.842 161.16 C 81.282 163.6 82.502 166.55 82.502 170 C 82.502 173.45 81.282 176.39 78.842 178.84 C 76.392 181.28 73.452 182.5 70.002 182.5 C 66.562 182.5 63.622 181.28 61.172 178.84 C 58.722 176.39 57.502 173.45 57.502 170 C 57.502 166.55 58.722 163.6 61.172 161.16 C 63.622 158.72 66.562 157.5 70.002 157.5 C 73.452 157.5 76.392 158.72 78.842 161.16" fill-rule="evenodd" stroke="none" style="stroke-width: 1;"/>
        <path d="M 128.842 161.16 C 131.282 163.6 132.502 166.55 132.502 170 C 132.502 173.45 131.282 176.39 128.842 178.84 C 126.392 181.28 123.452 182.5 120.002 182.5 C 116.562 182.5 113.622 181.28 111.172 178.84 C 108.722 176.39 107.502 173.45 107.502 170 C 107.502 166.55 108.722 163.6 111.172 161.16 C 113.622 158.72 116.562 157.5 120.002 157.5 C 123.452 157.5 126.392 158.72 128.842 161.16" fill-rule="evenodd" stroke="none" style="stroke-width: 1;"/>
        <path d="M 178.842 161.16 C 181.282 163.6 182.502 166.55 182.502 170 C 182.502 173.45 181.282 176.39 178.842 178.84 C 176.392 181.28 173.452 182.5 170.002 182.5 C 166.562 182.5 163.622 181.28 161.172 178.84 C 158.722 176.39 157.502 173.45 157.502 170 C 157.502 166.55 158.722 163.6 161.172 161.16 C 163.622 158.72 166.562 157.5 170.002 157.5 C 173.452 157.5 176.392 158.72 178.842 161.16" fill-rule="evenodd" stroke="none" style="stroke-width: 1;"/>
        <path d="M 228.842 161.16 C 231.282 163.6 232.502 166.55 232.502 170 C 232.502 173.45 231.282 176.39 228.842 178.84 C 226.392 181.28 223.452 182.5 220.002 182.5 C 216.562 182.5 213.622 181.28 211.172 178.84 C 208.722 176.39 207.502 173.45 207.502 170 C 207.502 166.55 208.722 163.6 211.172 161.16 C 213.622 158.72 216.562 157.5 220.002 157.5 C 223.452 157.5 226.392 158.72 228.842 161.16" fill-rule="evenodd" stroke="none" style="stroke-width: 1;"/>
        <path d="M 278.842 161.16 C 281.282 163.6 282.502 166.55 282.502 170 C 282.502 173.45 281.282 176.39 278.842 178.84 C 276.392 181.28 273.452 182.5 270.002 182.5 C 266.562 182.5 263.622 181.28 261.172 178.84 C 258.722 176.39 257.502 173.45 257.502 170 C 257.502 166.55 258.722 163.6 261.172 161.16 C 263.622 158.72 266.562 157.5 270.002 157.5 C 273.452 157.5 276.392 158.72 278.842 161.16" fill-rule="evenodd" stroke="none" style="stroke-width: 1;"/>
        <path d="M 328.842 161.16 C 331.282 163.6 332.502 166.55 332.502 170 C 332.502 173.45 331.282 176.39 328.842 178.84 C 326.392 181.28 323.452 182.5 320.002 182.5 C 316.562 182.5 313.622 181.28 311.172 178.84 C 308.722 176.39 307.502 173.45 307.502 170 C 307.502 166.55 308.722 163.6 311.172 161.16 C 313.622 158.72 316.562 157.5 320.002 157.5 C 323.452 157.5 326.392 158.72 328.842 161.16" fill-rule="evenodd" stroke="none" style="stroke-width: 1;"/>
        <path d="M 378.84 161.16 C 381.28 163.6 382.5 166.55 382.5 170 C 382.5 173.45 381.28 176.39 378.84 178.84 C 376.39 181.28 373.45 182.5 370 182.5 C 366.56 182.5 363.62 181.28 361.17 178.84 C 358.72 176.39 357.5 173.45 357.5 170 C 357.5 166.55 358.72 163.6 361.17 161.16 C 363.62 158.72 366.56 157.5 370 157.5 C 373.45 157.5 376.39 158.72 378.84 161.16" fill-rule="evenodd" stroke="none" style="stroke-width: 1;"/>
        <path d="M 428.84 161.16 C 431.28 163.6 432.5 166.55 432.5 170 C 432.5 173.45 431.28 176.39 428.84 178.84 C 426.39 181.28 423.45 182.5 420 182.5 C 416.56 182.5 413.62 181.28 411.17 178.84 C 408.72 176.39 407.5 173.45 407.5 170 C 407.5 166.55 408.72 163.6 411.17 161.16 C 413.62 158.72 416.56 157.5 420 157.5 C 423.45 157.5 426.39 158.72 428.84 161.16" fill-rule="evenodd" stroke="none" style="stroke-width: 1;"/>
        <path d="M 478.84 161.16 C 481.28 163.6 482.5 166.55 482.5 170 C 482.5 173.45 481.28 176.39 478.84 178.84 C 476.39 181.28 473.45 182.5 470 182.5 C 466.56 182.5 463.62 181.28 461.17 178.84 C 458.72 176.39 457.5 173.45 457.5 170 C 457.5 166.55 458.72 163.6 461.17 161.16 C 463.62 158.72 466.56 157.5 470 157.5 C 473.45 157.5 476.39 158.72 478.84 161.16" fill-rule="evenodd" stroke="none" style="stroke-width: 1;"/>
        <path d="M 528.84 161.16 C 531.28 163.6 532.5 166.55 532.5 170 C 532.5 173.45 531.28 176.39 528.84 178.84 C 526.39 181.28 523.45 182.5 520 182.5 C 516.56 182.5 513.62 181.28 511.17 178.84 C 508.72 176.39 507.5 173.45 507.5 170 C 507.5 166.55 508.72 163.6 511.17 161.16 C 513.62 158.72 516.56 157.5 520 157.5 C 523.45 157.5 526.39 158.72 528.84 161.16" fill-rule="evenodd" stroke="none" style="stroke-width: 1;"/>
        <path d="M 28.842 211.16 C 31.282 213.6 32.502 216.55 32.502 220 C 32.502 223.45 31.282 226.39 28.842 228.84 C 26.392 231.28 23.452 232.5 20.002 232.5 C 16.562 232.5 13.622 231.28 11.172 228.84 C 8.722 226.39 7.502 223.45 7.502 220 C 7.502 216.55 8.722 213.6 11.172 211.16 C 13.622 208.72 16.562 207.5 20.002 207.5 C 23.452 207.5 26.392 208.72 28.842 211.16" fill-rule="evenodd" stroke="none" style="stroke-width: 1;"/>
        <path d="M 78.842 211.16 C 81.282 213.6 82.502 216.55 82.502 220 C 82.502 223.45 81.282 226.39 78.842 228.84 C 76.392 231.28 73.452 232.5 70.002 232.5 C 66.562 232.5 63.622 231.28 61.172 228.84 C 58.722 226.39 57.502 223.45 57.502 220 C 57.502 216.55 58.722 213.6 61.172 211.16 C 63.622 208.72 66.562 207.5 70.002 207.5 C 73.452 207.5 76.392 208.72 78.842 211.16" fill-rule="evenodd" stroke="none" style="stroke-width: 1;"/>
        <path d="M 128.842 211.16 C 131.282 213.6 132.502 216.55 132.502 220 C 132.502 223.45 131.282 226.39 128.842 228.84 C 126.392 231.28 123.452 232.5 120.002 232.5 C 116.562 232.5 113.622 231.28 111.172 228.84 C 108.722 226.39 107.502 223.45 107.502 220 C 107.502 216.55 108.722 213.6 111.172 211.16 C 113.622 208.72 116.562 207.5 120.002 207.5 C 123.452 207.5 126.392 208.72 128.842 211.16" fill-rule="evenodd" stroke="none" style="stroke-width: 1;"/>
        <path d="M 178.842 211.16 C 181.282 213.6 182.502 216.55 182.502 220 C 182.502 223.45 181.282 226.39 178.842 228.84 C 176.392 231.28 173.452 232.5 170.002 232.5 C 166.562 232.5 163.622 231.28 161.172 228.84 C 158.722 226.39 157.502 223.45 157.502 220 C 157.502 216.55 158.722 213.6 161.172 211.16 C 163.622 208.72 166.562 207.5 170.002 207.5 C 173.452 207.5 176.392 208.72 178.842 211.16" fill-rule="evenodd" stroke="none" style="stroke-width: 1;"/>
        <path d="M 228.842 211.16 C 231.282 213.6 232.502 216.55 232.502 220 C 232.502 223.45 231.282 226.39 228.842 228.84 C 226.392 231.28 223.452 232.5 220.002 232.5 C 216.562 232.5 213.622 231.28 211.172 228.84 C 208.722 226.39 207.502 223.45 207.502 220 C 207.502 216.55 208.722 213.6 211.172 211.16 C 213.622 208.72 216.562 207.5 220.002 207.5 C 223.452 207.5 226.392 208.72 228.842 211.16" fill-rule="evenodd" stroke="none" style="stroke-width: 1;"/>
        <path d="M 278.842 211.16 C 281.282 213.6 282.502 216.55 282.502 220 C 282.502 223.45 281.282 226.39 278.842 228.84 C 276.392 231.28 273.452 232.5 270.002 232.5 C 266.562 232.5 263.622 231.28 261.172 228.84 C 258.722 226.39 257.502 223.45 257.502 220 C 257.502 216.55 258.722 213.6 261.172 211.16 C 263.622 208.72 266.562 207.5 270.002 207.5 C 273.452 207.5 276.392 208.72 278.842 211.16" fill-rule="evenodd" stroke="none" style="stroke-width: 1;"/>
        <path d="M 328.842 211.16 C 331.282 213.6 332.502 216.55 332.502 220 C 332.502 223.45 331.282 226.39 328.842 228.84 C 326.392 231.28 323.452 232.5 320.002 232.5 C 316.562 232.5 313.622 231.28 311.172 228.84 C 308.722 226.39 307.502 223.45 307.502 220 C 307.502 216.55 308.722 213.6 311.172 211.16 C 313.622 208.72 316.562 207.5 320.002 207.5 C 323.452 207.5 326.392 208.72 328.842 211.16" fill-rule="evenodd" stroke="none" style="stroke-width: 1;"/>
        <path d="M 378.84 211.16 C 381.28 213.6 382.5 216.55 382.5 220 C 382.5 223.45 381.28 226.39 378.84 228.84 C 376.39 231.28 373.45 232.5 370 232.5 C 366.56 232.5 363.62 231.28 361.17 228.84 C 358.72 226.39 357.5 223.45 357.5 220 C 357.5 216.55 358.72 213.6 361.17 211.16 C 363.62 208.72 366.56 207.5 370 207.5 C 373.45 207.5 376.39 208.72 378.84 211.16" fill-rule="evenodd" stroke="none" style="stroke-width: 1;"/>
        <path d="M 428.84 211.16 C 431.28 213.6 432.5 216.55 432.5 220 C 432.5 223.45 431.28 226.39 428.84 228.84 C 426.39 231.28 423.45 232.5 420 232.5 C 416.56 232.5 413.62 231.28 411.17 228.84 C 408.72 226.39 407.5 223.45 407.5 220 C 407.5 216.55 408.72 213.6 411.17 211.16 C 413.62 208.72 416.56 207.5 420 207.5 C 423.45 207.5 426.39 208.72 428.84 211.16" fill-rule="evenodd" stroke="none" style="stroke-width: 1;"/>
        <path d="M 478.84 211.16 C 481.28 213.6 482.5 216.55 482.5 220 C 482.5 223.45 481.28 226.39 478.84 228.84 C 476.39 231.28 473.45 232.5 470 232.5 C 466.56 232.5 463.62 231.28 461.17 228.84 C 458.72 226.39 457.5 223.45 457.5 220 C 457.5 216.55 458.72 213.6 461.17 211.16 C 463.62 208.72 466.56 207.5 470 207.5 C 473.45 207.5 476.39 208.72 478.84 211.16" fill-rule="evenodd" stroke="none" style="stroke-width: 1;"/>
        <path d="M 528.84 211.16 C 531.28 213.6 532.5 216.55 532.5 220 C 532.5 223.45 531.28 226.39 528.84 228.84 C 526.39 231.28 523.45 232.5 520 232.5 C 516.56 232.5 513.62 231.28 511.17 228.84 C 508.72 226.39 507.5 223.45 507.5 220 C 507.5 216.55 508.72 213.6 511.17 211.16 C 513.62 208.72 516.56 207.5 520 207.5 C 523.45 207.5 526.39 208.72 528.84 211.16" fill-rule="evenodd" stroke="none" style="stroke-width: 1;"/>
        <path d="M 28.842 261.16 C 31.282 263.6 32.502 266.55 32.502 270 C 32.502 273.45 31.282 276.39 28.842 278.84 C 26.392 281.28 23.452 282.5 20.002 282.5 C 16.562 282.5 13.622 281.28 11.172 278.84 C 8.722 276.39 7.502 273.45 7.502 270 C 7.502 266.55 8.722 263.6 11.172 261.16 C 13.622 258.72 16.562 257.5 20.002 257.5 C 23.452 257.5 26.392 258.72 28.842 261.16" fill-rule="evenodd" stroke="none" style="stroke-width: 1;"/>
        <path d="M 78.842 261.16 C 81.282 263.6 82.502 266.55 82.502 270 C 82.502 273.45 81.282 276.39 78.842 278.84 C 76.392 281.28 73.452 282.5 70.002 282.5 C 66.562 282.5 63.622 281.28 61.172 278.84 C 58.722 276.39 57.502 273.45 57.502 270 C 57.502 266.55 58.722 263.6 61.172 261.16 C 63.622 258.72 66.562 257.5 70.002 257.5 C 73.452 257.5 76.392 258.72 78.842 261.16" fill-rule="evenodd" stroke="none" style="stroke-width: 1;"/>
        <path d="M 128.842 261.16 C 131.282 263.6 132.502 266.55 132.502 270 C 132.502 273.45 131.282 276.39 128.842 278.84 C 126.392 281.28 123.452 282.5 120.002 282.5 C 116.562 282.5 113.622 281.28 111.172 278.84 C 108.722 276.39 107.502 273.45 107.502 270 C 107.502 266.55 108.722 263.6 111.172 261.16 C 113.622 258.72 116.562 257.5 120.002 257.5 C 123.452 257.5 126.392 258.72 128.842 261.16" fill-rule="evenodd" stroke="none" style="stroke-width: 1;"/>
        <path d="M 178.842 261.16 C 181.282 263.6 182.502 266.55 182.502 270 C 182.502 273.45 181.282 276.39 178.842 278.84 C 176.392 281.28 173.452 282.5 170.002 282.5 C 166.562 282.5 163.622 281.28 161.172 278.84 C 158.722 276.39 157.502 273.45 157.502 270 C 157.502 266.55 158.722 263.6 161.172 261.16 C 163.622 258.72 166.562 257.5 170.002 257.5 C 173.452 257.5 176.392 258.72 178.842 261.16" fill-rule="evenodd" stroke="none" style="stroke-width: 1;"/>
        <path d="M 228.842 261.16 C 231.282 263.6 232.502 266.55 232.502 270 C 232.502 273.45 231.282 276.39 228.842 278.84 C 226.392 281.28 223.452 282.5 220.002 282.5 C 216.562 282.5 213.622 281.28 211.172 278.84 C 208.722 276.39 207.502 273.45 207.502 270 C 207.502 266.55 208.722 263.6 211.172 261.16 C 213.622 258.72 216.562 257.5 220.002 257.5 C 223.452 257.5 226.392 258.72 228.842 261.16" fill-rule="evenodd" stroke="none" style="stroke-width: 1;"/>
        <path d="M 278.842 261.16 C 281.282 263.6 282.502 266.55 282.502 270 C 282.502 273.45 281.282 276.39 278.842 278.84 C 276.392 281.28 273.452 282.5 270.002 282.5 C 266.562 282.5 263.622 281.28 261.172 278.84 C 258.722 276.39 257.502 273.45 257.502 270 C 257.502 266.55 258.722 263.6 261.172 261.16 C 263.622 258.72 266.562 257.5 270.002 257.5 C 273.452 257.5 276.392 258.72 278.842 261.16" fill-rule="evenodd" stroke="none" style="stroke-width: 1;"/>
        <path d="M 328.842 261.16 C 331.282 263.6 332.502 266.55 332.502 270 C 332.502 273.45 331.282 276.39 328.842 278.84 C 326.392 281.28 323.452 282.5 320.002 282.5 C 316.562 282.5 313.622 281.28 311.172 278.84 C 308.722 276.39 307.502 273.45 307.502 270 C 307.502 266.55 308.722 263.6 311.172 261.16 C 313.622 258.72 316.562 257.5 320.002 257.5 C 323.452 257.5 326.392 258.72 328.842 261.16" fill-rule="evenodd" stroke="none" style="stroke-width: 1;"/>
        <path d="M 378.84 261.16 C 381.28 263.6 382.5 266.55 382.5 270 C 382.5 273.45 381.28 276.39 378.84 278.84 C 376.39 281.28 373.45 282.5 370 282.5 C 366.56 282.5 363.62 281.28 361.17 278.84 C 358.72 276.39 357.5 273.45 357.5 270 C 357.5 266.55 358.72 263.6 361.17 261.16 C 363.62 258.72 366.56 257.5 370 257.5 C 373.45 257.5 376.39 258.72 378.84 261.16" fill-rule="evenodd" stroke="none" style="stroke-width: 1;"/>
        <path d="M 428.84 261.16 C 431.28 263.6 432.5 266.55 432.5 270 C 432.5 273.45 431.28 276.39 428.84 278.84 C 426.39 281.28 423.45 282.5 420 282.5 C 416.56 282.5 413.62 281.28 411.17 278.84 C 408.72 276.39 407.5 273.45 407.5 270 C 407.5 266.55 408.72 263.6 411.17 261.16 C 413.62 258.72 416.56 257.5 420 257.5 C 423.45 257.5 426.39 258.72 428.84 261.16" fill-rule="evenodd" stroke="none" style="stroke-width: 1;"/>
        <path d="M 478.84 261.16 C 481.28 263.6 482.5 266.55 482.5 270 C 482.5 273.45 481.28 276.39 478.84 278.84 C 476.39 281.28 473.45 282.5 470 282.5 C 466.56 282.5 463.62 281.28 461.17 278.84 C 458.72 276.39 457.5 273.45 457.5 270 C 457.5 266.55 458.72 263.6 461.17 261.16 C 463.62 258.72 466.56 257.5 470 257.5 C 473.45 257.5 476.39 258.72 478.84 261.16" fill-rule="evenodd" stroke="none" style="stroke-width: 1;"/>
        <path d="M 528.84 261.16 C 531.28 263.6 532.5 266.55 532.5 270 C 532.5 273.45 531.28 276.39 528.84 278.84 C 526.39 281.28 523.45 282.5 520 282.5 C 516.56 282.5 513.62 281.28 511.17 278.84 C 508.72 276.39 507.5 273.45 507.5 270 C 507.5 266.55 508.72 263.6 511.17 261.16 C 513.62 258.72 516.56 257.5 520 257.5 C 523.45 257.5 526.39 258.72 528.84 261.16" fill-rule="evenodd" stroke="none" style="stroke-width: 1;"/>
        <path d="M 28.842 311.16 C 31.282 313.6 32.502 316.55 32.502 320 C 32.502 323.45 31.282 326.39 28.842 328.84 C 26.392 331.28 23.452 332.5 20.002 332.5 C 16.562 332.5 13.622 331.28 11.172 328.84 C 8.722 326.39 7.502 323.45 7.502 320 C 7.502 316.55 8.722 313.6 11.172 311.16 C 13.622 308.72 16.562 307.5 20.002 307.5 C 23.452 307.5 26.392 308.72 28.842 311.16" fill-rule="evenodd" stroke="none" style="stroke-width: 1;"/>
        <path d="M 78.842 311.16 C 81.282 313.6 82.502 316.55 82.502 320 C 82.502 323.45 81.282 326.39 78.842 328.84 C 76.392 331.28 73.452 332.5 70.002 332.5 C 66.562 332.5 63.622 331.28 61.172 328.84 C 58.722 326.39 57.502 323.45 57.502 320 C 57.502 316.55 58.722 313.6 61.172 311.16 C 63.622 308.72 66.562 307.5 70.002 307.5 C 73.452 307.5 76.392 308.72 78.842 311.16" fill-rule="evenodd" stroke="none" style="stroke-width: 1;"/>
        <path d="M 128.842 311.16 C 131.282 313.6 132.502 316.55 132.502 320 C 132.502 323.45 131.282 326.39 128.842 328.84 C 126.392 331.28 123.452 332.5 120.002 332.5 C 116.562 332.5 113.622 331.28 111.172 328.84 C 108.722 326.39 107.502 323.45 107.502 320 C 107.502 316.55 108.722 313.6 111.172 311.16 C 113.622 308.72 116.562 307.5 120.002 307.5 C 123.452 307.5 126.392 308.72 128.842 311.16" fill-rule="evenodd" stroke="none" style="stroke-width: 1;"/>
        <path d="M 178.842 311.16 C 181.282 313.6 182.502 316.55 182.502 320 C 182.502 323.45 181.282 326.39 178.842 328.84 C 176.392 331.28 173.452 332.5 170.002 332.5 C 166.562 332.5 163.622 331.28 161.172 328.84 C 158.722 326.39 157.502 323.45 157.502 320 C 157.502 316.55 158.722 313.6 161.172 311.16 C 163.622 308.72 166.562 307.5 170.002 307.5 C 173.452 307.5 176.392 308.72 178.842 311.16" fill-rule="evenodd" stroke="none" style="stroke-width: 1;"/>
        <path d="M 228.842 311.16 C 231.282 313.6 232.502 316.55 232.502 320 C 232.502 323.45 231.282 326.39 228.842 328.84 C 226.392 331.28 223.452 332.5 220.002 332.5 C 216.562 332.5 213.622 331.28 211.172 328.84 C 208.722 326.39 207.502 323.45 207.502 320 C 207.502 316.55 208.722 313.6 211.172 311.16 C 213.622 308.72 216.562 307.5 220.002 307.5 C 223.452 307.5 226.392 308.72 228.842 311.16" fill-rule="evenodd" stroke="none" style="stroke-width: 1;"/>
        <path d="M 278.842 311.16 C 281.282 313.6 282.502 316.55 282.502 320 C 282.502 323.45 281.282 326.39 278.842 328.84 C 276.392 331.28 273.452 332.5 270.002 332.5 C 266.562 332.5 263.622 331.28 261.172 328.84 C 258.722 326.39 257.502 323.45 257.502 320 C 257.502 316.55 258.722 313.6 261.172 311.16 C 263.622 308.72 266.562 307.5 270.002 307.5 C 273.452 307.5 276.392 308.72 278.842 311.16" fill-rule="evenodd" stroke="none" style="stroke-width: 1;"/>
        <path d="M 328.842 311.16 C 331.282 313.6 332.502 316.55 332.502 320 C 332.502 323.45 331.282 326.39 328.842 328.84 C 326.392 331.28 323.452 332.5 320.002 332.5 C 316.562 332.5 313.622 331.28 311.172 328.84 C 308.722 326.39 307.502 323.45 307.502 320 C 307.502 316.55 308.722 313.6 311.172 311.16 C 313.622 308.72 316.562 307.5 320.002 307.5 C 323.452 307.5 326.392 308.72 328.842 311.16" fill-rule="evenodd" stroke="none" style="stroke-width: 1;"/>
        <path d="M 378.84 311.16 C 381.28 313.6 382.5 316.55 382.5 320 C 382.5 323.45 381.28 326.39 378.84 328.84 C 376.39 331.28 373.45 332.5 370 332.5 C 366.56 332.5 363.62 331.28 361.17 328.84 C 358.72 326.39 357.5 323.45 357.5 320 C 357.5 316.55 358.72 313.6 361.17 311.16 C 363.62 308.72 366.56 307.5 370 307.5 C 373.45 307.5 376.39 308.72 378.84 311.16" fill-rule="evenodd" stroke="none" style="stroke-width: 1;"/>
        <path d="M 428.84 311.16 C 431.28 313.6 432.5 316.55 432.5 320 C 432.5 323.45 431.28 326.39 428.84 328.84 C 426.39 331.28 423.45 332.5 420 332.5 C 416.56 332.5 413.62 331.28 411.17 328.84 C 408.72 326.39 407.5 323.45 407.5 320 C 407.5 316.55 408.72 313.6 411.17 311.16 C 413.62 308.72 416.56 307.5 420 307.5 C 423.45 307.5 426.39 308.72 428.84 311.16" fill-rule="evenodd" stroke="none" style="stroke-width: 1;"/>
        <path d="M 478.84 311.16 C 481.28 313.6 482.5 316.55 482.5 320 C 482.5 323.45 481.28 326.39 478.84 328.84 C 476.39 331.28 473.45 332.5 470 332.5 C 466.56 332.5 463.62 331.28 461.17 328.84 C 458.72 326.39 457.5 323.45 457.5 320 C 457.5 316.55 458.72 313.6 461.17 311.16 C 463.62 308.72 466.56 307.5 470 307.5 C 473.45 307.5 476.39 308.72 478.84 311.16" fill-rule="evenodd" stroke="none" style="stroke-width: 1;"/>
        <path d="M 528.84 311.16 C 531.28 313.6 532.5 316.55 532.5 320 C 532.5 323.45 531.28 326.39 528.84 328.84 C 526.39 331.28 523.45 332.5 520 332.5 C 516.56 332.5 513.62 331.28 511.17 328.84 C 508.72 326.39 507.5 323.45 507.5 320 C 507.5 316.55 508.72 313.6 511.17 311.16 C 513.62 308.72 516.56 307.5 520 307.5 C 523.45 307.5 526.39 308.72 528.84 311.16" fill-rule="evenodd" stroke="none" style="stroke-width: 1;"/>
        <path d="M 28.842 361.16 C 31.282 363.6 32.502 366.55 32.502 370 C 32.502 373.45 31.282 376.39 28.842 378.84 C 26.392 381.28 23.452 382.5 20.002 382.5 C 16.562 382.5 13.622 381.28 11.172 378.84 C 8.722 376.39 7.502 373.45 7.502 370 C 7.502 366.55 8.722 363.6 11.172 361.16 C 13.622 358.72 16.562 357.5 20.002 357.5 C 23.452 357.5 26.392 358.72 28.842 361.16" fill-rule="evenodd" stroke="none" style="stroke-width: 1;"/>
        <path d="M 78.842 361.16 C 81.282 363.6 82.502 366.55 82.502 370 C 82.502 373.45 81.282 376.39 78.842 378.84 C 76.392 381.28 73.452 382.5 70.002 382.5 C 66.562 382.5 63.622 381.28 61.172 378.84 C 58.722 376.39 57.502 373.45 57.502 370 C 57.502 366.55 58.722 363.6 61.172 361.16 C 63.622 358.72 66.562 357.5 70.002 357.5 C 73.452 357.5 76.392 358.72 78.842 361.16" fill-rule="evenodd" stroke="none" style="stroke-width: 1;"/>
        <path d="M 128.842 361.16 C 131.282 363.6 132.502 366.55 132.502 370 C 132.502 373.45 131.282 376.39 128.842 378.84 C 126.392 381.28 123.452 382.5 120.002 382.5 C 116.562 382.5 113.622 381.28 111.172 378.84 C 108.722 376.39 107.502 373.45 107.502 370 C 107.502 366.55 108.722 363.6 111.172 361.16 C 113.622 358.72 116.562 357.5 120.002 357.5 C 123.452 357.5 126.392 358.72 128.842 361.16" fill-rule="evenodd" stroke="none" style="stroke-width: 1;"/>
        <path d="M 178.842 361.16 C 181.282 363.6 182.502 366.55 182.502 370 C 182.502 373.45 181.282 376.39 178.842 378.84 C 176.392 381.28 173.452 382.5 170.002 382.5 C 166.562 382.5 163.622 381.28 161.172 378.84 C 158.722 376.39 157.502 373.45 157.502 370 C 157.502 366.55 158.722 363.6 161.172 361.16 C 163.622 358.72 166.562 357.5 170.002 357.5 C 173.452 357.5 176.392 358.72 178.842 361.16" fill-rule="evenodd" stroke="none" style="stroke-width: 1;"/>
        <path d="M 228.842 361.16 C 231.282 363.6 232.502 366.55 232.502 370 C 232.502 373.45 231.282 376.39 228.842 378.84 C 226.392 381.28 223.452 382.5 220.002 382.5 C 216.562 382.5 213.622 381.28 211.172 378.84 C 208.722 376.39 207.502 373.45 207.502 370 C 207.502 366.55 208.722 363.6 211.172 361.16 C 213.622 358.72 216.562 357.5 220.002 357.5 C 223.452 357.5 226.392 358.72 228.842 361.16" fill-rule="evenodd" stroke="none" style="stroke-width: 1;"/>
        <path d="M 278.842 361.16 C 281.282 363.6 282.502 366.55 282.502 370 C 282.502 373.45 281.282 376.39 278.842 378.84 C 276.392 381.28 273.452 382.5 270.002 382.5 C 266.562 382.5 263.622 381.28 261.172 378.84 C 258.722 376.39 257.502 373.45 257.502 370 C 257.502 366.55 258.722 363.6 261.172 361.16 C 263.622 358.72 266.562 357.5 270.002 357.5 C 273.452 357.5 276.392 358.72 278.842 361.16" fill-rule="evenodd" stroke="none" style="stroke-width: 1;"/>
        <path d="M 328.842 361.16 C 331.282 363.6 332.502 366.55 332.502 370 C 332.502 373.45 331.282 376.39 328.842 378.84 C 326.392 381.28 323.452 382.5 320.002 382.5 C 316.562 382.5 313.622 381.28 311.172 378.84 C 308.722 376.39 307.502 373.45 307.502 370 C 307.502 366.55 308.722 363.6 311.172 361.16 C 313.622 358.72 316.562 357.5 320.002 357.5 C 323.452 357.5 326.392 358.72 328.842 361.16" fill-rule="evenodd" stroke="none" style="stroke-width: 1;"/>
        <path d="M 378.84 361.16 C 381.28 363.6 382.5 366.55 382.5 370 C 382.5 373.45 381.28 376.39 378.84 378.84 C 376.39 381.28 373.45 382.5 370 382.5 C 366.56 382.5 363.62 381.28 361.17 378.84 C 358.72 376.39 357.5 373.45 357.5 370 C 357.5 366.55 358.72 363.6 361.17 361.16 C 363.62 358.72 366.56 357.5 370 357.5 C 373.45 357.5 376.39 358.72 378.84 361.16" fill-rule="evenodd" stroke="none" style="stroke-width: 1;"/>
        <path d="M 428.84 361.16 C 431.28 363.6 432.5 366.55 432.5 370 C 432.5 373.45 431.28 376.39 428.84 378.84 C 426.39 381.28 423.45 382.5 420 382.5 C 416.56 382.5 413.62 381.28 411.17 378.84 C 408.72 376.39 407.5 373.45 407.5 370 C 407.5 366.55 408.72 363.6 411.17 361.16 C 413.62 358.72 416.56 357.5 420 357.5 C 423.45 357.5 426.39 358.72 428.84 361.16" fill-rule="evenodd" stroke="none" style="stroke-width: 1;"/>
        <path d="M 478.84 361.16 C 481.28 363.6 482.5 366.55 482.5 370 C 482.5 373.45 481.28 376.39 478.84 378.84 C 476.39 381.28 473.45 382.5 470 382.5 C 466.56 382.5 463.62 381.28 461.17 378.84 C 458.72 376.39 457.5 373.45 457.5 370 C 457.5 366.55 458.72 363.6 461.17 361.16 C 463.62 358.72 466.56 357.5 470 357.5 C 473.45 357.5 476.39 358.72 478.84 361.16" fill-rule="evenodd" stroke="none" style="stroke-width: 1;"/>
        <path d="M 528.84 361.16 C 531.28 363.6 532.5 366.55 532.5 370 C 532.5 373.45 531.28 376.39 528.84 378.84 C 526.39 381.28 523.45 382.5 520 382.5 C 516.56 382.5 513.62 381.28 511.17 378.84 C 508.72 376.39 507.5 373.45 507.5 370 C 507.5 366.55 508.72 363.6 511.17 361.16 C 513.62 358.72 516.56 357.5 520 357.5 C 523.45 357.5 526.39 358.72 528.84 361.16" fill-rule="evenodd" stroke="none" style="stroke-width: 1;"/>
      </g>
    </mask>
  </defs>
  <g transform="matrix(21.153900146484375, 0, 0, 19.277099609375, 275.0002136230469, 199.49998474121094)" style="mask: url(&quot;#mask-0&quot;);">
    <path d="M-13.0 -10.35 L13.0 -10.35 13.0 10.4 -13.0 10.4 -13.0 -10.35" fill-rule="evenodd" stroke="none" style=""/>
  </g>
</svg>