<?xml version="1.0" encoding="UTF-8" standalone="no"?>
<svg xmlns:ffdec="https://www.free-decompiler.com/flash" xmlns:xlink="http://www.w3.org/1999/xlink" ffdec:objectType="shape" height="406.1px" width="558.05px" xmlns="http://www.w3.org/2000/svg">
  <g transform="matrix(1.0, 0.0, 0.0, 1.0, 3.05, 0.0)">
    <path d="M549.85 0.0 L549.85 152.75 -0.05 152.75 -0.05 0.0 549.85 0.0" fill="url(#gradient0)" fill-rule="evenodd" stroke="none"/>
    <path d="M518.3 66.55 Q531.45 64.0 537.7 62.25 547.75 63.55 555.0 65.4 L555.0 75.15 554.95 75.25 555.0 75.3 555.0 95.5 553.2 95.5 474.6 92.4 424.2 89.0 Q423.95 88.5 423.95 86.0 423.95 83.35 431.6 80.9 435.95 79.55 449.95 76.5 460.7 74.2 465.25 72.1 467.6 71.0 471.7 71.0 473.9 71.0 474.3 72.65 474.85 74.75 475.2 75.0 L478.05 73.95 Q479.95 73.25 481.45 73.25 487.55 73.25 490.15 71.25 492.7 69.25 500.2 69.25 504.2 69.25 518.3 66.55 M517.25 72.2 Q513.5 74.05 508.45 73.0 L506.2 73.5 515.2 74.25 Q518.7 74.25 522.7 73.25 521.35 71.25 521.95 69.5 L517.25 72.2" fill="url(#gradient1)" fill-rule="evenodd" stroke="none"/>
    <path d="M324.55 37.8 Q316.5 40.75 304.75 40.75 L294.85 40.05 290.4 38.5 Q283.1 36.1 253.75 35.75 L241.4 33.9 Q229.55 32.0 220.65 32.0 L209.1 32.7 195.25 34.0 195.5 34.65 195.75 36.75 Q195.75 40.8 189.25 45.75 181.4 51.75 170.75 51.75 153.7 51.75 150.5 48.0 149.3 46.65 149.35 44.1 L149.4 39.5 Q147.65 38.25 144.0 36.55 140.7 35.0 140.25 35.0 132.5 35.0 129.6 37.05 128.5 37.8 126.5 41.5 124.8 44.55 121.0 45.95 115.45 48.0 103.2 48.0 101.65 48.0 85.1 52.4 68.55 56.75 61.95 56.75 45.15 56.75 32.7 54.0 12.35 49.5 18.7 39.25 L18.95 39.0 Q6.6 34.9 3.25 32.75 -0.05 30.6 -0.05 26.85 -0.05 22.6 12.8 12.25 17.3 8.65 20.3 6.4 20.95 3.95 23.1 2.35 25.85 0.3 29.95 0.4 34.0 0.55 36.85 2.75 L38.9 4.95 49.85 6.75 Q74.85 10.75 81.7 10.75 106.3 10.75 123.15 7.8 L145.3 2.45 Q156.2 -0.3 167.45 0.05 182.35 0.55 208.75 6.0 L254.75 9.8 294.8 13.75 Q333.75 18.8 333.75 28.5 333.75 34.45 324.55 37.8" fill="url(#gradient2)" fill-rule="evenodd" stroke="none"/>
    <path d="M340.7 94.9 Q349.4 94.05 351.25 100.0 352.9 104.7 356.8 107.85 359.75 110.25 359.75 114.1 359.75 115.35 358.75 118.8 357.75 122.25 357.75 123.5 357.75 125.8 355.6 125.65 353.4 125.45 347.3 125.75 341.2 126.05 339.4 124.25 L336.85 121.65 Q335.15 119.75 331.9 119.75 L324.35 121.75 Q317.65 123.75 315.75 123.75 311.35 123.75 309.15 121.9 307.7 120.0 307.0 120.0 306.2 120.0 301.1 121.9 296.0 123.75 293.75 123.75 287.45 123.75 285.0 120.0 283.75 118.1 283.75 115.85 283.75 108.45 305.0 101.85 315.65 98.55 326.5 96.75 330.45 97.0 340.7 94.9" fill="url(#gradient3)" fill-rule="evenodd" stroke="none"/>
    <path d="M174.1 76.4 Q177.05 76.4 183.15 83.9 186.15 87.65 188.6 91.4 188.6 96.25 184.9 98.15 180.5 100.4 168.1 100.4 163.6 100.4 159.6 98.8 155.55 97.15 143.25 97.15 L104.05 100.3 71.15 103.4 Q63.5 103.4 60.9 99.65 59.65 97.85 59.65 94.4 59.65 87.5 68.6 82.9 76.5 78.85 93.65 75.65 118.25 72.9 125.2 75.55 L131.2 77.9 Q135.75 79.15 144.35 79.15 L166.0 77.8 174.1 76.4" fill="url(#gradient4)" fill-rule="evenodd" stroke="none"/>
    <path d="M554.9 238.15 L555.0 238.45 555.0 257.8 554.05 258.6 Q546.2 250.85 544.5 240.15 L546.4 238.95 546.2 237.8 Q545.2 233.6 541.3 231.4 547.8 226.6 553.05 234.75 L553.2 235.0 554.9 238.15 M459.25 253.75 L460.65 249.3 Q461.55 246.35 464.2 246.75 L464.45 247.55 Q466.7 255.35 460.65 258.25 L459.95 258.5 459.25 253.75 M467.45 247.35 L467.9 245.6 496.7 245.75 499.8 249.65 Q505.0 262.0 501.35 274.75 L498.75 274.75 Q494.9 269.4 484.25 260.2 472.6 250.15 467.45 247.35 M502.5 242.35 L481.4 234.3 Q481.4 224.55 494.0 228.05 515.8 234.15 537.45 229.75 L538.75 230.4 532.45 234.25 539.7 256.15 539.7 257.7 539.2 259.5 Q528.0 264.3 519.85 255.05 L518.55 253.95 Q516.9 250.4 512.55 246.8 507.45 242.6 502.5 242.35 M159.95 241.7 Q170.8 245.1 182.3 246.9 203.45 250.6 225.0 250.25 246.85 249.85 268.45 252.6 L268.7 254.35 270.7 254.95 Q266.65 265.3 270.25 276.0 L285.0 275.0 285.25 280.6 282.1 281.75 282.25 283.95 284.35 285.5 Q278.5 294.0 267.5 295.6 245.8 298.2 223.9 295.85 205.35 284.95 187.3 273.45 184.65 271.75 181.2 271.8 L179.75 271.0 Q175.45 268.75 172.25 265.95 L171.95 265.65 Q168.3 253.15 160.85 242.75 L159.95 241.7 M278.95 247.35 L277.0 244.75 277.2 244.4 Q293.3 233.0 310.55 242.6 L313.4 256.2 317.0 266.0 310.4 271.45 Q292.75 265.8 281.2 249.95 L282.25 248.5 278.95 247.35 M161.0 344.45 Q134.85 346.9 132.4 320.45 113.05 314.7 92.9 315.8 71.9 317.35 51.9 323.15 46.2 324.85 41.8 318.8 33.0 306.8 17.75 308.1 4.55 309.0 -3.05 303.65 L-3.05 262.85 Q17.2 260.95 37.45 264.5 53.55 267.1 65.4 278.25 118.1 257.25 163.3 282.1 165.35 303.85 157.45 324.05 153.75 333.55 153.5 343.8 L161.0 344.45" fill="#dfa688" fill-rule="evenodd" stroke="none"/>
    <path d="M503.55 168.35 L504.95 169.1 Q519.2 176.2 530.2 187.5 L529.65 190.7 531.5 191.05 531.5 191.3 Q544.65 192.85 550.65 204.15 L550.8 204.6 552.1 208.25 555.0 215.0 555.0 238.45 554.9 238.15 554.1 234.75 Q553.75 233.1 552.95 231.9 548.25 224.7 540.7 220.7 L540.55 213.65 540.15 210.9 539.05 203.6 538.6 203.15 Q526.35 199.55 519.2 191.0 L522.2 187.0 Q507.4 180.65 499.75 166.4 L500.45 166.45 Q500.4 167.3 500.95 167.5 502.0 168.1 503.35 168.25 L503.55 168.35 M317.45 190.7 L317.55 191.55 Q318.25 209.2 338.75 215.15 L338.9 215.25 339.5 215.75 340.1 216.25 Q349.6 224.15 346.75 236.15 357.45 271.65 362.25 285.5 352.5 283.9 338.0 269.95 L334.1 265.8 Q326.5 265.15 321.65 270.45 335.35 287.45 309.9 293.5 295.15 297.2 284.35 285.5 L282.25 283.95 282.1 281.75 285.25 280.6 285.0 275.0 270.25 276.0 Q266.65 265.3 270.7 254.95 L268.7 254.35 268.45 252.6 Q268.45 250.45 271.55 248.9 274.6 247.35 278.95 247.35 L282.25 248.5 281.2 249.95 Q292.75 265.8 310.4 271.45 L317.0 266.0 313.4 256.2 310.55 242.6 Q322.85 236.3 337.25 235.0 332.35 233.95 329.35 230.15 316.25 213.4 303.8 195.8 L306.5 193.5 301.1 192.55 Q293.7 183.8 283.15 183.85 L282.05 184.45 Q266.7 190.1 256.6 177.8 L257.0 174.2 268.1 171.15 268.6 171.25 Q293.55 176.95 316.0 188.6 L317.45 190.7 M346.3 214.95 L348.25 215.85 347.5 217.5 345.25 215.2 346.3 214.95 M411.9 322.25 L411.65 306.85 Q411.45 284.95 421.3 266.2 432.2 250.75 454.2 250.75 457.85 250.75 459.25 253.75 L459.95 258.5 460.65 258.25 Q466.7 255.35 464.45 247.55 L464.45 246.25 Q465.45 246.25 467.45 247.35 472.6 250.15 484.25 260.2 494.9 269.4 498.75 274.75 500.1 276.5 500.15 278.65 500.2 282.05 498.8 285.15 504.9 297.25 490.35 298.05 468.05 298.4 450.75 311.65 431.95 326.05 411.9 322.25 M341.15 191.0 Q341.5 188.65 344.0 190.2 L347.25 192.5 344.1 194.55 Q344.1 193.1 343.25 192.05 342.35 191.0 341.15 191.0 M344.3 197.95 L343.75 199.0 339.85 198.15 340.55 192.9 344.3 197.95 M320.8 197.95 L323.05 197.4 Q324.85 196.8 325.25 196.25 L325.0 195.5 320.9 194.95 322.75 192.25 Q327.4 195.35 325.75 199.65 L323.75 200.75 321.4 199.7 320.8 197.95 M330.05 199.4 L330.95 193.5 335.3 198.7 333.75 201.8 330.05 199.4 M349.4 192.75 Q349.8 191.9 350.75 191.5 351.85 192.75 352.4 194.65 L353.25 198.0 Q352.75 199.45 350.75 199.75 349.5 198.85 349.2 198.1 349.0 197.5 349.0 195.5 349.0 193.65 349.4 192.75 M351.0 208.65 L350.95 212.2 347.0 212.5 346.25 204.25 350.6 207.65 347.25 209.5 351.0 208.65 M337.65 207.1 Q342.0 206.1 343.85 209.55 L338.8 210.2 338.25 209.45 Q339.9 208.65 338.5 207.65 L337.65 207.1 M343.85 209.6 Q344.55 210.9 344.85 212.9 L340.3 211.75 343.85 209.6 M294.45 201.0 Q300.3 206.4 299.75 213.9 L296.15 216.75 294.55 216.05 Q278.6 211.75 274.55 197.95 L274.65 197.35 Q278.5 190.35 287.25 195.85 287.25 198.0 289.35 199.5 291.45 201.0 294.45 201.0 M271.95 202.7 Q271.65 204.65 270.15 205.85 268.65 207.0 266.8 206.75 264.9 206.5 263.75 205.0 262.55 203.45 262.75 201.55 L266.5 196.05 268.45 202.15 271.95 202.7 M256.95 204.9 L253.75 211.25 242.4 203.35 238.95 206.2 230.7 204.35 231.35 199.8 239.75 199.6 240.0 197.75 238.75 197.0 237.75 192.5 Q247.7 190.9 254.8 198.0 L256.95 204.9 M146.05 223.1 L159.95 241.7 160.85 242.75 Q168.3 253.15 171.95 265.65 148.85 266.8 134.3 251.45 L143.5 250.0 141.65 249.75 Q135.0 248.15 130.75 242.8 L130.7 242.75 Q130.7 241.35 130.3 241.3 L129.7 241.4 129.4 241.0 Q125.4 227.7 113.0 224.25 111.55 223.95 110.2 223.45 L111.5 221.55 104.85 220.35 Q97.3 214.4 98.95 203.1 L102.85 196.85 101.55 196.5 102.25 196.05 Q109.7 193.4 116.2 198.9 L118.35 200.35 118.45 202.7 121.55 202.95 126.1 206.1 137.3 214.9 146.05 223.1 M223.9 295.85 Q265.4 318.25 310.0 333.1 309.3 334.35 308.25 335.1 294.05 345.25 291.8 362.65 253.0 355.25 219.0 334.75 210.8 335.2 203.15 338.35 182.9 346.65 161.0 344.45 L153.5 343.8 Q153.75 333.55 157.45 324.05 165.35 303.85 163.3 282.1 165.0 275.8 174.4 273.0 177.3 272.1 179.9 271.9 L181.2 271.8 Q184.65 271.75 187.3 273.45 205.35 284.95 223.9 295.85 M298.2 225.0 L298.8 223.55 Q306.5 220.45 310.7 227.95 L309.9 229.6 301.6 232.9 Q296.6 230.2 298.2 225.0 M259.75 218.0 Q259.3 219.4 257.75 220.0 256.5 219.5 255.75 218.75 L256.65 217.65 257.55 216.95 259.0 216.5 259.75 218.0 M261.0 241.25 L258.75 243.25 257.6 242.0 Q247.8 232.5 257.4 222.55 268.0 220.95 267.0 236.75 L261.1 239.25 260.75 238.0 259.75 237.5 261.0 241.25" fill="#110809" fill-rule="evenodd" stroke="none"/>
    <path d="M66.05 158.95 L68.15 153.75 69.9 153.7 Q76.25 153.85 79.95 159.35 L66.05 158.95" fill="#c79a7b" fill-rule="evenodd" stroke="none"/>
    <path d="M-3.05 160.05 Q3.0 158.95 8.75 162.05 L46.25 157.65 46.3 159.95 66.05 158.95 79.95 159.35 95.05 163.5 96.15 164.45 Q95.45 163.5 95.45 163.0 99.35 159.7 114.05 160.5 125.15 161.15 127.7 162.75 146.1 154.4 166.2 154.9 187.35 156.4 208.3 152.85 226.85 149.85 244.25 156.5 L244.25 158.5 Q247.85 160.55 249.15 167.05 L250.35 172.3 248.7 173.45 Q234.0 179.05 218.15 178.85 201.1 178.65 184.45 181.55 151.15 187.25 122.1 180.95 L124.25 174.0 122.6 175.25 Q110.1 183.25 95.35 177.45 56.5 181.1 17.45 179.1 L17.05 181.35 -1.4 179.55 -3.05 178.65 -3.05 160.05 M267.6 156.65 L270.75 152.75 272.5 156.75 284.25 156.5 Q291.85 156.15 298.55 159.6 L299.05 159.9 304.0 171.85 303.35 172.85 Q285.8 175.85 270.0 168.15 270.75 162.35 268.15 157.55 L267.55 156.7 267.6 156.65 M407.95 154.1 L412.45 147.9 415.7 152.5 421.1 151.15 421.95 150.2 Q444.1 149.15 466.35 151.6 L468.95 160.35 Q471.45 166.95 473.95 168.65 L473.2 171.5 403.7 172.85 403.55 169.0 407.95 154.1 M476.8 151.4 Q479.25 151.85 481.1 153.4 L480.7 166.25 477.35 169.05 476.8 151.4 M489.15 153.15 Q490.45 150.85 492.35 151.05 493.85 151.25 495.0 152.9 488.4 156.7 487.8 163.85 L487.45 161.85 487.45 161.1 489.15 153.15 M503.35 153.05 L522.35 152.1 523.7 153.4 Q523.35 153.8 523.15 154.3 520.3 160.75 523.55 167.95 L522.7 168.25 503.55 168.35 503.35 168.25 Q502.0 168.1 500.95 167.5 500.4 167.3 500.45 166.45 L500.8 162.75 Q503.7 159.8 503.7 155.0 503.7 153.85 503.35 153.05 M531.4 155.85 Q546.3 152.85 550.45 154.3 552.45 155.05 553.3 157.65 550.0 162.7 553.05 167.15 L553.45 167.5 553.25 168.0 550.95 168.25 550.75 170.15 546.45 168.9 531.4 155.85" fill="#e0c8b8" fill-rule="evenodd" stroke="none"/>
    <path d="M244.25 156.5 L244.7 153.2 267.3 156.5 267.55 156.7 268.15 157.55 Q270.75 162.35 270.0 168.15 269.9 169.9 268.75 170.75 L268.45 170.95 268.1 171.15 257.0 174.2 Q253.9 175.15 251.75 176.25 251.1 175.35 250.35 172.3 L249.15 167.05 Q247.85 160.55 244.25 158.5 L244.25 156.5 M299.0 158.85 Q313.55 151.3 328.6 152.45 368.0 155.35 407.9 152.25 L407.95 154.1 403.55 169.0 Q402.95 171.3 402.8 172.9 L386.45 173.7 Q365.7 173.75 345.1 176.0 322.1 178.8 304.0 171.85 L299.05 159.9 299.0 158.85 M466.35 151.6 L466.45 147.0 Q472.4 146.6 476.6 150.0 L476.8 151.4 477.35 169.05 473.95 168.65 Q471.45 166.95 468.95 160.35 L466.35 151.6 M481.1 153.4 L485.4 154.15 485.7 156.0 486.1 154.6 Q487.2 150.45 489.15 153.15 L487.45 161.1 487.15 161.8 484.0 169.4 480.7 168.75 480.7 166.25 481.1 153.4 M495.0 152.9 L495.7 152.5 Q500.2 149.7 503.35 153.05 503.7 153.85 503.7 155.0 503.7 159.8 500.8 162.75 L497.9 165.2 488.3 166.5 487.8 163.85 Q488.4 156.7 495.0 152.9 M553.3 157.65 L555.0 155.8 554.7 168.0 553.45 167.5 553.05 167.15 Q550.0 162.7 553.3 157.65" fill="#3a2e30" fill-rule="evenodd" stroke="none"/>
    <path d="M530.2 187.5 L531.3 186.85 Q541.75 182.3 552.55 184.5 L552.95 186.05 552.8 186.35 Q544.65 193.8 531.5 191.05 L529.65 190.7 530.2 187.5 M540.15 210.9 L540.55 213.65 Q508.75 223.15 475.1 223.6 L451.95 224.55 Q445.9 225.2 440.0 224.45 398.4 223.75 358.25 216.5 375.4 211.9 394.95 215.05 415.5 218.4 436.2 219.0 455.7 219.6 475.2 217.3 L517.1 216.05 Q517.65 216.2 516.25 215.7 L540.15 210.9 M552.1 208.25 L550.8 204.6 550.9 204.2 555.0 203.75 555.0 208.25 552.1 208.25 M518.95 191.0 L518.55 193.85 503.65 194.05 503.15 196.55 Q501.55 197.2 499.9 197.0 478.3 193.85 457.0 196.15 436.35 198.4 415.9 197.45 394.8 196.1 374.75 189.0 L376.9 188.65 391.15 189.7 391.85 191.3 412.6 191.55 413.55 192.75 Q464.35 192.1 514.9 188.7 L518.75 188.5 518.95 191.0 M338.9 215.25 Q343.55 212.8 348.25 214.25 L346.3 214.95 345.25 215.2 339.5 215.75 338.9 215.25 M340.55 192.9 L341.15 191.0 Q342.35 191.0 343.25 192.05 344.1 193.1 344.1 194.55 L344.3 197.95 340.55 192.9 M335.0 196.4 L334.5 192.5 Q339.4 192.9 338.3 198.6 L335.0 196.4 M320.9 194.95 L325.0 195.5 325.25 196.25 Q324.85 196.8 323.05 197.4 L320.8 197.95 319.75 198.0 Q319.25 196.5 319.25 195.75 319.7 195.1 320.7 194.95 L320.9 194.95 M330.05 199.4 Q325.2 195.1 330.9 193.3 L330.95 193.5 330.05 199.4 M362.25 209.4 L363.0 206.5 375.55 197.85 Q383.8 202.55 387.45 209.7 L362.25 209.4 M351.0 208.65 L347.25 209.5 350.6 207.65 355.25 207.2 351.0 208.65 M338.25 209.45 Q335.45 208.6 337.05 207.25 L337.65 207.1 338.5 207.65 Q339.9 208.65 338.25 209.45 M343.85 209.55 L344.0 209.5 343.85 209.6 340.3 211.75 335.35 210.8 338.8 210.2 343.85 209.55 M293.9 196.25 L296.75 199.25 294.45 201.0 Q291.45 201.0 289.35 199.5 287.25 198.0 287.25 195.85 L288.05 194.3 293.9 196.25 M273.75 198.0 L271.95 202.7 268.45 202.15 266.5 196.05 262.75 201.55 Q259.15 205.25 257.75 205.25 257.35 205.25 256.95 204.9 L254.8 198.0 256.0 195.5 272.85 195.55 273.75 198.0 M230.1 199.75 Q224.7 205.05 216.45 205.75 188.25 207.45 162.7 201.5 L162.5 199.75 157.8 203.4 159.8 209.9 156.05 209.9 Q167.05 221.3 156.95 231.2 L146.05 223.1 137.3 214.9 Q133.3 210.75 132.3 208.3 128.85 207.5 126.1 206.1 L121.55 202.95 118.45 202.7 118.35 200.35 116.5 198.5 117.2 194.35 123.75 196.75 123.85 193.8 Q131.05 192.8 138.75 196.0 L138.75 194.75 143.05 197.4 143.7 197.5 Q151.15 189.95 163.6 196.5 L163.75 198.1 164.8 197.6 Q197.75 193.25 229.75 194.8 L230.1 199.75 M511.45 207.1 L512.25 205.45 Q525.1 204.2 534.7 208.4 523.35 211.4 511.75 208.8 L511.45 207.1 M40.2 205.8 L40.8 202.5 Q67.55 196.4 97.95 196.55 L101.55 196.5 102.85 196.85 98.95 203.1 95.35 209.7 Q92.45 211.2 89.15 211.45 63.4 214.2 40.4 207.7 L42.2 205.75 40.2 205.8 M128.95 241.25 L129.7 241.4 130.3 241.3 Q130.7 241.35 130.7 242.75 L130.7 242.8 Q128.75 245.25 125.6 245.75 85.0 253.1 43.9 244.5 L43.85 242.45 Q64.55 237.55 86.35 243.45 108.2 249.35 128.95 241.25 M110.2 223.45 L108.5 224.7 65.85 223.45 65.9 221.55 Q85.35 218.8 104.85 220.35 L111.5 221.55 110.2 223.45 M15.0 222.7 L25.35 222.4 26.35 224.1 1.5 228.1 Q7.35 223.15 15.0 222.7 M3.2 235.4 Q5.9 233.8 9.45 232.75 19.2 230.05 29.2 231.75 L3.2 235.4 M49.1 219.2 L65.45 219.5 64.25 220.25 Q54.85 225.35 43.95 222.75 L49.1 219.2 M109.2 230.5 L110.05 233.85 65.4 229.5 65.9 226.45 109.2 230.5 M108.2 237.5 L109.05 240.85 55.45 236.7 Q56.45 230.3 63.1 231.2 85.8 233.2 108.2 237.5 M312.3 211.55 L311.85 214.4 300.25 215.7 300.15 213.4 302.05 211.9 Q307.6 209.6 312.3 211.55 M318.25 221.25 L309.55 222.55 Q312.65 219.1 317.25 220.75 L318.25 221.25 M290.6 225.5 L290.55 227.95 Q280.95 233.3 270.75 228.75 277.7 219.1 290.6 225.5 M269.0 216.75 Q269.7 215.25 270.3 214.9 271.3 214.25 274.25 214.25 L277.8 214.6 Q279.5 214.95 280.25 215.5 280.45 216.8 280.1 217.2 279.6 217.75 275.75 217.75 270.35 217.75 269.0 216.75 M245.7 218.5 L245.6 216.65 257.4 214.7 Q258.7 216.1 256.3 217.2 250.4 219.7 245.7 218.5 M251.25 232.45 L250.5 235.95 Q228.7 236.65 206.75 233.3 L164.25 227.5 Q171.5 224.35 179.6 225.1 216.0 227.25 251.25 232.45 M239.25 222.5 L238.35 225.1 Q213.3 225.9 188.75 219.5 L188.0 217.25 Q214.05 216.05 239.25 222.5" fill="#bb8875" fill-rule="evenodd" stroke="none"/>
    <path d="M412.1 147.35 Q410.45 148.2 408.75 149.0 L406.9 148.55 404.75 145.1 407.5 139.45 410.65 140.15 412.05 139.5 413.1 139.3 413.75 138.4 427.4 132.65 427.95 135.0 431.35 131.2 Q438.75 128.8 446.1 131.5 L446.65 130.15 449.6 130.55 450.15 132.9 451.75 130.9 461.8 133.1 465.0 139.1 Q453.45 146.65 441.45 139.0 L438.2 142.25 431.2 138.75 412.15 147.35 412.1 147.35 M555.0 151.35 L547.8 149.65 548.35 148.4 Q550.6 144.45 555.0 143.75 L555.0 151.35 M541.35 143.15 L543.4 145.55 541.35 149.35 Q534.0 147.5 527.65 151.4 526.4 149.6 527.2 147.3 528.05 144.75 530.15 142.9 L534.55 143.2 534.65 145.5 535.5 143.25 541.35 143.15 M387.15 139.05 Q397.15 134.8 404.75 141.75 395.45 152.15 383.25 143.1 L379.75 146.0 Q334.9 136.25 294.05 149.15 289.75 147.55 288.9 143.3 L288.0 144.85 257.0 144.55 257.05 142.05 279.5 139.15 280.8 137.1 294.75 137.35 298.7 139.95 Q313.2 131.85 327.8 139.15 L329.3 138.55 338.65 138.15 339.6 139.55 342.6 140.5 343.45 138.25 347.7 138.35 Q349.1 140.65 349.75 138.35 L353.75 138.45 353.75 138.75 354.05 138.45 378.65 138.9 378.75 140.75 379.9 138.95 386.75 139.05 387.0 139.5 387.15 139.05 M212.45 142.7 L198.75 147.5 188.05 142.3 134.1 149.85 134.2 149.05 Q136.3 142.65 143.35 142.05 L144.25 141.05 Q150.05 139.1 159.2 137.55 L247.0 141.75 Q230.85 152.2 211.8 145.3 L212.45 142.7 M70.1 146.55 L90.95 145.0 Q81.3 156.1 70.1 146.55" fill="#dec19f" fill-rule="evenodd" stroke="none"/>
    <path d="M523.7 153.4 L525.95 151.5 528.45 155.0 531.4 155.85 546.45 168.9 550.75 170.15 550.95 168.25 553.25 168.0 555.0 168.6 555.0 185.15 552.95 186.05 552.55 184.5 Q541.75 182.3 531.3 186.85 L530.2 187.5 Q519.2 176.2 504.95 169.1 L503.55 168.35 522.7 168.25 523.55 167.95 Q520.3 160.75 523.15 154.3 523.35 153.8 523.7 153.4 M487.15 161.8 L487.45 161.85 487.8 163.85 488.3 166.5 497.9 165.2 500.8 162.75 500.45 166.45 499.75 166.4 Q507.4 180.65 522.2 187.0 L519.2 191.0 518.95 191.0 518.75 188.5 514.9 188.7 Q464.35 192.1 413.55 192.75 L412.6 191.55 391.85 191.3 391.15 189.7 376.9 188.65 362.0 179.55 317.45 190.7 316.0 188.6 Q293.55 176.95 268.6 171.25 L268.45 170.95 268.75 170.75 Q269.9 169.9 270.0 168.15 285.8 175.85 303.35 172.85 L304.0 171.85 Q322.1 178.8 345.1 176.0 365.7 173.75 386.45 173.7 L402.8 172.9 403.7 172.85 473.2 171.5 473.95 168.65 477.35 169.05 480.7 166.25 480.7 168.75 484.0 169.4 487.15 161.8 M303.8 195.8 Q302.3 196.8 300.75 197.75 L293.9 196.25 288.05 194.3 287.25 195.85 Q278.5 190.35 274.65 197.35 L274.55 197.95 273.75 198.0 272.85 195.55 256.0 195.5 254.8 198.0 Q247.7 190.9 237.75 192.5 L238.75 197.0 240.0 197.75 239.75 199.6 231.35 199.8 230.1 199.75 229.75 194.8 Q197.75 193.25 164.8 197.6 L163.75 198.1 163.6 196.5 Q151.15 189.95 143.7 197.5 L143.05 197.4 138.75 194.75 138.75 196.0 Q131.05 192.8 123.85 193.8 L123.75 196.75 117.2 194.35 116.5 198.5 116.2 198.9 Q109.7 193.4 102.25 196.05 L101.55 196.5 97.95 196.55 Q67.55 196.4 40.8 202.5 L40.2 205.8 39.4 206.1 Q17.3 209.35 -3.05 200.9 L-3.05 199.7 -0.7 193.3 Q-2.05 193.35 -3.05 193.95 L-3.05 182.25 -1.4 179.55 17.05 181.35 17.45 179.1 Q56.5 181.1 95.35 177.45 110.1 183.25 122.6 175.25 L124.25 174.0 122.1 180.95 Q151.15 187.25 184.45 181.55 201.1 178.65 218.15 178.85 234.0 179.05 248.7 173.45 L250.35 172.3 Q251.1 175.35 251.75 176.25 253.9 175.15 257.0 174.2 L256.6 177.8 Q266.7 190.1 282.05 184.45 L283.15 183.85 Q293.7 183.8 301.1 192.55 L306.5 193.5 303.8 195.8" fill="#6f5b52" fill-rule="evenodd" stroke="none"/>
    <path d="M552.95 186.05 L555.0 185.15 555.0 203.75 550.9 204.2 550.65 204.15 Q544.65 192.85 531.5 191.3 L531.5 191.05 Q544.65 193.8 552.8 186.35 L552.95 186.05 M519.2 191.0 Q526.35 199.55 538.6 203.15 L539.05 203.6 540.15 210.9 516.25 215.7 Q517.65 216.2 517.1 216.05 L475.2 217.3 Q455.7 219.6 436.2 219.0 415.5 218.4 394.95 215.05 375.4 211.9 358.25 216.5 398.4 223.75 440.0 224.45 445.9 225.2 451.95 224.55 L475.1 223.6 Q508.75 223.15 540.55 213.65 L540.7 220.7 Q548.25 224.7 552.95 231.9 553.75 233.1 554.1 234.75 L553.2 235.0 553.05 234.75 Q547.8 226.6 541.3 231.4 539.8 230.5 538.75 230.4 L537.45 229.75 Q515.8 234.15 494.0 228.05 481.4 224.55 481.4 234.3 L502.5 242.35 499.7 242.5 500.4 249.4 499.8 249.65 496.7 245.75 467.9 245.6 467.45 247.35 Q465.45 246.25 464.45 246.25 L464.2 246.75 Q461.55 246.35 460.65 249.3 L459.25 253.75 Q457.85 250.75 454.2 250.75 432.2 250.75 421.3 266.2 411.45 284.95 411.65 306.85 L411.9 322.25 Q387.3 313.7 365.75 299.45 L362.25 285.5 Q357.45 271.65 346.75 236.15 349.6 224.15 340.1 216.25 L339.5 215.75 345.25 215.2 347.5 217.5 348.25 215.85 346.3 214.95 348.25 214.25 Q343.55 212.8 338.9 215.25 L338.75 215.15 Q318.25 209.2 317.55 191.55 L317.45 190.7 362.0 179.55 376.9 188.65 374.75 189.0 Q394.8 196.1 415.9 197.45 436.35 198.4 457.0 196.15 478.3 193.85 499.9 197.0 501.55 197.2 503.15 196.55 L503.65 194.05 518.55 193.85 518.95 191.0 519.2 191.0 M555.0 215.0 L552.1 208.25 555.0 208.25 555.0 215.0 M341.15 191.0 L340.55 192.9 339.85 198.15 343.75 199.0 344.3 197.95 344.1 194.55 347.25 192.5 344.0 190.2 Q341.5 188.65 341.15 191.0 M335.0 196.4 L338.3 198.6 Q339.4 192.9 334.5 192.5 L335.0 196.4 M320.9 194.95 L320.7 194.95 Q319.7 195.1 319.25 195.75 319.25 196.5 319.75 198.0 L320.8 197.95 321.4 199.7 323.75 200.75 325.75 199.65 Q327.4 195.35 322.75 192.25 L320.9 194.95 M330.95 193.5 L330.9 193.3 Q325.2 195.1 330.05 199.4 L333.75 201.8 335.3 198.7 330.95 193.5 M349.4 192.75 Q349.0 193.65 349.0 195.5 349.0 197.5 349.2 198.1 349.5 198.85 350.75 199.75 352.75 199.45 353.25 198.0 L352.4 194.65 Q351.85 192.75 350.75 191.5 349.8 191.9 349.4 192.75 M362.25 209.4 L387.45 209.7 Q383.8 202.55 375.55 197.85 L363.0 206.5 362.25 209.4 M350.6 207.65 L346.25 204.25 347.0 212.5 350.95 212.2 351.0 208.65 355.25 207.2 350.6 207.65 M337.65 207.1 L337.05 207.25 Q335.45 208.6 338.25 209.45 L338.8 210.2 335.35 210.8 340.3 211.75 344.85 212.9 Q344.55 210.9 343.85 209.6 L344.0 209.5 343.85 209.55 Q342.0 206.1 337.65 207.1 M303.8 195.8 Q316.25 213.4 329.35 230.15 332.35 233.95 337.25 235.0 322.85 236.3 310.55 242.6 293.3 233.0 277.2 244.4 L277.0 244.75 278.95 247.35 Q274.6 247.35 271.55 248.9 268.45 250.45 268.45 252.6 246.85 249.85 225.0 250.25 203.45 250.6 182.3 246.9 170.8 245.1 159.95 241.7 L146.05 223.1 156.95 231.2 Q167.05 221.3 156.05 209.9 L159.8 209.9 157.8 203.4 162.5 199.75 162.7 201.5 Q188.25 207.45 216.45 205.75 224.7 205.05 230.1 199.75 L231.35 199.8 230.7 204.35 238.95 206.2 242.4 203.35 253.75 211.25 256.95 204.9 Q257.35 205.25 257.75 205.25 259.15 205.25 262.75 201.55 262.55 203.45 263.75 205.0 264.9 206.5 266.8 206.75 268.65 207.0 270.15 205.85 271.65 204.65 271.95 202.7 L273.75 198.0 274.55 197.95 Q278.6 211.75 294.55 216.05 L296.15 216.75 299.75 213.9 Q300.3 206.4 294.45 201.0 L296.75 199.25 293.9 196.25 300.75 197.75 Q302.3 196.8 303.8 195.8 M511.45 207.1 L511.75 208.8 Q523.35 211.4 534.7 208.4 525.1 204.2 512.25 205.45 L511.45 207.1 M-3.05 193.95 Q-2.05 193.35 -0.7 193.3 L-3.05 199.7 -3.05 193.95 M-3.05 200.9 Q17.3 209.35 39.4 206.1 L40.2 205.8 42.2 205.75 40.4 207.7 Q63.4 214.2 89.15 211.45 92.45 211.2 95.35 209.7 L98.95 203.1 Q97.3 214.4 104.85 220.35 85.35 218.8 65.9 221.55 L65.85 223.45 108.5 224.7 110.2 223.45 Q111.55 223.95 113.0 224.25 125.4 227.7 129.4 241.0 L128.95 241.25 Q108.2 249.35 86.35 243.45 64.55 237.55 43.85 242.45 L43.9 244.5 Q85.0 253.1 125.6 245.75 128.75 245.25 130.7 242.8 L130.75 242.8 Q135.0 248.15 141.65 249.75 L143.5 250.0 134.3 251.45 Q148.85 266.8 171.95 265.65 L172.25 265.95 Q175.45 268.75 179.75 271.0 L179.9 271.9 Q177.3 272.1 174.4 273.0 165.0 275.8 163.3 282.1 118.1 257.25 65.4 278.25 53.55 267.1 37.45 264.5 17.2 260.95 -3.05 262.85 L-3.05 200.9 M108.2 237.5 Q85.8 233.2 63.1 231.2 56.45 230.3 55.45 236.7 L109.05 240.85 108.2 237.5 M109.2 230.5 L65.9 226.45 65.4 229.5 110.05 233.85 109.2 230.5 M49.1 219.2 L43.95 222.75 Q54.85 225.35 64.25 220.25 L65.45 219.5 49.1 219.2 M3.2 235.4 L29.2 231.75 Q19.2 230.05 9.45 232.75 5.9 233.8 3.2 235.4 M15.0 222.7 Q7.35 223.15 1.5 228.1 L26.35 224.1 25.35 222.4 15.0 222.7 M318.25 221.25 L317.25 220.75 Q312.65 219.1 309.55 222.55 L318.25 221.25 M312.3 211.55 Q307.6 209.6 302.05 211.9 L300.15 213.4 300.25 215.7 311.85 214.4 312.3 211.55 M290.6 225.5 Q277.7 219.1 270.75 228.75 280.95 233.3 290.55 227.95 L290.6 225.5 M298.2 225.0 Q296.6 230.2 301.6 232.9 L309.9 229.6 310.7 227.95 Q306.5 220.45 298.8 223.55 L298.2 225.0 M269.0 216.75 Q270.35 217.75 275.75 217.75 279.6 217.75 280.1 217.2 280.45 216.8 280.25 215.5 279.5 214.95 277.8 214.6 L274.25 214.25 Q271.3 214.25 270.3 214.9 269.7 215.25 269.0 216.75 M245.7 218.5 Q250.4 219.7 256.3 217.2 258.7 216.1 257.4 214.7 L245.6 216.65 245.7 218.5 M259.75 218.0 L259.0 216.5 257.55 216.95 256.65 217.65 255.75 218.75 Q256.5 219.5 257.75 220.0 259.3 219.4 259.75 218.0 M251.25 232.45 Q216.0 227.25 179.6 225.1 171.5 224.35 164.25 227.5 L206.75 233.3 Q228.7 236.65 250.5 235.95 L251.25 232.45 M261.0 241.25 L259.75 237.5 260.75 238.0 261.1 239.25 267.0 236.75 Q268.0 220.95 257.4 222.55 247.8 232.5 257.6 242.0 L258.75 243.25 261.0 241.25 M239.25 222.5 Q214.05 216.05 188.0 217.25 L188.75 219.5 Q213.3 225.9 238.35 225.1 L239.25 222.5" fill="#725035" fill-rule="evenodd" stroke="none"/>
    <path d="M500.4 249.4 L499.7 242.5 502.5 242.35 Q507.45 242.6 512.55 246.8 516.9 250.4 518.55 253.95 L519.2 255.75 Q521.5 265.4 530.8 269.05 L531.35 269.5 Q531.1 278.3 523.85 284.75 519.25 284.3 515.4 281.55 513.25 280.1 512.2 277.75 L513.35 275.75 Q505.1 263.5 500.45 249.45 L500.4 249.4 M538.75 230.4 Q539.8 230.5 541.3 231.4 545.2 233.6 546.2 237.8 L546.4 238.95 544.5 240.15 Q546.2 250.85 554.05 258.6 L554.35 261.55 549.7 265.5 555.0 272.45 555.0 274.75 Q548.9 274.75 544.6 269.75 540.25 264.75 540.25 257.7 L539.7 256.15 532.45 234.25 538.75 230.4 M137.3 214.9 L126.1 206.1 Q128.85 207.5 132.3 208.3 133.3 210.75 137.3 214.9" fill="#000000" fill-rule="evenodd" stroke="none"/>
    <path d="M-3.05 160.05 L-3.05 151.45 Q13.2 145.35 31.65 144.5 53.3 142.7 74.6 137.75 94.7 133.15 115.7 135.1 133.75 136.5 151.5 133.9 170.65 131.1 189.85 129.8 211.55 128.1 233.3 129.7 L275.75 133.55 Q295.25 135.5 314.6 134.15 336.9 132.3 359.45 132.85 L396.95 133.6 Q410.8 134.3 424.3 130.15 445.5 123.4 467.45 127.4 488.45 131.4 509.85 133.8 532.4 136.15 555.0 136.15 L555.0 143.75 Q550.6 144.45 548.35 148.4 L547.8 149.65 555.0 151.35 555.0 155.8 553.3 157.65 Q552.45 155.05 550.45 154.3 546.3 152.85 531.4 155.85 L528.45 155.0 525.95 151.5 523.7 153.4 522.35 152.1 503.35 153.05 Q500.2 149.7 495.7 152.5 L495.0 152.9 Q493.85 151.25 492.35 151.05 490.45 150.85 489.15 153.15 487.2 150.45 486.1 154.6 L485.7 156.0 485.4 154.15 481.1 153.4 Q479.25 151.85 476.8 151.4 L476.6 150.0 Q472.4 146.6 466.45 147.0 L466.35 151.6 Q444.1 149.15 421.95 150.2 L421.1 151.15 415.7 152.5 412.45 147.9 407.95 154.1 407.9 152.25 Q368.0 155.35 328.6 152.45 313.55 151.3 299.0 158.85 L298.55 159.6 Q291.85 156.15 284.25 156.5 L272.5 156.75 270.75 152.75 267.6 156.65 267.3 156.5 244.7 153.2 244.25 156.5 Q226.85 149.85 208.3 152.85 187.35 156.4 166.2 154.9 146.1 154.4 127.7 162.75 125.15 161.15 114.05 160.5 99.35 159.7 95.45 163.0 L95.05 163.5 79.95 159.35 Q76.25 153.85 69.9 153.7 L68.15 153.75 66.05 158.95 46.3 159.95 46.25 157.65 8.75 162.05 Q3.0 158.95 -3.05 160.05 M412.1 147.35 L412.45 147.9 412.15 147.35 431.2 138.75 438.2 142.25 441.45 139.0 Q453.45 146.65 465.0 139.1 L461.8 133.1 451.75 130.9 450.15 132.9 449.6 130.55 446.65 130.15 446.1 131.5 Q438.75 128.8 431.35 131.2 L427.95 135.0 427.4 132.65 413.75 138.4 413.1 139.3 412.05 139.5 410.65 140.15 407.5 139.45 404.75 145.1 406.9 148.55 408.75 149.0 Q410.45 148.2 412.1 147.35 M541.35 143.15 L535.5 143.25 534.65 145.5 534.55 143.2 530.15 142.9 Q528.05 144.75 527.2 147.3 526.4 149.6 527.65 151.4 534.0 147.5 541.35 149.35 L543.4 145.55 541.35 143.15 M353.75 138.45 L349.75 138.35 Q349.1 140.65 347.7 138.35 L343.45 138.25 342.6 140.5 339.6 139.55 338.65 138.15 329.3 138.55 327.8 139.15 Q313.2 131.85 298.7 139.95 L294.75 137.35 280.8 137.1 279.5 139.15 257.05 142.05 257.0 144.55 288.0 144.85 288.9 143.3 Q289.75 147.55 294.05 149.15 334.9 136.25 379.75 146.0 L383.25 143.1 Q395.45 152.15 404.75 141.75 397.15 134.8 387.15 139.05 L386.75 139.05 379.9 138.95 378.75 140.75 378.65 138.9 354.05 138.45 353.75 138.45 M212.45 142.7 L211.8 145.3 Q230.85 152.2 247.0 141.75 L159.2 137.55 Q150.05 139.1 144.25 141.05 L143.35 142.05 Q136.3 142.65 134.2 149.05 L134.1 149.85 188.05 142.3 198.75 147.5 212.45 142.7 M70.1 146.55 Q81.3 156.1 90.95 145.0 L70.1 146.55" fill="#565e55" fill-rule="evenodd" stroke="none"/>
    <path d="M362.25 285.5 L365.75 299.45 Q387.3 313.7 411.9 322.25 431.95 326.05 450.75 311.65 468.05 298.4 490.35 298.05 504.9 297.25 498.8 285.15 500.2 282.05 500.15 278.65 500.1 276.5 498.75 274.75 L501.35 274.75 Q505.0 262.0 499.8 249.65 L500.4 249.4 500.45 249.45 Q505.1 263.5 513.35 275.75 L512.2 277.75 Q513.25 280.1 515.4 281.55 519.25 284.3 523.85 284.75 531.1 278.3 531.35 269.5 L530.8 269.05 Q521.5 265.4 519.2 255.75 L519.85 255.05 Q528.0 264.3 539.2 259.5 L539.7 257.7 540.25 257.7 Q540.25 264.75 544.6 269.75 548.9 274.75 555.0 274.75 L555.0 406.1 -3.05 406.1 -3.05 303.65 Q4.55 309.0 17.75 308.1 33.0 306.8 41.8 318.8 46.2 324.85 51.9 323.15 71.9 317.35 92.9 315.8 113.05 314.7 132.4 320.45 134.85 346.9 161.0 344.45 182.9 346.65 203.15 338.35 210.8 335.2 219.0 334.75 253.0 355.25 291.8 362.65 294.05 345.25 308.25 335.1 309.3 334.35 310.0 333.1 265.4 318.25 223.9 295.85 245.8 298.2 267.5 295.6 278.5 294.0 284.35 285.5 295.15 297.2 309.9 293.5 335.35 287.45 321.65 270.45 326.5 265.15 334.1 265.8 L338.0 269.95 Q352.5 283.9 362.25 285.5 M555.0 272.45 L549.7 265.5 554.35 261.55 554.05 258.6 555.0 257.8 555.0 272.45" fill="url(#gradient5)" fill-rule="evenodd" stroke="none"/>
    <path d="M385.5 176.9 Q374.8 194.3 368.65 213.85 355.35 256.4 366.05 299.7 359.65 303.4 352.7 305.7 319.25 316.55 289.05 298.0 280.95 293.0 278.9 283.5 276.15 270.9 271.15 259.05 261.85 237.0 250.5 216.1 235.45 188.5 229.9 157.65 227.85 146.3 227.85 134.9 L371.9 132.4 410.05 132.95 Q409.9 139.85 408.75 146.65 405.1 168.45 387.0 176.55 L385.5 176.9 M454.7 126.0 L555.0 137.0 555.0 341.55 Q507.55 349.45 459.05 337.6 439.9 333.0 421.35 326.15 L411.25 322.1 412.15 317.0 410.3 316.1 Q407.6 292.3 416.2 270.4 418.95 263.4 424.75 258.45 436.8 248.05 441.1 233.05 445.2 218.8 442.65 203.65 438.3 177.65 445.6 151.9 449.3 138.75 454.7 126.0 M114.1 135.95 Q132.05 156.45 121.8 181.55 164.5 235.55 199.6 294.85 L215.55 292.45 Q229.75 298.7 244.05 304.45 263.45 312.25 285.5 324.3 319.55 337.55 312.25 344.65 304.95 351.75 296.95 353.3 225.1 366.3 157.1 339.2 L162.8 337.85 Q159.55 328.5 165.7 320.75 165.1 312.6 162.6 305.0 156.25 285.45 136.55 276.85 103.45 262.5 107.3 229.55 108.05 223.1 104.7 217.6 82.2 180.55 94.95 136.95 L99.3 136.55 114.1 135.95 M7.75 255.2 Q8.2 253.2 8.3 251.2 10.65 208.4 -3.05 167.7 9.1 173.65 17.25 184.4 29.6 200.65 34.9 220.5 40.4 240.95 47.2 260.9 53.25 278.6 43.85 293.5 28.1 318.4 14.3 295.65 2.85 276.85 7.75 255.2 M76.2 305.1 Q83.6 282.9 102.45 271.25 123.9 276.05 130.45 300.85 132.6 308.9 131.7 316.4 114.3 314.75 97.05 317.9 85.35 320.25 75.3 317.85 74.05 311.5 76.2 305.1" fill="#000000" fill-opacity="0.5019608" fill-rule="evenodd" stroke="none"/>
    <path d="M-2.15 292.3 L-2.45 291.85 Q-3.8 287.0 0.7 283.85 1.7 290.15 -2.15 292.3 M227.0 280.3 L223.9 281.5 220.4 279.0 224.7 274.95 227.2 275.35 227.0 280.3 M249.55 255.15 L251.2 270.85 Q247.3 269.55 245.2 265.55 241.3 258.3 249.55 255.15 M54.45 323.85 L53.2 322.5 Q60.05 299.95 76.95 283.1 L67.15 320.85 54.45 323.85 M63.45 287.5 L65.7 292.0 60.2 299.0 59.65 297.25 Q58.15 293.2 60.1 289.6 L63.45 287.5 M82.75 245.45 L88.05 241.1 Q88.1 256.15 83.15 270.15 L80.95 272.0 79.2 265.0 72.65 264.25 Q74.25 253.0 82.75 245.45 M74.85 171.6 L67.25 171.6 67.25 167.95 74.85 167.95 74.85 171.6 M38.1 179.5 L35.95 176.75 43.65 166.4 45.5 166.45 45.65 167.25 Q46.65 179.1 38.1 179.5 M164.95 165.45 L165.4 166.5 164.6 181.5 162.1 180.9 Q158.6 180.15 157.05 178.05 147.0 164.45 164.95 165.45 M192.15 170.8 L192.4 159.0 212.05 163.5 213.4 166.2 201.55 164.85 214.45 172.85 214.35 174.3 192.15 170.8 M377.85 257.4 L385.05 255.2 Q385.45 258.9 382.75 261.6 L381.25 263.0 377.8 260.55 377.85 257.4 M418.55 238.2 L424.9 238.2 424.9 242.35 418.55 242.35 418.55 238.2 M410.0 167.75 L409.95 167.65 Q409.5 163.8 415.2 162.5 L416.35 163.4 416.3 167.05 410.0 167.75" fill="#000000" fill-opacity="0.5019608" fill-rule="evenodd" stroke="none"/>
  </g>
  <defs>
    <linearGradient gradientTransform="matrix(0.0, 0.0722, -0.0867, 0.0, 274.85, 59.15)" gradientUnits="userSpaceOnUse" id="gradient0" spreadMethod="pad" x1="-819.2" x2="819.2">
      <stop offset="0.0" stop-color="#7e9acc"/>
      <stop offset="1.0" stop-color="#b0cfd7"/>
    </linearGradient>
    <linearGradient gradientTransform="matrix(0.0, 0.0096, -0.0203, 0.0, 498.75, 85.75)" gradientUnits="userSpaceOnUse" id="gradient1" spreadMethod="pad" x1="-819.2" x2="819.2">
      <stop offset="0.0" stop-color="#f3f3f5" stop-opacity="0.7529412"/>
      <stop offset="1.0" stop-color="#9ca1b5" stop-opacity="0.7529412"/>
    </linearGradient>
    <linearGradient gradientTransform="matrix(0.0012, 0.0193, -0.0346, 0.0021, 168.9, 39.6)" gradientUnits="userSpaceOnUse" id="gradient2" spreadMethod="pad" x1="-819.2" x2="819.2">
      <stop offset="0.0" stop-color="#f3f3f5"/>
      <stop offset="1.0" stop-color="#9ca1b5"/>
    </linearGradient>
    <linearGradient gradientTransform="matrix(0.0, 0.0092, -0.0226, 0.0, 323.85, 117.75)" gradientUnits="userSpaceOnUse" id="gradient3" spreadMethod="pad" x1="-819.2" x2="819.2">
      <stop offset="0.0" stop-color="#f3f3f5" stop-opacity="0.5019608"/>
      <stop offset="1.0" stop-color="#9ca1b5" stop-opacity="0.5019608"/>
    </linearGradient>
    <linearGradient gradientTransform="matrix(0.0, 0.0146, -0.0178, 0.0, 121.35, 93.4)" gradientUnits="userSpaceOnUse" id="gradient4" spreadMethod="pad" x1="-819.2" x2="819.2">
      <stop offset="0.0" stop-color="#f3f3f5" stop-opacity="0.7529412"/>
      <stop offset="1.0" stop-color="#9ca1b5" stop-opacity="0.7529412"/>
    </linearGradient>
    <linearGradient gradientTransform="matrix(0.0, 0.0692, -0.1345, 0.0, 275.85, 348.0)" gradientUnits="userSpaceOnUse" id="gradient5" spreadMethod="pad" x1="-819.2" x2="819.2">
      <stop offset="0.0" stop-color="#b58d7d"/>
      <stop offset="1.0" stop-color="#bcc08b"/>
    </linearGradient>
  </defs>
</svg>
